<?xml version="1.0" encoding="UTF-8"?>
<!DOCTYPE svg PUBLIC "-//W3C//DTD SVG 1.1//EN" "http://www.w3.org/Graphics/SVG/1.1/DTD/svg11.dtd">
<!-- Creator: CorelDRAW X8 -->
<svg xmlns="http://www.w3.org/2000/svg" xml:space="preserve" width="8.5in" height="11in" version="1.1" style="shape-rendering:geometricPrecision; text-rendering:geometricPrecision; image-rendering:optimizeQuality; fill-rule:evenodd; clip-rule:evenodd"
viewBox="0 0 8500 11000"
 xmlns:xlink="http://www.w3.org/1999/xlink">
 <defs>
  <style type="text/css">
   <![CDATA[
    .fil8 {fill:#FEFEFE;fill-rule:nonzero}
    .fil11 {fill:#EE4155;fill-rule:nonzero}
    .fil12 {fill:#F4CD37;fill-rule:nonzero}
    .fil13 {fill:#D8E0E7;fill-rule:nonzero}
    .fil2 {fill:#CFD9DB;fill-rule:nonzero}
    .fil1 {fill:#B2BFC7;fill-rule:nonzero}
    .fil14 {fill:#96989B;fill-rule:nonzero}
    .fil0 {fill:#94A6B0;fill-rule:nonzero}
    .fil10 {fill:#5DC6CD;fill-rule:nonzero}
    .fil3 {fill:#6E7E7F;fill-rule:nonzero}
    .fil6 {fill:#3EC0C9;fill-rule:nonzero}
    .fil7 {fill:#2DBEBF;fill-rule:nonzero}
    .fil9 {fill:#40728D;fill-rule:nonzero}
    .fil5 {fill:#405A76;fill-rule:nonzero}
    .fil4 {fill:#3C4F64;fill-rule:nonzero}
   ]]>
  </style>
 </defs>
 <g id="Layer_x0020_1">
  <metadata id="CorelCorpID_0Corel-Layer"/>
  <g id="_625648848">
   <polygon class="fil0" points="4295,7268 3625,7180 2955,7268 2909,7530 4341,7530 "/>
   <polygon class="fil1" points="4341,7530 2909,7530 2771,8312 4479,8312 "/>
   <path class="fil2" d="M5214 8572l-81 -124c-96,-63 -645,-98 -645,-98l-2 -1 -7 -37 -1708 0 -6 37 -3 1c0,0 -549,35 -645,98l-81 124c-34,23 0,60 54,60l3071 0c53,0 87,-37 53,-60z"/>
   <path class="fil2" d="M7222 2694l-7194 0c-15,0 -28,13 -28,28l0 4542c0,15 13,28 28,28l7194 0c16,0 28,-13 28,-28l0 -4541c0,-16 -12,-29 -28,-29z"/>
   <polygon class="fil3" points="389,6974 6861,6974 6861,3013 389,3013 "/>
   <polygon class="fil4" points="5032,3090 484,3090 484,6875 6747,6875 6747,3090 "/>
   <polygon class="fil5" points="6747,6875 484,6875 484,3148 6747,6848 "/>
   <path class="fil6" d="M5263 2738c-18,13 -37,23 -57,33 -185,92 -416,38 -539,-137 -135,-193 -89,-459 104,-595 17,-12 34,-22 52,-31 187,-95 419,-42 543,135 136,192 90,459 -103,595zm627 -293l-24 -267 -201 -15c-15,-44 62,-216 38,-256l18 -34 -190 -189 -162 115c-41,-24 -84,-44 -129,-59l-16 -198 -267 -23 -50 192c-46,7 -93,20 -138,37l-138 -139 -7 4 -213 150 85 178c-31,37 -59,76 -82,118l-196 -18 -68 259 181 82c-1,48 4,95 13,142l-163 113 114 243 193 -54c31,37 64,70 100,98l-53 194 243 112 115 -166c46,8 92,11 138,11l85 183 259 -70 -10 -103 -10 -99c19,-12 38,-23 57,-36 19,-14 38,-29 55,-44l184 87 153 -220 -145 -143c16,-43 28,-88 35,-133l196 -52z"/>
   <polygon class="fil7" points="4615,3587 1490,3587 1490,6563 3691,6563 4615,5835 "/>
   <polygon class="fil8" points="4425,3768 1680,3768 1680,6382 3613,6382 4425,5743 "/>
   <polygon class="fil9" points="1830,5369 4187,5369 4187,5056 1830,5056 "/>
   <polygon class="fil9" points="1830,4408 4187,4408 4187,4095 1830,4095 "/>
   <polygon class="fil9" points="1830,4888 4187,4888 4187,4575 1830,4575 "/>
   <polygon class="fil9" points="1830,5850 4187,5850 4187,5537 1830,5537 "/>
   <polygon class="fil10" points="4615,5835 3691,6563 3691,5835 "/>
   <path class="fil11" d="M5670 7694l-756 -437 0 322 -3906 0 0 -1447c0,-65 -53,-118 -117,-118 -65,0 -118,53 -118,118l0 1565c0,65 53,117 118,117l4023 0 0 317 756 -437z"/>
   <path class="fil11" d="M6984 2750c-17,14 -35,26 -53,38 -176,109 -411,76 -549,-87 -153,-180 -131,-450 49,-603 16,-13 32,-24 49,-35 177,-112 414,-80 553,85 153,179 131,449 -49,602zm598 -348l-48 -264 -202 3c-18,-42 -42,-82 -70,-121l100 -173 -206 -171 -151 130c-43,-21 -88,-37 -134,-48l-34 -196 -268 2 -32 195c-46,12 -91,29 -134,50l-151 -126 -6 5 -198 168 101 170c-29,39 -52,81 -71,125l-197 0 -45 264 188 65c3,48 12,94 26,140l-152 128 135 231 188 -71c33,34 70,63 108,89l-35 197 253 90 99 -176c46,4 92,3 138,-2l101 175 251 -93 -19 -102 -19 -98c19,-13 37,-26 54,-41 18,-15 35,-31 51,-48l191 69 132 -232 -157 -129c12,-45 20,-90 23,-136l190 -69z"/>
   <path class="fil12" d="M6485 4568c-24,17 -50,31 -76,44 -253,126 -567,53 -735,-185 -184,-263 -121,-626 141,-811 23,-16 47,-30 72,-42 254,-130 570,-57 739,183 185,263 122,626 -141,811zm854 -398l-32 -364 -274 -22c-21,-58 -47,-116 -81,-172l158 -223 -259 -257 -221 158c-56,-34 -114,-61 -175,-82l-22 -269 -364 -31 -68 261c-63,10 -126,27 -188,51l-189 -190 -8 6 -290 204 115 243c-43,50 -80,104 -111,160l-267 -24 -93 352 246 113c-1,64 5,129 18,193l-222 153 155 331 264 -73c41,50 87,95 136,134l-72 263 331 154 156 -228c62,11 125,17 188,15l115 250 353 -95 -14 -141 -13 -135c26,-15 52,-31 77,-49 27,-19 52,-38 76,-59l250 118 208 -300 -197 -194c22,-58 38,-119 48,-181l266 -70z"/>
   <path class="fil1" d="M5809 5633l0 3444c0,222 154,404 343,404l2005 0c189,0 343,-182 343,-404l0 -3444c0,-222 -155,-404 -343,-404l-2005 0c-189,0 -343,182 -343,404z"/>
   <polygon class="fil4" points="6174,5697 6132,5697 6132,8619 8177,8619 8177,5697 "/>
   <path class="fil13" d="M7148 8957c105,0 189,85 189,189 0,105 -84,189 -189,189 -104,0 -189,-84 -189,-189 0,-104 85,-189 189,-189z"/>
   <path class="fil14" d="M7047 5462c-20,0 -37,-17 -36,-37 0,-21 16,-37 37,-37l350 2 0 0c21,0 37,17 37,37 0,21 -17,37 -38,37l-350 -2 0 0z"/>
   <path class="fil14" d="M6878 5581c-21,0 -37,-17 -37,-37 0,-21 17,-37 37,-37l625 3 0 0c20,0 37,17 37,37 0,21 -17,37 -38,37l-624 -3 0 0z"/>
   <path class="fil14" d="M6598 5409c50,0 90,40 90,90 0,50 -40,91 -90,91 -50,0 -91,-41 -91,-91 0,-50 41,-90 91,-90z"/>
   <polygon class="fil7" points="7941,5934 6458,5934 6458,8363 7502,8363 7941,7769 "/>
   <polygon class="fil8" points="7850,6082 6548,6082 6548,8215 7466,8215 7850,7693 "/>
   <polygon class="fil9" points="6619,7388 7737,7388 7737,7133 6619,7133 "/>
   <polygon class="fil9" points="6619,6604 7737,6604 7737,6349 6619,6349 "/>
   <polygon class="fil9" points="6619,6996 7737,6996 7737,6741 6619,6741 "/>
   <polygon class="fil9" points="6619,7781 7737,7781 7737,7525 6619,7525 "/>
   <polygon class="fil10" points="7941,7769 7502,8363 7502,7769 "/>
  </g>
 </g>
</svg>
