<?xml version="1.0" encoding="UTF-8"?>
<!DOCTYPE svg PUBLIC "-//W3C//DTD SVG 1.1//EN" "http://www.w3.org/Graphics/SVG/1.1/DTD/svg11.dtd">
<!-- Creator: CorelDRAW X8 -->
<svg xmlns="http://www.w3.org/2000/svg" xml:space="preserve" width="8.5in" height="11in" version="1.1" style="shape-rendering:geometricPrecision; text-rendering:geometricPrecision; image-rendering:optimizeQuality; fill-rule:evenodd; clip-rule:evenodd"
viewBox="0 0 8500 11000"
 xmlns:xlink="http://www.w3.org/1999/xlink">
 <defs>
  <style type="text/css">
   <![CDATA[
    .fil3 {fill:#FEFEFE;fill-rule:nonzero}
    .fil6 {fill:#F0596A;fill-rule:nonzero}
    .fil10 {fill:#EE4155;fill-rule:nonzero}
    .fil1 {fill:#F4CD37;fill-rule:nonzero}
    .fil5 {fill:#EAD4C2;fill-rule:nonzero}
    .fil7 {fill:#CF3540;fill-rule:nonzero}
    .fil11 {fill:#B2BCC5;fill-rule:nonzero}
    .fil2 {fill:#7C949E;fill-rule:nonzero}
    .fil8 {fill:#38C0C9;fill-rule:nonzero}
    .fil0 {fill:#2DBEBF;fill-rule:nonzero}
    .fil9 {fill:#28B1C0;fill-rule:nonzero}
    .fil4 {fill:#3C4F64;fill-rule:nonzero}
   ]]>
  </style>
 </defs>
 <g id="Layer_x0020_1">
  <metadata id="CorelCorpID_0Corel-Layer"/>
  <g id="_633053888">
   <path class="fil0" d="M1451 669c0,193 153,348 343,348 189,0 343,-155 343,-348 0,-193 -154,-348 -343,-348 -190,0 -343,155 -343,348z"/>
   <path class="fil0" d="M1184 1299c-2,-109 84,-199 192,-199l842 0c106,0 192,88 192,196 0,296 0,582 0,882 1,106 -84,193 -189,193l0 0 -2 0c3,251 3,502 1,749 -1,106 -85,191 -189,191l-2 0c-105,0 -189,-87 -188,-194 2,-283 1,-454 -3,-743l-66 0c-4,286 -6,455 -3,738 0,106 -84,193 -189,194l-1 0c-104,0 -189,-85 -190,-191 -1,-247 -1,-497 3,-746l-25 2 -6 0c-105,-4 -187,-93 -184,-199 10,-300 12,-583 7,-873z"/>
   <path class="fil1" d="M4496 669c0,193 153,348 343,348 189,0 343,-155 343,-348 0,-193 -154,-348 -343,-348 -190,0 -343,155 -343,348z"/>
   <path class="fil1" d="M4229 1299c-2,-109 84,-199 192,-199l841 0c107,0 193,88 193,196 -1,296 0,582 0,882 0,106 -84,193 -189,193l0 0 -2 0c2,251 3,502 1,749 -1,106 -86,191 -189,191l-2 0c-105,0 -189,-87 -188,-194 2,-283 1,-454 -3,-743l-66 0c-4,286 -6,455 -4,738 1,106 -83,193 -188,194l-1 0c-104,0 -189,-85 -190,-191 -2,-247 -1,-497 2,-746l-24 2 -6 0c-105,-4 -187,-93 -184,-199 9,-300 12,-583 7,-873z"/>
   <polygon class="fil2" points="8211,5257 1097,5257 1097,10680 6108,10680 8211,9353 "/>
   <polygon class="fil3" points="7778,5587 1531,5587 1531,10350 5931,10350 7778,9185 "/>
   <polygon class="fil4" points="1871,8504 7236,8504 7236,7933 1871,7933 "/>
   <polygon class="fil4" points="1871,6753 7236,6753 7236,6183 1871,6183 "/>
   <polygon class="fil4" points="1871,7628 7236,7628 7236,7058 1871,7058 "/>
   <polygon class="fil4" points="1871,9379 7236,9379 7236,8809 1871,8809 "/>
   <polygon class="fil5" points="2303,8600 2988,8720 3389,8790 3564,8611 3449,8043 3350,7531 2472,7836 "/>
   <polygon class="fil6" points="2571,8326 3072,7815 691,5482 190,5993 "/>
   <path class="fil7" d="M691 5482l2381 2333 278 -284 -2245 -2200c-75,-74 -195,-72 -268,2l-146 149z"/>
   <path class="fil7" d="M57 6400l2246 2200 268 -274 -2381 -2333 -136 139c-73,75 -72,195 3,268z"/>
   <polygon class="fil8" points="2571,8326 3072,7815 1081,5864 580,6375 "/>
   <polygon class="fil9" points="3072,7815 3350,7531 1359,5580 1081,5864 "/>
   <polygon class="fil9" points="2303,8600 2571,8326 580,6375 312,6649 "/>
   <path class="fil5" d="M2983 7536l89 279 -445 -7c-41,-1 -74,32 -72,73l16 445 -209 -10c-43,-2 -77,33 -74,75l15 209 436 -162 355 -430 257 -476 -281 -85c-54,-16 -105,35 -87,89z"/>
   <path class="fil7" d="M3326 8107l31 189c6,39 -30,71 -68,60l-106 -31c-56,-17 -104,41 -78,93l48 97c15,30 -2,66 -34,75l-95 25c-42,11 -62,58 -41,96l5 9 497 87c59,11 110,-42 98,-100l-134 -664 -39 -11c-47,-13 -92,27 -84,75z"/>
   <path class="fil4" d="M8081 4772l-6451 0c-56,0 -102,-46 -102,-102 0,-57 46,-103 102,-103l6451 0c57,0 103,46 103,103 0,56 -46,102 -103,102z"/>
   <path class="fil4" d="M4856 5728c-57,0 -102,-46 -102,-103l0 -1553c0,-56 45,-102 102,-102 56,0 102,46 102,102l0 1553c0,57 -46,103 -102,103z"/>
   <path class="fil4" d="M1622 4746c-57,0 -103,-45 -103,-102l0 -614c0,-57 46,-103 103,-103 56,0 102,46 102,103l0 614c0,57 -46,102 -102,102z"/>
   <path class="fil0" d="M1824 3944c0,127 -104,231 -231,231 -127,0 -230,-104 -230,-231 0,-127 103,-230 230,-230 127,0 231,103 231,230z"/>
   <path class="fil1" d="M5092 3944c0,127 -103,231 -230,231 -128,0 -231,-104 -231,-231 0,-127 103,-230 231,-230 127,0 230,103 230,230z"/>
   <path class="fil4" d="M5092 5787c0,128 -103,231 -230,231 -128,0 -231,-103 -231,-231 0,-127 103,-230 231,-230 127,0 230,103 230,230z"/>
   <path class="fil10" d="M7540 669c0,193 154,348 343,348 190,0 344,-155 344,-348 0,-193 -154,-348 -344,-348 -189,0 -343,155 -343,348z"/>
   <path class="fil10" d="M7273 1299c-2,-109 85,-199 193,-199l841 0c106,0 193,88 192,196 0,296 0,582 1,882 0,106 -85,193 -189,193l-1 0 -2 0c3,251 4,502 2,749 -1,106 -86,191 -190,191l-1 0c-105,0 -189,-87 -188,-194 2,-283 1,-454 -3,-743l-66 0c-5,286 -6,455 -4,738 1,106 -83,193 -188,194l-2 0c-104,0 -188,-85 -189,-191 -2,-247 -1,-497 2,-746l-25 2 -6 0c-104,-4 -186,-93 -183,-199 9,-300 11,-583 6,-873z"/>
   <polygon class="fil11" points="8211,9353 6108,10680 6108,9353 "/>
   <path class="fil4" d="M8090 4746c-57,0 -102,-45 -102,-102l0 -614c0,-57 45,-103 102,-103 57,0 102,46 102,103l0 614c0,57 -45,102 -102,102z"/>
   <path class="fil10" d="M8300 3944c0,127 -103,231 -230,231 -127,0 -230,-104 -230,-231 0,-127 103,-230 230,-230 127,0 230,103 230,230z"/>
  </g>
 </g>
</svg>
