<?xml version="1.0" encoding="UTF-8"?>
<!DOCTYPE svg PUBLIC "-//W3C//DTD SVG 1.1//EN" "http://www.w3.org/Graphics/SVG/1.1/DTD/svg11.dtd">
<!-- Creator: CorelDRAW X8 -->
<svg xmlns="http://www.w3.org/2000/svg" xml:space="preserve" width="8.5in" height="11in" version="1.1" style="shape-rendering:geometricPrecision; text-rendering:geometricPrecision; image-rendering:optimizeQuality; fill-rule:evenodd; clip-rule:evenodd"
viewBox="0 0 8500 11000"
 xmlns:xlink="http://www.w3.org/1999/xlink">
 <defs>
  <style type="text/css">
   <![CDATA[
    .fil0 {fill:none;fill-rule:nonzero}
    .fil8 {fill:#0A3B56;fill-rule:nonzero}
    .fil22 {fill:#0F4462;fill-rule:nonzero}
    .fil25 {fill:#1A4D6B;fill-rule:nonzero}
    .fil7 {fill:#1C75BC;fill-rule:nonzero}
    .fil26 {fill:#1F5D77;fill-rule:nonzero}
    .fil21 {fill:#2A87C6;fill-rule:nonzero}
    .fil36 {fill:#3BC642;fill-rule:nonzero}
    .fil30 {fill:#4FE85D;fill-rule:nonzero}
    .fil32 {fill:#7231A3;fill-rule:nonzero}
    .fil35 {fill:#79FF67;fill-rule:nonzero}
    .fil13 {fill:#8344B1;fill-rule:nonzero}
    .fil31 {fill:#9162C1;fill-rule:nonzero}
    .fil19 {fill:#933D31;fill-rule:nonzero}
    .fil20 {fill:#9C4D36;fill-rule:nonzero}
    .fil6 {fill:#A7BCCD;fill-rule:nonzero}
    .fil4 {fill:#BACDE1;fill-rule:nonzero}
    .fil34 {fill:#D83859;fill-rule:nonzero}
    .fil39 {fill:#DD64C6;fill-rule:nonzero}
    .fil17 {fill:#DFBAB8;fill-rule:nonzero}
    .fil12 {fill:#E8EBF4;fill-rule:nonzero}
    .fil23 {fill:#ED5460;fill-rule:nonzero}
    .fil29 {fill:#EDEFF7;fill-rule:nonzero}
    .fil14 {fill:#EFCDC8;fill-rule:nonzero}
    .fil33 {fill:#F47579;fill-rule:nonzero}
    .fil9 {fill:#F4C4A1;fill-rule:nonzero}
    .fil28 {fill:#F4CF11;fill-rule:nonzero}
    .fil16 {fill:#F4DDD8;fill-rule:nonzero}
    .fil11 {fill:#F9973F;fill-rule:nonzero}
    .fil10 {fill:#FDD4BC;fill-rule:nonzero}
    .fil38 {fill:#FF79D1;fill-rule:nonzero}
    .fil37 {fill:#FFA8E1;fill-rule:nonzero}
    .fil24 {fill:#FFBC59;fill-rule:nonzero}
    .fil15 {fill:#FFFBEF;fill-rule:nonzero}
    .fil5 {fill:white;fill-rule:nonzero}
    .fil3 {fill:white;fill-rule:nonzero;fill-opacity:0.400000}
    .fil1 {fill:url(#id0);fill-rule:nonzero}
    .fil18 {fill:url(#id1);fill-rule:nonzero}
    .fil41 {fill:url(#id2);fill-rule:nonzero}
    .fil27 {fill:url(#id3);fill-rule:nonzero}
    .fil42 {fill:url(#id4);fill-rule:nonzero}
    .fil40 {fill:url(#id5);fill-rule:nonzero}
    .fil2 {fill:url(#id6);fill-rule:nonzero}
   ]]>
  </style>
  <linearGradient id="id0" gradientUnits="userSpaceOnUse" x1="14061.5" y1="-3849.5" x2="711.992" y2="12092.2">
   <stop offset="0" style="stop-opacity:1; stop-color:#3DD6D3"/>
   <stop offset="1" style="stop-opacity:1; stop-color:#9548D8"/>
  </linearGradient>
  <linearGradient id="id1" gradientUnits="userSpaceOnUse" x1="8995.43" y1="8204.31" x2="6117.64" y2="3872.15">
   <stop offset="0" style="stop-opacity:1; stop-color:#1C75BC"/>
   <stop offset="0.709804" style="stop-opacity:1; stop-color:#3784BC"/>
   <stop offset="1" style="stop-opacity:1; stop-color:#5293BC"/>
  </linearGradient>
  <linearGradient id="id2" gradientUnits="userSpaceOnUse" xlink:href="#id1" x1="1760.19" y1="961.406" x2="2389.1" y2="3972.57">
  </linearGradient>
  <linearGradient id="id3" gradientUnits="userSpaceOnUse" xlink:href="#id1" x1="9345.94" y1="6125.87" x2="9747.42" y2="-2091.09">
  </linearGradient>
  <linearGradient id="id4" gradientUnits="userSpaceOnUse" xlink:href="#id1" x1="2017.2" y1="797.476" x2="2694.03" y2="4037.96">
  </linearGradient>
  <linearGradient id="id5" gradientUnits="userSpaceOnUse" xlink:href="#id1" x1="1502.88" y1="942.398" x2="2179.7" y2="4182.78">
  </linearGradient>
  <linearGradient id="id6" gradientUnits="userSpaceOnUse" xlink:href="#id0" x1="16233.1" y1="-7432.15" x2="5707.55" y2="8043.79">
  </linearGradient>
 </defs>
 <g id="Layer_x0020_1">
  <metadata id="CorelCorpID_0Corel-Layer"/>
  <g id="_624284200">
   <polygon class="fil0" points="-10753,-2984 15580,-2984 15580,12608 -10753,12608 "/>
   <path class="fil1" d="M-976 -2984c0,0 5123,369 1415,2123 -3708,1754 7288,2051 2668,4470 -4621,2419 1034,2549 2858,2286 1825,-262 -4677,1913 -5178,3579 -501,1666 4049,2368 6239,1710 2190,-658 -309,-1019 156,-2001 465,-983 1988,-2237 4145,-1279 1838,816 4105,769 2628,-1370 -1477,-2138 1625,-974 1625,-974l0 -8544c0,0 -16344,0 -16556,0z"/>
   <path class="fil2" d="M9690 -2984c-1781,546 -3573,1667 -4175,3394 -980,2809 120,4740 2064,4755 1944,14 2720,-1354 1931,-2179 -788,-826 -1659,848 -2357,351 -698,-497 15,-3150 3350,-2884 3335,265 3321,1496 2706,2124 -614,628 -146,1301 1170,1418 1023,90 1182,985 1201,1380l0 -8359c0,0 -2683,0 -5890,0z"/>
   <g>
    <g>
     <g>
      <polygon class="fil3" points="5673,347 5673,398 5889,522 5889,471 "/>
      <polygon class="fil3" points="5673,440 5673,491 5889,615 5889,564 "/>
      <polygon class="fil3" points="5673,534 5673,585 5889,709 5889,658 "/>
      <polygon class="fil3" points="7297,1615 7297,1564 5969,798 5969,849 "/>
      <polygon class="fil3" points="5673,627 5673,678 5889,803 5889,751 "/>
      <polygon class="fil3" points="5673,721 5673,772 5889,896 5889,845 "/>
      <polygon class="fil3" points="7297,1709 7297,1657 5969,891 5969,943 "/>
      <polygon class="fil3" points="5673,1002 5673,1053 5889,1177 5889,1126 "/>
      <polygon class="fil3" points="5673,1095 5673,1146 5889,1270 5889,1219 "/>
      <polygon class="fil3" points="5673,1469 5673,1521 5889,1645 5889,1594 "/>
      <polygon class="fil3" points="5673,1563 5673,1614 5889,1738 5889,1687 "/>
      <g>
       <polygon class="fil3" points="6807,2217 5969,1734 5969,1785 6807,2268 "/>
       <polygon class="fil3" points="6851,2242 6851,2294 7297,2551 7297,2500 "/>
      </g>
      <g>
       <polygon class="fil3" points="6390,1883 5969,1640 5969,1691 6390,1934 "/>
       <polygon class="fil3" points="6434,1908 6434,1960 7297,2457 7297,2406 "/>
      </g>
      <polygon class="fil3" points="7184,2060 7184,2111 7297,2177 7297,2125 "/>
      <polygon class="fil3" points="6566,1610 5969,1266 5969,1317 6566,1661 "/>
      <polygon class="fil3" points="6321,720 5969,517 5969,568 6321,772 "/>
      <g>
       <polygon class="fil3" points="6899,1053 6366,746 6366,797 6899,1105 "/>
      </g>
      <polygon class="fil3" points="6588,968 6213,751 6213,802 6588,1019 "/>
      <g>
       <polygon class="fil3" points="6982,1195 6632,993 6632,1044 6982,1246 "/>
       <polygon class="fil3" points="7026,1220 7026,1272 7297,1428 7297,1377 "/>
      </g>
      <polygon class="fil3" points="6039,744 6039,796 6321,959 6321,907 "/>
      <polygon class="fil3" points="7187,1407 6366,933 6366,984 7187,1458 "/>
      <polygon class="fil3" points="6717,1416 6180,1107 6180,1158 6717,1467 "/>
      <polygon class="fil3" points="7187,1687 6761,1442 6761,1493 7187,1738 "/>
      <g>
       <polygon class="fil3" points="7140,1941 6610,1635 6610,1687 7140,1992 "/>
      </g>
      <polygon class="fil3" points="6851,1868 6851,1919 7140,2086 7140,2034 "/>
      <polygon class="fil3" points="6073,1419 5969,1359 5969,1411 6073,1470 "/>
      <g>
       <polygon class="fil3" points="6268,1531 6268,1583 6807,1894 6807,1843 "/>
       <polygon class="fil3" points="6223,1506 6117,1445 6117,1496 6223,1557 "/>
      </g>
      <polygon class="fil3" points="6707,1879 6117,1538 6117,1590 6707,1930 "/>
     </g>
    </g>
    <g>
     <g>
      <polygon class="fil3" points="5673,1870 5673,1921 5889,2045 5889,1994 "/>
      <polygon class="fil3" points="5673,1964 5673,2015 5889,2139 5889,2088 "/>
      <polygon class="fil3" points="5673,2057 5673,2108 5889,2232 5889,2181 "/>
      <polygon class="fil3" points="7297,3139 7297,3087 5969,2321 5969,2373 "/>
      <polygon class="fil3" points="5673,2151 5673,2202 5889,2326 5889,2275 "/>
      <polygon class="fil3" points="5673,2244 5673,2295 5889,2420 5889,2368 "/>
      <polygon class="fil3" points="7297,3232 7297,3181 5969,2415 5969,2466 "/>
      <polygon class="fil3" points="5673,2525 5673,2576 5889,2700 5889,2649 "/>
      <polygon class="fil3" points="5673,2619 5673,2670 5889,2794 5889,2743 "/>
      <polygon class="fil3" points="5673,2993 5673,3044 5889,3168 5889,3117 "/>
      <polygon class="fil3" points="5673,3086 5673,3138 5889,3262 5889,3211 "/>
      <g>
       <polygon class="fil3" points="6807,3740 5969,3257 5969,3308 6807,3792 "/>
       <polygon class="fil3" points="6851,3766 6851,3817 7297,4074 7297,4023 "/>
      </g>
      <g>
       <polygon class="fil3" points="6390,3406 5969,3163 5969,3215 6390,3458 "/>
       <polygon class="fil3" points="6434,3432 6434,3483 7297,3981 7297,3930 "/>
      </g>
      <polygon class="fil3" points="7184,3583 7184,3635 7297,3700 7297,3649 "/>
      <polygon class="fil3" points="6566,3133 5969,2789 5969,2840 6566,3185 "/>
      <polygon class="fil3" points="6321,2244 5969,2041 5969,2092 6321,2295 "/>
      <g>
       <polygon class="fil3" points="6899,2577 6366,2269 6366,2320 6899,2628 "/>
      </g>
      <polygon class="fil3" points="6588,2491 6213,2275 6213,2326 6588,2542 "/>
      <g>
       <polygon class="fil3" points="6982,2718 6632,2517 6632,2568 6982,2770 "/>
       <polygon class="fil3" points="7026,2744 7026,2795 7297,2951 7297,2900 "/>
      </g>
      <polygon class="fil3" points="6039,2268 6039,2319 6321,2482 6321,2431 "/>
      <polygon class="fil3" points="7187,2930 6366,2456 6366,2508 7187,2981 "/>
      <polygon class="fil3" points="6717,2940 6180,2630 6180,2681 6717,2991 "/>
      <polygon class="fil3" points="7187,3211 6761,2965 6761,3016 7187,3262 "/>
      <g>
       <polygon class="fil3" points="7140,3464 6610,3159 6610,3210 7140,3515 "/>
      </g>
      <polygon class="fil3" points="6851,3392 6851,3443 7140,3609 7140,3558 "/>
      <polygon class="fil3" points="6073,2943 5969,2883 5969,2934 6073,2994 "/>
      <g>
       <polygon class="fil3" points="6268,3055 6268,3106 6807,3417 6807,3366 "/>
       <polygon class="fil3" points="6223,3029 6117,2968 6117,3019 6223,3081 "/>
      </g>
      <polygon class="fil3" points="6707,3402 6117,3062 6117,3113 6707,3453 "/>
     </g>
    </g>
    <g>
     <g>
      <polygon class="fil4" points="4038,5860 4975,5318 4975,5450 4038,5990 "/>
      <polygon class="fil5" points="4123,4828 4975,5318 4038,5860 3185,5369 "/>
      <polygon class="fil6" points="3185,5369 4038,5860 4038,5990 3185,5497 "/>
     </g>
     <g>
      <polygon class="fil4" points="3107,4296 4044,3754 4228,4890 3291,5430 "/>
      <polygon class="fil5" points="3940,3694 4044,3754 3107,4296 3002,4235 "/>
      <polygon class="fil6" points="3002,4235 3107,4296 3291,5430 3185,5369 "/>
     </g>
    </g>
    <path class="fil7" d="M3548 5309l68 -114 244 94c0,0 -139,299 -244,242 -105,-57 -68,-222 -68,-222z"/>
    <path class="fil8" d="M3693 3694l466 15 180 76c0,0 24,196 63,479 39,283 -23,1031 -23,1031 -176,88 -857,82 -857,82 -44,-358 -90,-1503 -90,-1503l261 -180z"/>
    <path class="fil8" d="M4040 3705l163 139c70,411 63,1215 57,1556 -60,10 -127,16 -196,20 -16,-854 -299,-1666 -320,-1725l296 10z"/>
    <polygon class="fil7" points="4089,3895 4238,3956 4180,3709 4102,3656 "/>
    <polygon class="fil9" points="3766,3587 4125,3643 4089,3895 3743,3692 "/>
    <path class="fil10" d="M3680 3355c0,195 142,354 318,354 175,0 281,-159 281,-354 0,-196 -106,-354 -281,-354 -176,0 -318,158 -318,354z"/>
    <polygon class="fil7" points="3735,3639 4089,3895 3934,4047 3693,3694 "/>
    <path class="fil11" d="M3622 3173c0,0 85,-239 358,-239 0,0 329,-1 357,421 1,19 -19,31 -35,22 -38,-22 -100,-54 -163,-70l16 28c0,0 5,17 -30,15l-170 -41c0,0 -14,87 -127,144 0,0 -13,147 -66,171 0,0 -211,-160 -140,-451z"/>
    <g>
     <path class="fil12" d="M11140 7088l-2162 -1255c-92,-53 -205,-53 -296,0l-3405 1970c-87,50 -87,175 -1,225l2114 1227c109,63 243,64 352,1l3397 -1966c78,-45 78,-157 1,-202z"/>
     <path class="fil6" d="M11139 7290l-3397 1966c-109,63 -243,62 -352,-1l-2114 -1227c-43,-25 -64,-68 -65,-112l0 162c0,0 0,0 0,1l0 2 1 0c1,43 22,85 64,110l2114 1227c109,63 243,63 352,0l3397 -1965c40,-23 59,-62 59,-102l0 0 0 -161c0,39 -20,78 -59,100z"/>
     <path class="fil4" d="M11139 7290l-3397 1966c-50,29 -105,43 -161,46l0 163c56,-3 111,-18 161,-47l3397 -1965c40,-23 59,-62 59,-102l0 0 0 -161c0,39 -20,78 -59,100z"/>
    </g>
    <g>
     <polygon class="fil13" points="8563,6499 9535,7050 10155,6691 9182,6140 "/>
     <g>
      <polygon class="fil14" points="9345,7036 9345,7058 8372,6501 8372,6486 "/>
      <polygon class="fil15" points="8372,6486 9345,7036 9964,6678 8992,6127 "/>
      <polygon class="fil16" points="9345,7036 9345,7058 9964,6700 9964,6678 "/>
     </g>
     <polygon class="fil17" points="8999,6186 8624,6402 8641,6411 9015,6195 "/>
     <polygon class="fil17" points="9038,6208 8663,6424 8680,6433 9054,6217 "/>
     <polygon class="fil17" points="9128,6259 8613,6557 8629,6566 9145,6269 "/>
     <polygon class="fil17" points="9164,6280 8648,6577 8665,6586 9180,6289 "/>
     <polygon class="fil17" points="9200,6300 8684,6597 8700,6607 9216,6309 "/>
     <polygon class="fil17" points="9235,6320 8720,6618 8736,6627 9252,6329 "/>
     <polygon class="fil17" points="9271,6340 8755,6638 8772,6647 9287,6350 "/>
     <polygon class="fil17" points="9307,6361 8791,6658 8808,6667 9323,6370 "/>
     <polygon class="fil17" points="9342,6381 8827,6678 8843,6688 9359,6390 "/>
     <polygon class="fil17" points="9378,6401 8862,6699 8879,6708 9394,6410 "/>
     <polygon class="fil17" points="9414,6421 8898,6719 8915,6728 9430,6431 "/>
     <polygon class="fil17" points="9449,6442 8934,6739 8950,6748 9466,6451 "/>
     <polygon class="fil17" points="9485,6462 8970,6759 8986,6769 9501,6471 "/>
     <polygon class="fil17" points="9521,6482 9005,6780 9022,6789 9537,6491 "/>
     <polygon class="fil17" points="9556,6502 9041,6800 9057,6809 9573,6512 "/>
     <polygon class="fil17" points="9592,6523 9077,6820 9093,6829 9608,6532 "/>
     <polygon class="fil17" points="9628,6543 9112,6840 9129,6850 9644,6552 "/>
    </g>
    <g>
     <g>
      <path class="fil5" d="M9679 7494l-926 -535c-25,-15 -57,-15 -83,0l-1343 775c-24,14 -24,49 0,63l912 527c30,18 68,18 98,1l1342 -775c21,-12 21,-44 0,-56z"/>
      <path class="fil4" d="M9679 7550l-1342 775c-30,17 -68,17 -98,-1l-912 -527c-12,-7 -18,-19 -18,-31l0 64c0,0 0,0 0,0l0 1 0 0c0,12 6,24 18,31l912 527c30,18 68,18 98,0l1342 -774c11,-6 16,-17 16,-29l0 0 0 -64c0,11 -5,22 -16,28z"/>
     </g>
     <g>
      <path class="fil5" d="M7271 6504l1376 -793c8,-5 18,-5 27,1l0 0 35 19 -27 38 -11 12 0 1098c0,16 -8,30 -22,39l-1307 754 -2 11 -42 59 -39 -23c0,0 -1,0 -1,0l0 -1 0 0c-6,-3 -10,-9 -10,-17l0 -1156c0,-17 9,-32 23,-41z"/>
      <path class="fil4" d="M7310 6527l1379 -796c14,-8 31,2 31,18l0 1157c0,17 -9,31 -23,39l-1379 796c-14,8 -31,-2 -31,-18l0 -1156c0,-17 9,-32 23,-40z"/>
     </g>
     <polygon class="fil18" points="7332,6597 8686,5811 8686,6844 7332,7628 "/>
     <g>
      <polygon class="fil4" points="8782,7090 8714,7051 8636,7095 8704,7135 "/>
      <polygon class="fil4" points="8685,7146 8617,7106 8540,7151 8608,7190 "/>
      <polygon class="fil4" points="8589,7201 8520,7162 8443,7206 8511,7246 "/>
      <polygon class="fil4" points="8492,7257 8424,7217 8346,7262 8414,7301 "/>
      <polygon class="fil4" points="8395,7312 8327,7273 8250,7318 8318,7357 "/>
      <polygon class="fil4" points="8299,7368 8231,7329 8153,7373 8221,7413 "/>
      <polygon class="fil4" points="8202,7424 8134,7384 8057,7429 8125,7468 "/>
      <polygon class="fil4" points="8106,7479 8037,7440 7960,7484 8028,7524 "/>
      <polygon class="fil4" points="8009,7535 7941,7495 7863,7540 7931,7579 "/>
      <polygon class="fil4" points="7912,7590 7844,7551 7767,7596 7835,7635 "/>
      <polygon class="fil4" points="7816,7646 7748,7607 7670,7651 7738,7691 "/>
      <polygon class="fil4" points="7719,7702 7651,7662 7574,7707 7642,7746 "/>
      <polygon class="fil4" points="7554,7718 7477,7762 7545,7802 7623,7757 "/>
      <polygon class="fil4" points="8792,7186 8870,7141 8802,7102 8724,7146 "/>
      <polygon class="fil4" points="8628,7202 8696,7241 8773,7197 8705,7157 "/>
      <polygon class="fil4" points="8531,7257 8599,7297 8677,7252 8609,7213 "/>
      <polygon class="fil4" points="8435,7313 8503,7352 8580,7308 8512,7268 "/>
      <polygon class="fil4" points="8338,7369 8406,7408 8484,7364 8415,7324 "/>
      <polygon class="fil4" points="8241,7424 8309,7464 8387,7419 8319,7380 "/>
      <polygon class="fil4" points="8145,7480 8213,7519 8290,7475 8222,7435 "/>
      <polygon class="fil4" points="8048,7535 8116,7575 8194,7530 8126,7491 "/>
      <polygon class="fil4" points="7952,7591 8020,7630 8097,7586 8029,7546 "/>
      <polygon class="fil4" points="7855,7647 7923,7686 8001,7642 7932,7602 "/>
      <polygon class="fil4" points="7758,7702 7826,7742 7904,7697 7836,7658 "/>
      <polygon class="fil4" points="7662,7758 7730,7797 7807,7753 7739,7713 "/>
      <polygon class="fil4" points="7643,7769 7565,7813 7633,7853 7711,7808 "/>
      <polygon class="fil4" points="8880,7237 8958,7192 8890,7153 8813,7197 "/>
      <polygon class="fil4" points="8716,7253 8784,7292 8862,7248 8793,7208 "/>
      <polygon class="fil4" points="8765,7303 8697,7264 8619,7309 8687,7348 "/>
      <polygon class="fil4" points="8523,7364 8591,7404 8668,7359 8600,7319 "/>
      <polygon class="fil4" points="8426,7420 8494,7459 8572,7415 8504,7375 "/>
      <polygon class="fil4" points="8330,7475 8397,7515 8475,7470 8407,7431 "/>
      <polygon class="fil4" points="8233,7531 8301,7570 8379,7526 8310,7486 "/>
      <polygon class="fil4" points="8136,7587 8204,7626 8282,7581 8214,7542 "/>
      <polygon class="fil4" points="8040,7642 8108,7682 8185,7637 8117,7597 "/>
      <polygon class="fil4" points="7943,7698 8011,7737 8089,7693 8021,7653 "/>
      <polygon class="fil4" points="7847,7753 7915,7793 7992,7748 7924,7709 "/>
      <polygon class="fil4" points="7896,7804 7827,7764 7750,7809 7818,7848 "/>
      <polygon class="fil4" points="7731,7820 7653,7865 7721,7904 7799,7859 "/>
      <polygon class="fil4" points="8969,7288 9046,7243 8978,7204 8901,7248 "/>
      <polygon class="fil4" points="8950,7299 8882,7259 8804,7304 8872,7343 "/>
      <polygon class="fil4" points="8853,7354 8785,7315 8708,7360 8775,7399 "/>
      <polygon class="fil4" points="8756,7410 8688,7371 8611,7415 8679,7455 "/>
      <polygon class="fil4" points="8660,7466 8592,7426 8514,7471 8582,7510 "/>
      <polygon class="fil4" points="8563,7521 8495,7482 8418,7526 8486,7566 "/>
      <polygon class="fil4" points="8467,7577 8399,7537 8321,7582 8389,7621 "/>
      <polygon class="fil4" points="8370,7632 8302,7593 8225,7638 8292,7677 "/>
      <polygon class="fil4" points="8274,7688 8205,7649 8128,7693 8196,7733 "/>
      <polygon class="fil4" points="8177,7744 8109,7704 8031,7749 8099,7788 "/>
      <polygon class="fil4" points="8080,7799 8012,7760 7935,7804 8003,7844 "/>
      <polygon class="fil4" points="7984,7855 7916,7815 7838,7860 7906,7899 "/>
      <polygon class="fil4" points="7819,7871 7742,7916 7810,7955 7887,7911 "/>
      <polygon class="fil4" points="9057,7339 9134,7294 9066,7255 8989,7299 "/>
      <polygon class="fil4" points="9038,7350 8970,7310 8892,7355 8960,7394 "/>
      <polygon class="fil4" points="8941,7406 8873,7366 8796,7411 8864,7450 "/>
      <polygon class="fil4" points="8845,7461 8777,7422 8699,7466 8767,7506 "/>
      <polygon class="fil4" points="8748,7517 8680,7477 8602,7522 8670,7561 "/>
      <polygon class="fil4" points="8651,7572 8583,7533 8506,7577 8574,7617 "/>
      <polygon class="fil4" points="8555,7628 8487,7588 8409,7633 8477,7672 "/>
      <polygon class="fil4" points="8458,7684 8390,7644 8313,7689 8381,7728 "/>
      <polygon class="fil4" points="8362,7739 8294,7700 8216,7744 8284,7784 "/>
      <polygon class="fil4" points="8265,7795 8197,7755 8120,7800 8187,7839 "/>
      <polygon class="fil4" points="8169,7850 8100,7811 8023,7855 8091,7895 "/>
      <polygon class="fil4" points="8072,7906 8004,7866 7926,7911 7994,7951 "/>
      <polygon class="fil4" points="7907,7922 7830,7967 7898,8006 7975,7962 "/>
      <polygon class="fil4" points="9154,7306 9077,7351 9145,7390 9223,7345 "/>
      <polygon class="fil4" points="8980,7406 9048,7446 9126,7401 9058,7361 "/>
      <polygon class="fil4" points="8884,7462 8952,7501 9029,7457 8961,7417 "/>
      <polygon class="fil4" points="8787,7517 8855,7557 8933,7512 8865,7473 "/>
      <polygon class="fil4" points="8691,7573 8759,7612 8836,7568 8768,7528 "/>
      <polygon class="fil4" points="8594,7629 8662,7668 8740,7623 8671,7584 "/>
      <polygon class="fil4" points="8575,7639 8478,7695 8478,7695 8459,7706 8382,7751 8382,7751 8342,7773 8285,7806 8285,7806 8224,7841 8111,7907 8179,7946 8297,7878 8353,7846 8353,7846 8412,7812 8450,7790 8450,7790 8526,7746 8546,7735 8546,7735 8643,7679 "/>
      <polygon class="fil4" points="8014,7962 8082,8002 8160,7957 8092,7918 "/>
      <polygon class="fil4" points="7918,8018 7986,8057 8063,8013 7995,7973 "/>
     </g>
     <path class="fil4" d="M9124 7769l-243 -140c-6,-4 -14,-4 -21,0l-337 194c-6,4 -6,13 0,16l240 138c7,5 17,5 24,0l337 -194c5,-3 5,-11 0,-14z"/>
    </g>
    <g>
     <g>
      <polygon class="fil6" points="5696,9365 5696,9274 5695,9358 5696,9449 "/>
      <polygon class="fil6" points="6531,9474 6421,9538 6421,9622 6531,9558 "/>
      <polygon class="fil6" points="5244,9538 5133,9474 5133,9558 5244,9622 "/>
      <path class="fil6" d="M5480 9830c1,-3 2,-6 3,-9 1,-4 1,-8 3,-11 1,-3 2,-6 3,-9 2,-3 4,-7 6,-11 1,-2 3,-5 4,-8 3,-4 6,-8 9,-12 1,-3 3,-5 5,-7 5,-6 10,-11 15,-16 2,-2 4,-4 6,-6 4,-3 8,-6 11,-9 4,-3 7,-6 10,-8 4,-3 9,-6 13,-9 4,-3 9,-6 13,-8 11,-6 22,-12 34,-17 3,-2 7,-3 10,-5 9,-3 19,-7 28,-10 3,-1 7,-3 10,-4 6,-2 12,-3 19,-5 4,-1 9,-3 14,-4 6,-1 13,-2 19,-4 5,-1 9,-2 14,-3 13,-2 26,-4 40,-5 4,-1 8,-1 13,-1 8,-1 16,-2 24,-2 5,0 10,0 15,0 6,0 13,0 19,0 6,0 11,0 17,0 6,0 12,1 18,1 5,0 11,1 16,1 6,1 12,2 18,2 5,1 11,2 16,3 6,1 12,2 19,3 5,1 9,2 14,3 8,2 15,3 22,5 4,1 9,2 13,4 13,3 25,8 38,12 6,3 12,5 18,8 3,1 6,3 9,4 9,4 18,9 26,14 70,40 105,93 105,146l0 -84c0,-53 -35,-106 -105,-146 -8,-5 -17,-10 -26,-14 -3,-1 -6,-3 -9,-4 -5,-2 -11,-5 -16,-7 -1,0 -1,0 -2,-1 -12,-4 -25,-9 -38,-13 -1,0 -2,0 -3,-1 -3,0 -6,-1 -9,-2 -8,-2 -15,-4 -22,-5 -2,-1 -4,-1 -6,-2 -3,0 -6,-1 -9,-1 -6,-1 -13,-2 -19,-3 -3,-1 -5,-1 -8,-2 -2,0 -5,0 -8,-1 -6,0 -12,-1 -18,-2 -2,0 -5,0 -8,-1 -3,0 -5,0 -8,0 -6,0 -12,-1 -18,-1 -3,0 -6,0 -9,-1 -2,0 -5,1 -7,1 -7,-1 -13,-1 -20,0 -3,0 -6,0 -9,0 -2,0 -4,0 -6,0 -8,0 -16,1 -24,2 -3,0 -7,0 -10,0 -1,0 -2,1 -3,1 -13,1 -27,3 -40,5 -1,0 -2,0 -2,1 -4,0 -8,1 -12,2 -6,1 -13,3 -19,4 -5,1 -10,3 -14,4 -6,2 -12,3 -19,5 -1,1 -2,1 -3,1 -3,1 -5,2 -7,3 -9,3 -19,6 -28,10 -3,2 -6,3 -10,5 -11,5 -23,10 -33,17 -2,0 -3,1 -5,2 -3,2 -6,4 -9,6 -4,3 -9,6 -13,9 -3,2 -6,5 -9,8 -4,3 -8,6 -11,9 -1,0 -2,1 -3,1 -1,2 -2,3 -3,4 -6,6 -11,11 -15,17 -1,1 -3,2 -4,3 -1,1 -1,3 -2,4 -3,4 -6,8 -8,12 -2,2 -3,4 -4,5 0,1 -1,2 -1,3 -2,4 -4,7 -5,11 -1,2 -3,4 -3,7 -1,0 -1,1 -1,2 -1,3 -2,7 -3,10 -1,3 -2,5 -2,8 0,0 0,1 0,1 -1,4 -1,8 -2,12 0,2 0,5 0,7 -1,1 -1,2 -1,3l0 84c0,-3 1,-7 1,-10 0,-4 1,-8 1,-11z"/>
      <path class="fil6" d="M6531 9846c-2,6 -4,11 -6,16 -1,3 -3,6 -4,10 -2,3 -3,6 -5,9 -1,4 -3,7 -5,11 -2,3 -3,6 -5,9 -2,4 -5,8 -7,12 -2,3 -4,5 -6,8 -3,4 -6,8 -9,12 -2,3 -4,5 -6,8 -5,7 -11,14 -18,22 -1,1 -2,1 -3,2 -6,7 -12,13 -18,19 -5,4 -10,9 -16,14l0 84c5,-4 9,-8 13,-12 1,0 2,-1 3,-2 6,-6 12,-12 18,-18 1,-1 2,-2 3,-3 6,-7 12,-15 18,-22 1,-1 1,-1 2,-2 1,-2 3,-4 4,-6 3,-4 6,-8 9,-12 2,-2 4,-5 5,-8 3,-4 5,-8 8,-12 0,-1 1,-2 2,-4 1,-2 2,-3 3,-5 2,-4 3,-7 5,-10 2,-4 3,-7 5,-10 1,-3 2,-7 4,-10 0,-2 1,-3 2,-5 1,-3 2,-7 3,-10l157 0 1 -85 -157 0z"/>
      <path class="fil6" d="M5247 10082l0 -84c-55,-47 -91,-98 -109,-152l-157 0 -1 85 157 0c18,53 55,104 110,151z"/>
      <path class="fil6" d="M6232 10109c-18,7 -38,14 -58,20 -10,3 -22,6 -33,9 -10,3 -20,6 -31,9 -11,3 -23,5 -34,7 -11,3 -22,5 -32,7 -24,4 -48,8 -73,10l0 85c25,-3 49,-7 72,-11 1,0 3,0 4,0 10,-2 19,-5 29,-7 11,-2 23,-4 34,-7 10,-2 21,-6 31,-8 11,-4 22,-6 33,-10 1,0 3,0 4,-1 18,-6 37,-12 54,-19l111 64 191 -111 1 -84 -191 111 -112 -64z"/>
      <path class="fil6" d="M5701 10171c-17,-1 -34,-4 -51,-7 -12,-2 -24,-4 -36,-6 -10,-2 -21,-4 -31,-6 -14,-3 -28,-7 -42,-11 -11,-3 -22,-5 -33,-9 -4,-1 -9,-3 -14,-4 -19,-6 -37,-12 -55,-19 0,0 0,0 0,0l-111 64 -192 -111 0 84 192 111 111 -64c18,7 36,13 55,19 5,2 9,3 14,5 5,1 10,3 14,4 6,2 13,3 19,4 14,4 28,8 42,11 4,1 9,2 13,3 6,1 12,2 18,3 12,2 24,4 36,6 5,1 11,2 16,3 11,2 23,3 34,5 0,0 0,0 0,0l1 90 271 0 0 -84 -271 0 0 -91z"/>
     </g>
     <g>
      <path class="fil5" d="M6344 10173l-112 -64c-80,31 -169,52 -261,62l1 91 -271 0 0 -91c-92,-10 -182,-31 -262,-62l-111 64 -192 -111 111 -64c-55,-47 -91,-98 -109,-152l-157 0 -1 -156 157 0c17,-54 53,-105 107,-152l-111 -64 191 -111 111 64c80,-31 169,-52 261,-62l0 -91 270 0 1 91c92,10 181,31 262,62l110 -64 192 111 -110 64c54,47 91,98 109,152l157 0 1 156 -157 0c-18,54 -54,105 -108,152l112 64 -191 111zm-761 -259l0 0c140,80 364,80 503,-1 138,-80 137,-210 -2,-290 -139,-81 -364,-81 -502,0 -139,80 -138,210 1,291z"/>
     </g>
    </g>
    <g>
     <g>
      <polygon class="fil6" points="4277,9198 4277,9124 4277,9193 4277,9267 "/>
      <polygon class="fil6" points="4960,9288 4869,9340 4869,9409 4960,9356 "/>
      <polygon class="fil6" points="3908,9340 3817,9288 3817,9356 3908,9409 "/>
      <path class="fil6" d="M4101 9578c1,-2 1,-5 2,-7 1,-3 1,-6 3,-9 0,-2 1,-5 3,-7 1,-3 2,-6 4,-9 1,-2 2,-4 4,-6 2,-4 4,-7 6,-11 2,-1 4,-3 5,-5 4,-5 8,-9 12,-14 2,-1 4,-3 5,-4 3,-3 6,-5 9,-8 3,-2 5,-4 8,-6 4,-2 7,-5 11,-7 3,-2 7,-5 11,-7 8,-5 18,-10 27,-14 3,-1 6,-2 8,-4 8,-3 15,-6 23,-8 3,-1 6,-2 9,-3 4,-2 9,-3 14,-4 4,-1 8,-2 12,-3 5,-2 11,-3 16,-4 4,-1 7,-1 11,-2 11,-2 22,-3 33,-5 3,0 7,0 10,0 7,-1 13,-2 20,-2 4,0 8,0 12,0 6,0 11,0 16,0 5,0 9,0 14,0 5,0 9,1 14,1 5,0 9,1 14,1 5,1 9,1 14,2 5,0 9,1 13,2 5,0 11,1 16,2 4,1 8,2 12,3 6,1 12,2 18,4 3,1 6,2 10,3 10,3 21,6 31,10 5,2 10,4 14,6 3,2 5,3 8,4 7,3 14,7 21,11 57,33 86,76 86,119l0 -68c0,-44 -28,-87 -86,-120 -6,-4 -14,-8 -21,-11 -2,-1 -5,-2 -7,-3 -5,-2 -9,-4 -13,-6 -1,0 -2,0 -2,0 -10,-4 -21,-8 -31,-11 -1,0 -2,-1 -3,-1 -2,-1 -5,-1 -7,-2 -6,-1 -12,-3 -18,-4 -2,0 -3,-1 -5,-1 -2,-1 -5,-1 -7,-2 -5,-1 -10,-1 -16,-2 -2,-1 -4,-1 -6,-1 -2,-1 -4,-1 -7,-1 -4,-1 -9,-1 -14,-2 -2,0 -5,0 -7,0 -2,-1 -4,-1 -6,-1 -5,0 -10,0 -15,-1 -3,0 -5,0 -8,0 -2,0 -3,0 -5,0 -6,0 -11,0 -16,0 -3,0 -6,0 -8,0 -2,0 -3,0 -5,0 -7,1 -13,1 -20,2 -2,0 -5,0 -7,0 -1,0 -2,1 -3,1 -11,1 -22,2 -33,4 0,0 -1,0 -2,0 -3,1 -6,2 -9,2 -5,2 -11,3 -16,4 -4,1 -7,2 -11,3 -5,1 -10,3 -15,4 -1,1 -2,1 -3,1 -2,1 -4,1 -6,2 -7,3 -15,6 -22,9 -3,1 -6,2 -9,3 -9,5 -18,9 -27,14 -1,1 -2,2 -4,2 -2,2 -5,4 -7,5 -4,2 -7,5 -11,7 -2,2 -5,4 -8,7 -3,2 -6,4 -9,7 0,0 -1,1 -1,1 -1,1 -2,3 -3,4 -5,4 -9,8 -13,13 0,1 -2,2 -2,3 -1,1 -2,2 -2,3 -3,3 -5,6 -7,10 -1,1 -2,3 -3,4 0,1 -1,2 -1,2 -2,3 -3,6 -4,9 -1,2 -2,4 -3,6 0,0 0,1 0,1 -1,3 -2,6 -3,9 0,2 -1,4 -1,6 -1,0 -1,1 -1,2 0,3 0,6 -1,9 0,2 0,4 0,6 0,0 0,1 0,2l-1 69c0,-3 1,-6 1,-9 0,-3 1,-6 1,-9z"/>
      <path class="fil6" d="M4959 9592c-1,4 -3,8 -4,12 -1,3 -3,6 -4,9 -1,2 -2,5 -4,8 -1,2 -2,5 -4,8 -1,2 -3,5 -4,8 -2,3 -4,6 -6,9 -1,2 -3,5 -5,7 -2,3 -4,7 -7,10 -1,2 -3,4 -4,6 -5,6 -10,12 -16,18 0,1 -1,1 -2,2 -5,5 -10,10 -15,15 -4,4 -8,8 -12,12l-1 68c4,-3 7,-6 11,-9 1,-1 1,-1 2,-2 5,-5 10,-10 15,-15 1,-1 2,-2 2,-2 6,-6 11,-12 15,-18 1,-1 1,-1 2,-2 1,-1 2,-3 3,-4 3,-4 5,-7 7,-10 2,-2 3,-5 5,-7 2,-3 4,-7 6,-10 0,-1 1,-2 2,-3 1,-1 1,-3 2,-4 1,-3 3,-6 4,-9 2,-2 3,-5 4,-8 1,-2 2,-5 3,-8 1,-1 2,-2 2,-4 1,-2 2,-5 3,-8l128 0 0 -69 -128 0z"/>
      <path class="fil6" d="M3910 9784l0 -68c-44,-38 -74,-80 -89,-124l-128 0 0 69 128 0c15,43 44,85 89,123z"/>
      <path class="fil6" d="M4716 9806c-16,6 -32,12 -48,17 -9,3 -18,5 -27,8 -8,2 -17,4 -25,7 -10,2 -19,4 -29,6 -8,1 -17,3 -26,5 -19,3 -39,6 -59,9l0 68c20,-2 40,-5 59,-8 1,0 2,-1 3,-1 8,-1 16,-3 23,-5 10,-2 19,-3 28,-6 9,-2 17,-4 26,-7 9,-2 18,-5 27,-7 1,-1 2,-1 3,-1 15,-5 30,-10 44,-16l91 53 156 -91 1 -69 -157 91 -90 -53z"/>
      <path class="fil6" d="M4281 9858c-14,-2 -28,-4 -41,-6 -10,-2 -20,-4 -30,-5 -8,-2 -17,-4 -25,-6 -12,-2 -23,-5 -34,-8 -9,-2 -18,-5 -27,-7 -4,-2 -8,-3 -12,-4 -15,-5 -30,-10 -45,-16 0,0 0,0 0,0l-90 53 -157 -91 0 69 157 91 90 -53c15,6 30,11 45,16 4,1 8,2 12,3 4,2 8,3 12,4 4,1 10,2 14,4 12,3 23,6 35,8 4,1 7,2 11,3 5,1 9,1 14,2 10,2 20,4 30,5 4,1 8,2 13,3 9,1 18,2 28,3 0,0 0,0 0,0l0 75 222 0 0 -69 -222 0 0 -74z"/>
     </g>
     <g>
      <path class="fil5" d="M4806 9859l-90 -53c-66,26 -139,43 -214,52l1 74 -222 0 0 -74c-75,-9 -148,-26 -214,-52l-90 53 -157 -91 90 -52c-44,-38 -74,-80 -89,-124l-128 0 -1 -128 128 0c15,-44 44,-86 88,-124l-91 -52 156 -91 91 53c66,-26 138,-43 213,-52l0 -74 221 0 1 74c75,9 148,26 213,52l91 -53 157 91 -91 52c45,38 75,80 90,124l128 0 0 128 -128 0c-14,44 -43,86 -87,124l91 52 -157 91zm-621 -212l0 0c114,66 298,65 411,0 113,-66 112,-172 -2,-238 -113,-66 -297,-66 -410,0 -113,66 -112,172 1,238z"/>
     </g>
    </g>
    <path class="fil19" d="M9226 10088c136,2 92,-102 92,-102 202,-62 301,-27 301,-27 51,178 31,286 33,329 0,21 -15,34 -35,42 -109,40 -208,67 -411,48 -149,-15 -307,-153 -271,-295 22,-88 153,4 291,5z"/>
    <path class="fil7" d="M9284 8806c40,-51 109,-96 222,-66l1220 235 -46 314c0,0 -187,246 -514,152 -327,-93 -539,-246 -539,-246l41 864c0,0 -191,60 -361,-43 -29,-18 -55,-851 -64,-1065 -2,-59 5,-98 41,-145z"/>
    <path class="fil20" d="M8641 10338c141,2 95,-106 95,-106 210,-64 313,-28 313,-28 53,185 32,297 34,342 1,22 -16,35 -36,43 -113,42 -216,70 -427,50 -155,-15 -319,-159 -281,-306 23,-92 158,4 302,5z"/>
    <g>
     <polygon class="fil4" points="10026,9995 11073,9390 11073,9537 10026,10140 "/>
     <polygon class="fil5" points="10122,8843 11073,9390 10026,9995 9074,9447 "/>
     <polygon class="fil6" points="9074,9447 10026,9995 10026,10140 9074,9589 "/>
    </g>
    <path class="fil21" d="M8701 9007c42,-54 113,-100 231,-69l1266 245 -48 325c0,0 -194,255 -533,159 -339,-97 -560,-256 -560,-256l43 897c0,0 -199,62 -375,-45 -30,-18 -58,-883 -67,-1105 -2,-61 6,-102 43,-151z"/>
    <path class="fil10" d="M9703 7086c21,212 178,371 351,354 172,-17 295,-203 274,-416 -21,-213 -178,-371 -350,-354 -173,17 -296,203 -275,416z"/>
    <path class="fil9" d="M9446 7581c0,0 -75,18 -101,21 -26,2 -125,23 -165,11 -40,-13 35,-39 54,-53 18,-14 18,-49 -23,-61 -41,-12 -133,-6 -181,-13 -49,-7 48,-155 127,-168 80,-14 147,-5 217,29 68,33 105,90 136,101l-64 133z"/>
    <path class="fil22" d="M9437 7380l513 129 26 326 -606 -208c-12,-115 67,-247 67,-247z"/>
    <path class="fil22" d="M10702 7518c0,0 141,179 0,425 0,0 -100,137 -372,3l372 -428z"/>
    <path class="fil8" d="M10281 7309c0,0 -221,-15 -394,107 0,0 -13,36 -48,59 -34,23 -206,92 -206,92 0,0 76,1010 -12,1501 0,0 374,292 958,0 0,0 85,-1239 123,-1550 0,0 -98,-120 -421,-209z"/>
    <g>
     <polygon class="fil4" points="10379,8976 11425,8371 11073,9391 10026,9995 "/>
     <polygon class="fil5" points="11310,8304 11425,8371 10379,8976 10262,8908 "/>
     <polygon class="fil6" points="10262,8908 10379,8976 10026,9995 9908,9927 "/>
    </g>
    <path class="fil9" d="M8756 8028c0,0 -57,-57 -79,-74 -22,-16 -98,-89 -142,-98 -43,-10 31,65 40,88 9,24 -44,-18 -85,-34 -41,-15 -87,-12 -137,5 -99,35 -94,234 -13,210 133,-38 193,67 273,90 55,15 78,14 112,20l31 -207z"/>
    <path class="fil22" d="M9633 7567l-433 574 -450 -133c0,0 -96,122 -65,251l600 233 488 -537c0,0 163,-340 -140,-388z"/>
    <path class="fil22" d="M9884 6495c0,0 -33,80 126,101 159,22 356,101 408,269 33,108 -5,223 -59,317 -19,32 -39,64 -63,92 0,0 -107,28 -235,-41 0,0 -79,-52 -127,-154 0,0 -94,40 -124,-39 -22,-58 -90,-73 -128,-104 0,0 -215,-352 202,-441z"/>
    <g>
     <path class="fil6" d="M7608 8294l-82 0 0 88 82 0c30,0 54,24 54,54l0 143c0,30 -24,55 -54,55l-120 0 0 87 120 0c78,0 142,-64 142,-142l0 -143c0,-78 -64,-142 -142,-142z"/>
     <path class="fil4" d="M7577 8245l0 494c0,76 -114,138 -255,138 -140,0 -254,-62 -254,-138l0 -494 509 0z"/>
     <path class="fil5" d="M7068 8245c0,77 114,139 254,139 141,0 255,-62 255,-139 0,-76 -114,-138 -255,-138 -140,0 -254,62 -254,138z"/>
     <path class="fil6" d="M7118 8244c0,60 92,108 204,108 113,0 204,-48 204,-108 0,-60 -91,-109 -204,-109 -112,0 -204,49 -204,109z"/>
     <path class="fil20" d="M7322 8206c-89,0 -165,31 -192,73 27,43 103,73 192,73 90,0 165,-30 193,-73 -28,-42 -103,-73 -193,-73z"/>
     <path class="fil6" d="M7419 8374l0 493c50,-11 91,-30 120,-55l0 -494c-29,25 -70,45 -120,56z"/>
    </g>
    <g>
     <path class="fil12" d="M8298 5444l-2161 -1255c-92,-53 -205,-53 -296,0l-3406 1970c-86,50 -87,175 0,225l2114 1227c108,64 243,64 352,1l3397 -1966c78,-45 78,-157 0,-202z"/>
     <path class="fil6" d="M8298 5646l-3397 1966c-109,63 -244,63 -352,-1l-2114 -1227c-43,-25 -65,-68 -65,-112l0 162c0,0 0,1 0,1l0 2 0 0c1,43 23,86 65,110l2114 1227c108,63 243,63 352,1l3397 -1966c39,-22 59,-62 58,-102l0 0 0 -161c0,39 -19,78 -58,100z"/>
     <path class="fil4" d="M8298 5646l-3397 1966c-50,29 -105,44 -161,46l0 163c56,-3 111,-18 161,-46l3397 -1966c39,-22 59,-62 58,-102l0 0 0 -161c0,39 -19,78 -58,100z"/>
     <g>
      <g>
       <path class="fil5" d="M6226 5479l-926 -535c-26,-15 -57,-15 -83,0l-1343 775c-24,14 -24,49 0,63l912 528c30,17 68,17 98,0l1342 -775c21,-12 21,-43 0,-56z"/>
       <path class="fil4" d="M6226 5535l-1342 775c-30,17 -68,17 -98,0l-912 -528c-12,-7 -18,-19 -18,-31l0 64c0,0 0,0 0,1l0 0 0 0c0,12 6,24 18,31l912 527c30,18 68,18 98,0l1342 -774c11,-6 16,-17 16,-28l0 0 0 -65c0,11 -5,22 -16,28z"/>
      </g>
      <g>
       <polygon class="fil4" points="5621,5272 5553,5233 5475,5277 5543,5317 "/>
       <polygon class="fil4" points="5524,5328 5456,5288 5379,5333 5447,5372 "/>
       <polygon class="fil4" points="5428,5383 5360,5344 5282,5388 5350,5428 "/>
       <polygon class="fil4" points="5331,5439 5263,5399 5186,5444 5254,5483 "/>
       <polygon class="fil4" points="5235,5494 5166,5455 5089,5500 5157,5539 "/>
       <polygon class="fil4" points="5138,5550 5070,5511 4992,5555 5060,5595 "/>
       <polygon class="fil4" points="5041,5606 4973,5566 4896,5611 4964,5650 "/>
       <polygon class="fil4" points="4945,5661 4877,5622 4799,5666 4867,5706 "/>
       <polygon class="fil4" points="4848,5717 4780,5677 4703,5722 4771,5761 "/>
       <polygon class="fil4" points="4752,5772 4684,5733 4606,5778 4674,5817 "/>
       <polygon class="fil4" points="4655,5828 4587,5789 4509,5833 4577,5873 "/>
       <polygon class="fil4" points="4558,5884 4490,5844 4413,5889 4481,5928 "/>
       <polygon class="fil4" points="4394,5900 4316,5944 4384,5984 4462,5939 "/>
       <polygon class="fil4" points="5632,5368 5709,5323 5641,5284 5564,5328 "/>
       <polygon class="fil4" points="5467,5384 5535,5423 5613,5379 5544,5339 "/>
       <polygon class="fil4" points="5370,5439 5438,5479 5516,5434 5448,5395 "/>
       <polygon class="fil4" points="5274,5495 5342,5534 5419,5490 5351,5450 "/>
       <polygon class="fil4" points="5177,5551 5245,5590 5323,5546 5255,5506 "/>
       <polygon class="fil4" points="5081,5606 5149,5646 5226,5601 5158,5562 "/>
       <polygon class="fil4" points="4984,5662 5052,5701 5130,5657 5061,5617 "/>
       <polygon class="fil4" points="4887,5717 4955,5757 5033,5712 4965,5673 "/>
       <polygon class="fil4" points="4791,5773 4859,5812 4936,5768 4868,5728 "/>
       <polygon class="fil4" points="4694,5829 4762,5868 4840,5824 4772,5784 "/>
       <polygon class="fil4" points="4598,5884 4666,5924 4743,5879 4675,5840 "/>
       <polygon class="fil4" points="4501,5940 4569,5979 4647,5935 4578,5895 "/>
       <polygon class="fil4" points="4482,5951 4404,5995 4472,6035 4550,5990 "/>
       <polygon class="fil4" points="5720,5419 5797,5374 5729,5335 5652,5379 "/>
       <polygon class="fil4" points="5555,5435 5623,5474 5701,5430 5633,5390 "/>
       <polygon class="fil4" points="5604,5485 5536,5446 5459,5491 5527,5530 "/>
       <polygon class="fil4" points="5362,5546 5430,5586 5508,5541 5439,5501 "/>
       <polygon class="fil4" points="5265,5602 5333,5641 5411,5597 5343,5557 "/>
       <polygon class="fil4" points="5169,5657 5237,5697 5314,5652 5246,5613 "/>
       <polygon class="fil4" points="5072,5713 5140,5752 5218,5708 5150,5668 "/>
       <polygon class="fil4" points="4976,5769 5044,5808 5121,5763 5053,5724 "/>
       <polygon class="fil4" points="4879,5824 4947,5864 5025,5819 4956,5779 "/>
       <polygon class="fil4" points="4782,5880 4850,5919 4928,5875 4860,5835 "/>
       <polygon class="fil4" points="4686,5935 4754,5975 4831,5930 4763,5891 "/>
       <polygon class="fil4" points="4735,5986 4667,5946 4589,5991 4657,6030 "/>
       <polygon class="fil4" points="4570,6002 4493,6047 4561,6086 4638,6041 "/>
       <polygon class="fil4" points="5808,5470 5885,5425 5817,5386 5740,5430 "/>
       <polygon class="fil4" points="5789,5481 5721,5441 5643,5486 5711,5525 "/>
       <polygon class="fil4" points="5692,5536 5624,5497 5547,5542 5615,5581 "/>
       <polygon class="fil4" points="5596,5592 5528,5553 5450,5597 5518,5637 "/>
       <polygon class="fil4" points="5499,5648 5431,5608 5354,5653 5421,5692 "/>
       <polygon class="fil4" points="5403,5703 5334,5664 5257,5708 5325,5748 "/>
       <polygon class="fil4" points="5306,5759 5238,5719 5160,5764 5228,5803 "/>
       <polygon class="fil4" points="5209,5814 5141,5775 5064,5820 5132,5859 "/>
       <polygon class="fil4" points="5113,5870 5045,5831 4967,5875 5035,5915 "/>
       <polygon class="fil4" points="5016,5926 4948,5886 4871,5931 4939,5970 "/>
       <polygon class="fil4" points="4920,5981 4851,5942 4774,5986 4842,6026 "/>
       <polygon class="fil4" points="4823,6037 4755,5997 4677,6042 4745,6081 "/>
       <polygon class="fil4" points="4658,6053 4581,6098 4649,6137 4726,6092 "/>
       <polygon class="fil4" points="5896,5521 5974,5476 5906,5437 5828,5481 "/>
       <polygon class="fil4" points="5877,5532 5809,5492 5732,5537 5799,5576 "/>
       <polygon class="fil4" points="5780,5588 5712,5548 5635,5593 5703,5632 "/>
       <polygon class="fil4" points="5684,5643 5616,5604 5538,5648 5606,5688 "/>
       <polygon class="fil4" points="5587,5699 5519,5659 5442,5704 5510,5743 "/>
       <polygon class="fil4" points="5491,5754 5423,5715 5345,5759 5413,5799 "/>
       <polygon class="fil4" points="5394,5810 5326,5770 5249,5815 5316,5854 "/>
       <polygon class="fil4" points="5298,5866 5229,5826 5152,5871 5220,5910 "/>
       <polygon class="fil4" points="5201,5921 5133,5882 5055,5926 5123,5966 "/>
       <polygon class="fil4" points="5104,5977 5036,5937 4959,5982 5027,6021 "/>
       <polygon class="fil4" points="5008,6032 4940,5993 4862,6037 4930,6077 "/>
       <polygon class="fil4" points="4911,6088 4843,6048 4766,6093 4833,6132 "/>
       <polygon class="fil4" points="4746,6104 4669,6149 4737,6188 4815,6144 "/>
       <polygon class="fil4" points="5994,5488 5916,5533 5984,5572 6062,5527 "/>
       <polygon class="fil4" points="5820,5588 5888,5628 5965,5583 5897,5543 "/>
       <polygon class="fil4" points="5723,5644 5791,5683 5869,5639 5801,5599 "/>
       <polygon class="fil4" points="5626,5699 5694,5739 5772,5694 5704,5655 "/>
       <polygon class="fil4" points="5530,5755 5598,5794 5675,5750 5607,5710 "/>
       <polygon class="fil4" points="5433,5811 5501,5850 5579,5805 5511,5766 "/>
       <polygon class="fil4" points="5414,5821 5318,5877 5318,5877 5299,5888 5221,5933 5221,5933 5182,5955 5124,5988 5124,5988 5063,6023 4950,6089 5018,6128 5136,6060 5192,6028 5192,6028 5251,5994 5289,5972 5289,5972 5365,5928 5386,5917 5386,5917 5482,5861 "/>
       <polygon class="fil4" points="4854,6144 4922,6184 4999,6139 4931,6099 "/>
       <polygon class="fil4" points="4757,6200 4825,6239 4903,6195 4835,6155 "/>
      </g>
      <path class="fil4" d="M5083 5402l-243 -140c-6,-3 -14,-3 -21,0l-337 195c-6,3 -6,12 0,16l240 138c7,4 17,4 25,0l336 -194c6,-4 6,-11 0,-15z"/>
     </g>
    </g>
    <path class="fil9" d="M5031 5024c0,0 52,81 72,106 21,25 91,129 137,155 45,26 0,-62 -5,-90 -5,-27 24,-54 70,-28 46,27 88,95 136,132 49,38 99,-143 40,-224 -59,-81 -119,-115 -209,-149 -86,-34 -161,-19 -197,-38l-44 136z"/>
    <path class="fil7" d="M4402 4264c-39,-283 -63,-479 -63,-479l353 678 504 435 -180 198 -564 -415 -38 -59c2,-140 0,-271 -12,-358z"/>
    <path class="fil9" d="M4213 5319c0,0 82,19 109,30 26,10 133,39 165,72 32,33 -56,23 -82,27 -25,5 28,38 60,71 33,33 52,60 61,131 7,53 -176,158 -210,77 -33,-78 -34,-78 -104,-128 -82,-60 -124,-123 -148,-150l149 -130z"/>
    <path class="fil7" d="M3432 3874c0,0 -174,40 -190,315l143 573c13,91 37,162 85,202l587 541 207 -182 -567 -556 -126 -601c0,0 14,-235 -139,-292z"/>
    <g>
     <path class="fil6" d="M4807 5122l1375 -794c9,-5 18,-5 28,1l0 0 35 19 -28 38 -10 12 0 1098c0,16 -9,31 -23,39l-1307 754 -2 12 -42 58 -39 -23c0,0 0,0 0,0l-1 0 0 0c-5,-4 -9,-10 -9,-18l0 -1156c0,-17 8,-32 23,-40z"/>
     <path class="fil4" d="M4846 5144l1379 -796c13,-7 30,2 30,18l0 1158c0,16 -9,31 -23,39l-1378 796c-14,8 -31,-2 -31,-18l0 -1157c0,-16 8,-32 23,-40z"/>
    </g>
    <polygon class="fil23" points="3013,6219 3853,6695 4389,6385 3549,5910 "/>
    <polygon class="fil24" points="3013,6437 3853,6913 4389,6603 3549,6127 "/>
    <g>
     <g>
      <polygon class="fil6" points="6881,4934 6881,4878 6880,4929 6881,4985 "/>
      <polygon class="fil6" points="7391,5000 7323,5040 7323,5091 7391,5052 "/>
      <polygon class="fil6" points="6605,5040 6537,5000 6537,5052 6605,5091 "/>
      <path class="fil6" d="M6749 5217c1,-1 1,-3 2,-5 0,-2 1,-4 2,-7 0,-1 1,-3 2,-5 1,-2 2,-4 3,-7 1,-1 2,-3 3,-4 1,-3 3,-6 5,-8 1,-2 2,-3 3,-4 3,-4 6,-7 10,-10 1,-1 2,-3 3,-4 2,-2 5,-3 7,-5 2,-2 4,-4 6,-5 2,-2 5,-4 8,-5 2,-2 5,-4 8,-6 6,-3 13,-7 20,-10 2,-1 5,-2 7,-3 5,-2 11,-4 17,-6 2,-1 4,-2 6,-2 4,-1 7,-2 11,-3 3,-1 6,-2 9,-3 4,-1 8,-1 12,-2 2,-1 5,-1 8,-2 8,-1 16,-2 24,-3 3,-1 6,-1 8,-1 5,0 10,-1 15,-1 3,0 6,0 9,0 4,0 8,0 12,0 3,0 7,0 10,0 4,0 7,0 11,1 3,0 7,0 10,0 4,1 7,1 11,2 3,0 6,1 10,1 3,1 7,1 11,2 3,1 6,1 9,2 5,1 9,2 13,3 3,1 5,1 8,2 8,2 16,5 23,8 4,1 8,3 11,5 2,0 4,1 6,2 5,3 11,5 16,8 42,25 64,57 64,90l0 -52c0,-32 -21,-64 -64,-89 -5,-3 -11,-6 -16,-8 -2,-1 -4,-2 -6,-3 -3,-1 -6,-3 -9,-4 -1,0 -1,0 -2,0 -7,-3 -15,-6 -23,-8 -1,0 -1,-1 -2,-1 -2,0 -4,-1 -5,-1 -5,-1 -9,-3 -14,-3 -1,-1 -2,-1 -3,-1 -2,-1 -4,-1 -6,-1 -4,-1 -7,-2 -11,-2 -2,-1 -3,-1 -5,-1 -2,0 -3,0 -5,-1 -4,0 -7,-1 -11,-1 -2,0 -3,0 -5,0 -2,-1 -3,-1 -5,-1 -4,0 -7,0 -11,0 -2,0 -4,-1 -5,-1 -2,0 -3,0 -5,0 -4,0 -8,0 -12,0 -2,0 -4,0 -6,0 -1,1 -2,1 -3,1 -5,0 -10,0 -15,1 -2,0 -4,0 -6,0 0,0 -1,0 -1,0 -9,1 -17,2 -25,4 0,0 -1,0 -1,0 -3,0 -5,1 -7,1 -4,1 -8,2 -12,3 -3,1 -6,2 -9,2 -3,1 -7,2 -11,3 -1,1 -2,1 -2,1 -2,1 -3,1 -4,2 -6,2 -12,4 -17,6 -2,1 -4,2 -6,3 -7,3 -14,6 -21,10 -1,1 -2,1 -2,2 -2,1 -4,2 -6,3 -3,2 -5,4 -8,6 -2,1 -4,3 -6,4 -2,2 -5,4 -7,6 0,0 -1,1 -1,1 -1,1 -1,2 -2,2 -4,4 -7,7 -9,10 -1,1 -2,2 -2,2 -1,1 -1,2 -2,3 -2,2 -3,5 -5,7 -1,1 -2,2 -2,3 0,1 -1,1 -1,2 -1,2 -2,4 -3,7 -1,1 -1,2 -2,4 0,0 0,1 0,1 -1,2 -2,4 -2,7 -1,1 -1,2 -1,4 0,0 0,1 -1,1 0,2 0,5 0,7 0,1 -1,3 -1,4 0,1 0,2 0,2l0 52c0,-3 0,-5 1,-7 0,-2 0,-4 0,-7z"/>
      <path class="fil6" d="M7390 5228c-1,3 -2,6 -3,9 -1,2 -2,4 -3,6 -1,2 -1,4 -2,6 -1,2 -3,4 -4,6 -1,2 -2,4 -3,6 -1,2 -3,5 -4,7 -1,2 -2,4 -4,5 -1,3 -3,5 -5,8 -1,1 -2,3 -4,4 -3,5 -7,9 -11,14 0,0 -1,1 -2,1 -3,4 -7,8 -11,11 -3,3 -6,6 -9,9l0 51c2,-2 5,-4 8,-7 0,0 1,-1 1,-1 4,-4 8,-8 11,-11 1,-1 1,-1 2,-2 4,-4 8,-9 11,-13 1,-1 1,-1 1,-1 1,-2 2,-3 3,-4 2,-2 4,-5 5,-7 1,-2 3,-4 4,-6 1,-2 3,-4 4,-7 1,0 1,-1 2,-2 0,-1 1,-2 1,-3 1,-2 2,-4 3,-7 1,-2 2,-3 3,-5 1,-3 2,-5 3,-7 0,-1 1,-2 1,-2 1,-3 2,-5 2,-7l96 0 0 -51 -96 0z"/>
      <path class="fil6" d="M6607 5371l0 -51c-34,-28 -56,-60 -67,-92l-96 0 0 51 96 0c11,33 33,64 67,92z"/>
      <path class="fil6" d="M7208 5388c-11,4 -23,8 -35,12 -7,2 -14,4 -20,6 -7,2 -13,4 -19,5 -7,2 -14,3 -21,5 -7,1 -13,2 -20,4 -14,2 -29,4 -44,6l0 51c15,-1 29,-3 44,-6 1,0 1,0 2,0 6,-1 12,-3 18,-4 7,-2 14,-3 20,-4 7,-2 13,-4 20,-6 6,-2 13,-3 20,-5 1,-1 1,-1 2,-1 11,-4 22,-8 33,-12l68 39 117 -67 0 -52 -117 68 -68 -39z"/>
      <path class="fil6" d="M6884 5426c-11,-1 -21,-3 -31,-4 -8,-1 -15,-3 -22,-4 -6,-1 -13,-3 -19,-4 -9,-2 -17,-4 -26,-6 -6,-2 -13,-4 -20,-6 -3,-1 -5,-2 -8,-2 -12,-4 -23,-8 -34,-12 0,0 0,0 0,0l-68 39 -117 -68 0 52 117 67 68 -39c11,4 22,8 34,12 2,1 5,2 8,3 3,0 6,1 9,2 4,1 7,2 11,3 9,2 17,4 26,6 3,1 5,2 8,2 4,1 7,2 11,2 7,2 14,3 22,4 3,1 6,1 10,2 7,1 14,2 20,2l1 0 0 56 165 0 0 -51 -165 0 0 -56z"/>
     </g>
     <g>
      <path class="fil5" d="M7276 5427l-68 -39c-49,19 -103,32 -159,38l0 56 -165 0 0 -56c-56,-6 -111,-19 -160,-38l-68 39 -117 -68 68 -39c-34,-28 -56,-60 -67,-92l-96 0 0 -96 96 0c10,-33 32,-64 65,-92l-68 -40 117 -67 68 39c49,-19 103,-32 159,-38l0 -56 165 0 0 56c56,6 111,19 160,38l67 -39 118 67 -68 40c33,28 56,59 67,92l96 0 0 96 -96 0c-10,32 -32,64 -65,92l68 39 -117 68zm-464 -158l0 0c85,49 222,49 307,0 84,-49 84,-129 -1,-178 -85,-49 -222,-49 -307,0 -84,49 -84,129 1,178z"/>
     </g>
    </g>
    <g>
     <g>
      <polygon class="fil6" points="7084,5506 7084,5461 7084,5503 7084,5548 "/>
      <polygon class="fil6" points="7501,5560 7446,5592 7446,5634 7501,5602 "/>
      <polygon class="fil6" points="6859,5592 6803,5560 6803,5602 6859,5634 "/>
      <path class="fil6" d="M6977 5738c0,-2 1,-3 1,-5 0,-1 1,-3 1,-5 1,-1 2,-3 2,-4 1,-2 2,-4 3,-6 1,-1 1,-2 2,-4 2,-2 3,-4 4,-6 1,-1 2,-2 3,-4 3,-2 5,-5 8,-8 1,-1 2,-2 3,-2 1,-2 3,-4 5,-5 2,-1 3,-3 5,-4 2,-1 4,-3 7,-4 2,-2 4,-3 6,-4 6,-4 11,-6 17,-9 2,-1 3,-1 5,-2 5,-2 9,-4 14,-5 2,-1 3,-2 5,-2 3,-1 6,-2 9,-3 2,0 5,-1 7,-2 3,0 7,-1 10,-2 2,0 4,-1 7,-1 6,-1 13,-2 20,-3 2,0 4,0 6,0 4,-1 8,-1 12,-1 3,0 5,0 8,0 3,0 6,0 9,0 3,0 6,0 8,0 3,0 6,0 9,0 3,0 6,1 9,1 3,0 6,1 8,1 3,0 6,1 8,1 4,1 7,1 10,2 2,0 5,1 7,1 4,1 8,2 11,3 2,0 4,1 6,2 7,1 13,4 19,6 3,1 6,2 9,4 2,0 3,1 5,2 4,2 9,4 13,7 35,20 52,46 52,73l0 -42c0,-27 -17,-53 -52,-73 -4,-3 -9,-5 -13,-7 -2,-1 -3,-2 -5,-2 -2,-1 -5,-3 -8,-4 0,0 0,0 -1,0 -6,-2 -12,-5 -19,-6 0,-1 -1,-1 -1,-1 -2,0 -3,-1 -5,-1 -3,-1 -7,-2 -11,-3 -1,0 -2,0 -3,0 -1,-1 -3,-1 -4,-1 -3,-1 -6,-1 -9,-2 -2,0 -3,0 -4,-1 -2,0 -3,0 -4,0 -3,0 -6,-1 -9,-1 -2,0 -3,0 -4,0 -2,-1 -3,-1 -4,-1 -3,0 -6,0 -9,0 -2,0 -3,0 -5,0 -1,0 -2,0 -3,0 -4,0 -7,0 -10,0 -2,0 -3,0 -5,0 -1,0 -2,0 -3,0 -4,0 -8,0 -12,1 -1,0 -3,0 -5,0 0,0 -1,0 -1,0 -7,1 -14,2 -20,3 -1,0 -1,0 -1,0 -2,0 -4,1 -6,1 -3,1 -7,2 -10,2 -2,1 -4,2 -7,2 -3,1 -6,2 -9,3 -1,0 -1,0 -2,1 -1,0 -2,0 -3,1 -5,1 -9,3 -14,5 -2,1 -3,1 -5,2 -6,3 -11,5 -17,9 0,0 -1,0 -2,1 -1,1 -3,2 -4,3 -3,1 -5,3 -7,4 -2,1 -3,3 -5,4 -2,2 -3,3 -5,5 0,0 -1,0 -1,0 -1,1 -1,2 -2,2 -3,3 -5,6 -8,9 0,0 -1,1 -1,1 -1,1 -1,1 -1,2 -2,2 -3,4 -5,6 0,1 -1,2 -1,3 -1,0 -1,1 -1,1 -1,2 -2,4 -3,6 0,1 -1,2 -1,3 0,0 0,1 0,1 -1,2 -1,4 -2,5 0,2 -1,3 -1,4 0,0 0,1 0,1 0,2 -1,4 -1,5 0,2 0,3 0,4 0,1 0,1 0,2l0 42c0,-2 0,-4 0,-6 0,-1 0,-3 1,-5z"/>
      <path class="fil6" d="M7501 5746c-1,3 -2,5 -3,8 -1,1 -2,3 -2,5 -1,1 -2,3 -3,5 0,1 -1,3 -2,5 -1,1 -2,3 -3,4 -1,2 -2,4 -3,6 -1,2 -2,3 -3,4 -2,2 -3,4 -5,6 -1,2 -1,3 -2,4 -3,4 -6,8 -10,11 0,1 -1,1 -1,2 -3,3 -6,6 -9,9 -3,2 -5,4 -8,7l0 42c2,-2 4,-4 6,-6 1,-1 1,-1 2,-1 3,-3 6,-6 9,-9 0,-1 1,-1 1,-2 3,-3 6,-7 9,-11 1,0 1,0 1,-1 1,-1 2,-2 2,-3 2,-2 3,-4 5,-6 1,-1 2,-2 2,-4 2,-2 3,-4 4,-6 0,0 1,-1 1,-2 1,0 1,-1 2,-2 1,-2 1,-4 2,-5 1,-2 2,-4 2,-5 1,-2 2,-4 3,-5 0,-1 0,-2 1,-3 0,-1 1,-3 1,-5l79 0 0 -42 -78 0z"/>
      <path class="fil6" d="M6860 5864l0 -42c-27,-24 -45,-49 -54,-76l-78 0 0 42 78 0c9,27 27,52 54,76z"/>
      <path class="fil6" d="M7352 5877c-10,4 -19,7 -29,10 -6,2 -11,3 -17,5 -5,1 -10,3 -15,4 -6,1 -12,3 -17,4 -6,1 -11,2 -16,3 -12,2 -24,4 -36,5l0 42c12,-1 24,-3 36,-5 0,0 1,0 1,0 5,-1 10,-2 15,-3 5,-2 11,-3 17,-4 5,-1 10,-3 15,-4 6,-2 11,-3 17,-5 0,0 1,0 2,0 9,-3 18,-7 27,-10l55 32 95 -55 1 -42 -96 55 -55 -32z"/>
      <path class="fil6" d="M7087 5908c-9,-1 -17,-2 -26,-3 -6,-1 -12,-2 -18,-3 -5,-1 -10,-2 -15,-4 -7,-1 -14,-3 -21,-5 -5,-1 -11,-3 -16,-4 -3,-1 -5,-2 -7,-2 -10,-3 -19,-6 -28,-10l0 0 -55 32 -96 -55 0 42 96 55 55 -32c9,3 18,7 28,10 2,0 4,1 7,2 2,0 4,1 7,2 3,1 6,1 9,2 7,2 14,4 21,5 2,1 4,2 7,2 3,1 5,1 8,2 6,1 12,2 18,3 3,0 6,1 8,1 6,1 12,2 17,2l0 0 0 0 1 46 135 0 0 -42 -135 0 0 -46z"/>
     </g>
     <g>
      <path class="fil5" d="M7407 5909l-55 -32c-40,16 -84,26 -130,31l0 46 -135 0 0 -46c-46,-5 -91,-15 -131,-31l-55 32 -96 -55 55 -32c-27,-24 -45,-49 -54,-76l-78 0 -1 -78 78 0c9,-27 27,-52 54,-76l-56 -32 96 -55 55 32c40,-15 85,-26 130,-31l0 -45 135 0 0 45c46,5 91,16 131,31l55 -32 96 55 -55 32c27,24 45,49 54,76l78 0 1 78 -78 0c-9,27 -27,52 -54,76l56 32 -96 55zm-379 -129l0 0c70,40 182,40 251,0 69,-40 68,-105 -1,-145 -70,-40 -182,-40 -251,0 -69,40 -68,105 1,145z"/>
     </g>
    </g>
    <g>
     <g>
      <path class="fil9" d="M2883 5656c0,0 -59,-58 -76,-81 -17,-22 -91,-100 -101,-144 -10,-45 58,9 82,18 24,9 58,-12 48,-56 -11,-45 -67,-126 -87,-174 -19,-49 180,-46 237,19 57,65 86,132 90,216 4,82 -31,148 -25,184l-168 18z"/>
      <path class="fil5" d="M3081 5568l-269 40 37 444 400 361c0,0 -17,-423 -168,-845z"/>
      <path class="fil19" d="M2160 9562c0,0 -23,105 120,124 144,19 207,18 219,114 13,96 -28,136 -187,146 -137,8 -370,-23 -500,-60 -22,-6 -40,-17 -42,-40 -2,-47 18,-174 54,-261 52,-124 336,-23 336,-23z"/>
      <path class="fil20" d="M2718 9688c0,0 -11,33 133,41 145,8 299,8 319,103 20,94 -93,169 -251,191 -136,19 -408,32 -516,36 -23,1 -41,-15 -44,-37 -7,-47 -15,-130 -8,-218 10,-134 367,-116 367,-116z"/>
      <path class="fil25" d="M1963 7279c0,0 -41,1164 -52,1305 -10,142 -119,1024 -119,1024 0,0 244,123 432,39l211 -2237 -472 -131z"/>
      <path class="fil26" d="M2303 7352l57 1145c-10,341 -24,1318 -24,1318 278,32 455,-119 455,-119 -16,-152 0,-1075 0,-1075 57,-446 28,-1163 34,-1295 1,-13 1,-21 1,-21l-523 47z"/>
      <path class="fil5" d="M1795 5635c0,0 -141,546 -103,840 0,0 103,150 294,135l-191 -975z"/>
      <path class="fil10" d="M2764 5122c0,214 -141,387 -314,386 -174,0 -314,-174 -313,-387 0,-214 141,-387 315,-386 173,0 313,174 312,387z"/>
      <path class="fil20" d="M2976 5715c0,0 -262,-100 -298,-124 -35,-24 -49,-61 -49,-61 -177,-124 -404,-109 -404,-109 -330,91 -430,214 -430,214 34,282 107,1395 123,1642 2,31 20,58 47,70 407,187 709,97 849,30 52,-25 81,-81 75,-139 -59,-533 87,-1523 87,-1523z"/>
      <path class="fil8" d="M2564 4717c0,0 245,47 248,253l-229 75c0,0 36,174 -92,218 0,0 -37,158 -270,143 0,0 -350,-455 78,-671 0,0 119,-44 265,-18z"/>
      <path class="fil5" d="M2985 5715c-239,0 -144,514 -144,514l82 358c11,49 60,76 109,69 193,-27 217,-203 217,-203 -3,-470 -264,-738 -264,-738z"/>
     </g>
     <path class="fil5" d="M2629 5530c-177,-124 -404,-109 -404,-109 -51,15 -97,30 -138,45 200,0 465,73 566,102 -17,-19 -24,-38 -24,-38z"/>
    </g>
    <g>
     <g>
      <g>
       <g>
        <path class="fil5" d="M12306 2456l-5299 -3057c-33,-19 -70,-18 -106,4l0 0 -118 66 108 147 40 46 0 3349c0,62 34,120 88,152l5032 2903 8 44 162 227 134 -78c1,0 1,0 2,-1l1 -1 0 0c23,-14 38,-38 38,-68l0 -3577c0,-65 -34,-124 -90,-156z"/>
        <path class="fil27" d="M12173 2533l-5312 -3064c-52,-30 -117,8 -117,68l0 3583c0,62 33,120 87,151l5311 3065c54,31 121,-8 121,-70l0 -3577c0,-64 -34,-124 -90,-156z"/>
       </g>
      </g>
      <g>
       <path class="fil4" d="M6744 -463l0 3583c0,62 33,120 87,151l5311 3065c13,8 27,11 41,11 42,0 80,-34 80,-81l0 -3577c0,-64 -34,-124 -90,-156l-5312 -3064c-12,-7 -26,-10 -39,-10 -41,0 -78,32 -78,78zm76 0l0 0 0 -3c1,0 3,1 3,1l5312 3064c32,19 52,53 52,90l0 3572c0,4 -4,4 -4,4l-5314 -3065c-30,-18 -49,-51 -49,-86l0 -3577z"/>
      </g>
      <g>
       <path class="fil4" d="M12223 6336l-2 1 0 0c1,0 1,0 2,-1z"/>
       <path class="fil6" d="M12263 6266l0 -3577c0,-21 -5,-42 -12,-61l134 -75c7,19 11,38 11,59l0 3577c0,30 -15,54 -38,68l0 0 -1 1c-1,1 -1,1 -2,1l-132 77c24,-14 40,-39 40,-70z"/>
      </g>
     </g>
     <g>
      <g>
       <polygon class="fil28" points="7309,8 7309,81 7617,258 7617,185 "/>
       <polygon class="fil29" points="7309,141 7309,215 7617,392 7617,319 "/>
       <polygon class="fil29" points="7309,275 7309,349 7617,526 7617,453 "/>
       <polygon class="fil29" points="9631,1822 9631,1748 7733,653 7733,726 "/>
       <polygon class="fil29" points="7309,409 7309,482 7617,660 7617,587 "/>
       <polygon class="fil29" points="7309,543 7309,616 7617,794 7617,720 "/>
       <polygon class="fil30" points="9631,1955 9631,1882 7733,787 7733,860 "/>
       <polygon class="fil29" points="7309,944 7309,1018 7617,1195 7617,1122 "/>
       <polygon class="fil28" points="7309,1078 7309,1151 7617,1329 7617,1256 "/>
       <polygon class="fil29" points="7309,1613 7309,1687 7617,1864 7617,1791 "/>
       <polygon class="fil29" points="7309,1747 7309,1820 7617,1998 7617,1925 "/>
       <g>
        <polygon class="fil30" points="8931,2682 7733,1991 7733,2064 8931,2755 "/>
        <polygon class="fil29" points="8994,2719 8994,2792 9631,3160 9631,3086 "/>
       </g>
       <g>
        <polygon class="fil29" points="8334,2204 7733,1857 7733,1931 8334,2278 "/>
        <polygon class="fil29" points="8398,2241 8398,2314 9631,3026 9631,2953 "/>
       </g>
       <polygon class="fil29" points="9469,2458 9469,2531 9631,2624 9631,2551 "/>
       <polygon class="fil23" points="8586,1814 7733,1322 7733,1395 8586,1888 "/>
       <polygon class="fil29" points="8236,542 7733,252 7733,325 8236,615 "/>
       <g>
        <polygon class="fil29" points="9062,1018 8299,579 8299,652 9062,1092 "/>
       </g>
       <polygon class="fil29" points="8617,896 8081,586 8081,660 8617,969 "/>
       <g>
        <polygon class="fil23" points="9181,1221 8680,932 8680,1006 9181,1294 "/>
        <polygon class="fil29" points="9244,1257 9244,1330 9631,1554 9631,1481 "/>
       </g>
       <polygon class="fil23" points="7832,577 7832,650 8236,883 8236,810 "/>
       <polygon class="fil29" points="9473,1523 8299,846 8299,919 9473,1597 "/>
       <polygon class="fil29" points="8801,1537 8034,1095 8034,1168 8801,1610 "/>
       <polygon class="fil29" points="9473,1925 8864,1574 8864,1647 9473,1998 "/>
       <g>
        <polygon class="fil29" points="9406,2287 8649,1851 8649,1924 9406,2361 "/>
       </g>
       <polygon class="fil30" points="8994,2183 8994,2257 9406,2494 9406,2421 "/>
       <polygon class="fil29" points="7881,1542 7733,1456 7733,1529 7881,1615 "/>
       <g>
        <polygon class="fil29" points="8159,1702 8159,1775 8931,2220 8931,2147 "/>
        <polygon class="fil29" points="8096,1666 7944,1578 7944,1651 8096,1739 "/>
       </g>
       <polygon class="fil29" points="8788,2198 7944,1712 7944,1785 8788,2272 "/>
      </g>
      <g>
       <polygon class="fil28" points="7309,2141 7309,2214 7617,2392 7617,2319 "/>
       <polygon class="fil29" points="7309,2275 7309,2348 7617,2526 7617,2452 "/>
       <polygon class="fil29" points="7309,2409 7309,2482 7617,2660 7617,2586 "/>
       <polygon class="fil29" points="9631,3955 9631,3882 7733,2787 7733,2860 "/>
       <polygon class="fil29" points="7309,2543 7309,2616 7617,2793 7617,2720 "/>
       <polygon class="fil29" points="7309,2676 7309,2750 7617,2927 7617,2854 "/>
       <polygon class="fil30" points="9631,4089 9631,4016 7733,2920 7733,2994 "/>
       <polygon class="fil29" points="7309,3078 7309,3151 7617,3328 7617,3255 "/>
       <polygon class="fil28" points="7309,3212 7309,3285 7617,3462 7617,3389 "/>
       <polygon class="fil23" points="8586,3948 7733,3456 7733,3529 8586,4021 "/>
       <polygon class="fil29" points="8236,2676 7733,2385 7733,2458 8236,2749 "/>
       <g>
        <polygon class="fil29" points="9062,3152 8299,2712 8299,2785 9062,3225 "/>
       </g>
       <polygon class="fil29" points="8617,3029 8081,2720 8081,2793 8617,3103 "/>
       <g>
        <polygon class="fil23" points="9181,3354 8680,3066 8680,3139 9181,3427 "/>
        <polygon class="fil29" points="9244,3391 9244,3464 9631,3688 9631,3614 "/>
       </g>
       <polygon class="fil23" points="7832,2710 7832,2783 8236,3017 8236,2943 "/>
       <polygon class="fil29" points="9473,3657 8299,2980 8299,3053 9473,3730 "/>
       <polygon class="fil29" points="8801,3671 8034,3228 8034,3301 8801,3744 "/>
       <polygon class="fil29" points="9473,4058 8864,3707 8864,3780 9473,4132 "/>
       <g>
        <polygon class="fil29" points="9406,4421 8649,3984 8649,4057 9406,4494 "/>
       </g>
      </g>
      <g>
       <polygon class="fil30" points="11059,2168 11059,2197 11181,2267 11181,2238 "/>
       <polygon class="fil30" points="11059,2221 11059,2250 11181,2321 11181,2291 "/>
       <polygon class="fil30" points="11059,2274 11059,2303 11181,2374 11181,2345 "/>
       <polygon class="fil30" points="11981,2888 11981,2859 11227,2424 11227,2453 "/>
       <polygon class="fil30" points="11059,2327 11059,2356 11181,2427 11181,2398 "/>
       <polygon class="fil30" points="11059,2380 11059,2410 11181,2480 11181,2451 "/>
       <polygon class="fil30" points="11981,2941 11981,2912 11227,2477 11227,2506 "/>
       <polygon class="fil30" points="11059,2540 11059,2569 11181,2639 11181,2610 "/>
       <polygon class="fil30" points="11059,2593 11059,2622 11181,2693 11181,2663 "/>
       <polygon class="fil30" points="11059,2805 11059,2835 11181,2905 11181,2876 "/>
       <polygon class="fil30" points="11059,2859 11059,2888 11181,2958 11181,2929 "/>
       <g>
        <polygon class="fil30" points="11703,3230 11227,2956 11227,2985 11703,3259 "/>
        <polygon class="fil30" points="11728,3244 11728,3274 11981,3420 11981,3391 "/>
       </g>
       <g>
        <polygon class="fil30" points="11466,3040 11227,2902 11227,2931 11466,3069 "/>
        <polygon class="fil30" points="11491,3055 11491,3084 11981,3366 11981,3337 "/>
       </g>
       <polygon class="fil30" points="11917,3141 11917,3170 11981,3207 11981,3178 "/>
       <polygon class="fil30" points="11566,2885 11227,2690 11227,2719 11566,2914 "/>
       <polygon class="fil30" points="11427,2380 11227,2265 11227,2294 11427,2409 "/>
       <g>
        <polygon class="fil30" points="11755,2569 11452,2395 11452,2424 11755,2598 "/>
       </g>
       <polygon class="fil30" points="11578,2521 11365,2398 11365,2427 11578,2550 "/>
       <g>
        <polygon class="fil30" points="11802,2650 11603,2535 11603,2564 11802,2679 "/>
        <polygon class="fil30" points="11827,2664 11827,2693 11981,2782 11981,2753 "/>
       </g>
       <polygon class="fil30" points="11266,2394 11266,2423 11427,2516 11427,2486 "/>
       <polygon class="fil30" points="11918,2770 11452,2501 11452,2530 11918,2799 "/>
       <polygon class="fil30" points="11651,2775 11347,2600 11347,2629 11651,2804 "/>
       <polygon class="fil30" points="11918,2929 11676,2790 11676,2819 11918,2958 "/>
       <g>
        <polygon class="fil30" points="11892,3073 11591,2900 11591,2929 11892,3102 "/>
       </g>
       <polygon class="fil30" points="11728,3032 11728,3061 11892,3155 11892,3126 "/>
       <polygon class="fil30" points="11286,2777 11227,2743 11227,2772 11286,2806 "/>
       <g>
        <polygon class="fil30" points="11396,2841 11396,2870 11703,3047 11703,3017 "/>
        <polygon class="fil30" points="11371,2826 11311,2791 11311,2821 11371,2855 "/>
       </g>
       <polygon class="fil30" points="11646,3038 11311,2845 11311,2874 11646,3067 "/>
      </g>
      <g>
       <polygon class="fil29" points="11059,3067 11059,3096 11181,3167 11181,3137 "/>
       <polygon class="fil29" points="11059,3120 11059,3149 11181,3220 11181,3191 "/>
       <polygon class="fil29" points="11059,3173 11059,3202 11181,3273 11181,3244 "/>
       <polygon class="fil29" points="11981,3787 11981,3758 11227,3323 11227,3352 "/>
       <polygon class="fil29" points="11059,3226 11059,3255 11181,3326 11181,3297 "/>
       <polygon class="fil29" points="11059,3279 11059,3309 11181,3379 11181,3350 "/>
       <polygon class="fil29" points="11981,3840 11981,3811 11227,3376 11227,3405 "/>
       <polygon class="fil29" points="11059,3439 11059,3468 11181,3538 11181,3509 "/>
       <polygon class="fil29" points="11059,3492 11059,3521 11181,3592 11181,3562 "/>
       <polygon class="fil29" points="11059,3705 11059,3734 11181,3804 11181,3775 "/>
       <polygon class="fil29" points="11059,3758 11059,3787 11181,3857 11181,3828 "/>
       <g>
        <polygon class="fil29" points="11703,4129 11227,3855 11227,3884 11703,4158 "/>
        <polygon class="fil29" points="11728,4143 11728,4173 11981,4319 11981,4290 "/>
       </g>
       <g>
        <polygon class="fil29" points="11466,3939 11227,3801 11227,3831 11466,3968 "/>
        <polygon class="fil29" points="11491,3954 11491,3983 11981,4266 11981,4236 "/>
       </g>
       <polygon class="fil29" points="11917,4040 11917,4069 11981,4106 11981,4077 "/>
       <polygon class="fil29" points="11566,3784 11227,3589 11227,3618 11566,3813 "/>
       <polygon class="fil29" points="11427,3279 11227,3164 11227,3193 11427,3308 "/>
       <g>
        <polygon class="fil29" points="11755,3468 11452,3294 11452,3323 11755,3497 "/>
       </g>
       <polygon class="fil29" points="11578,3420 11365,3297 11365,3326 11578,3449 "/>
       <g>
        <polygon class="fil29" points="11802,3549 11603,3434 11603,3463 11802,3578 "/>
        <polygon class="fil29" points="11827,3563 11827,3592 11981,3681 11981,3652 "/>
       </g>
       <polygon class="fil29" points="11266,3293 11266,3322 11427,3415 11427,3385 "/>
       <polygon class="fil29" points="11918,3669 11452,3400 11452,3429 11918,3698 "/>
       <polygon class="fil29" points="11651,3674 11347,3499 11347,3528 11651,3703 "/>
       <polygon class="fil29" points="11918,3828 11676,3689 11676,3718 11918,3857 "/>
       <g>
        <polygon class="fil29" points="11892,3972 11591,3799 11591,3828 11892,4001 "/>
       </g>
       <polygon class="fil29" points="11728,3931 11728,3960 11892,4054 11892,4025 "/>
       <polygon class="fil29" points="11286,3676 11227,3642 11227,3671 11286,3705 "/>
       <g>
        <polygon class="fil29" points="11396,3740 11396,3769 11703,3946 11703,3916 "/>
        <polygon class="fil29" points="11371,3725 11311,3691 11311,3720 11371,3754 "/>
       </g>
       <polygon class="fil29" points="11646,3937 11311,3744 11311,3773 11646,3966 "/>
      </g>
      <g>
       <polygon class="fil28" points="11059,3966 11059,3995 11181,4066 11181,4036 "/>
       <polygon class="fil28" points="11059,4019 11059,4048 11181,4119 11181,4090 "/>
       <polygon class="fil28" points="11059,4072 11059,4101 11181,4172 11181,4143 "/>
       <polygon class="fil28" points="11981,4686 11981,4657 11227,4222 11227,4251 "/>
       <polygon class="fil28" points="11059,4125 11059,4154 11181,4225 11181,4196 "/>
       <polygon class="fil28" points="11059,4179 11059,4208 11181,4278 11181,4249 "/>
       <polygon class="fil28" points="11981,4740 11981,4710 11227,4275 11227,4305 "/>
       <polygon class="fil28" points="11059,4338 11059,4367 11181,4438 11181,4408 "/>
       <polygon class="fil28" points="11059,4391 11059,4420 11181,4491 11181,4462 "/>
       <polygon class="fil28" points="11059,4604 11059,4633 11181,4703 11181,4674 "/>
       <polygon class="fil28" points="11059,4657 11059,4686 11181,4756 11181,4727 "/>
       <g>
        <polygon class="fil28" points="11703,5028 11227,4754 11227,4783 11703,5057 "/>
        <polygon class="fil28" points="11728,5043 11728,5072 11981,5218 11981,5189 "/>
       </g>
       <g>
        <polygon class="fil28" points="11466,4838 11227,4701 11227,4730 11466,4867 "/>
        <polygon class="fil28" points="11491,4853 11491,4882 11981,5165 11981,5135 "/>
       </g>
       <polygon class="fil28" points="11917,4939 11917,4968 11981,5005 11981,4976 "/>
       <polygon class="fil28" points="11566,4683 11227,4488 11227,4517 11566,4713 "/>
       <polygon class="fil28" points="11427,4178 11227,4063 11227,4092 11427,4207 "/>
       <g>
        <polygon class="fil28" points="11755,4367 11452,4193 11452,4222 11755,4396 "/>
       </g>
       <polygon class="fil28" points="11578,4319 11365,4196 11365,4225 11578,4348 "/>
       <g>
        <polygon class="fil28" points="11802,4448 11603,4333 11603,4362 11802,4477 "/>
        <polygon class="fil28" points="11827,4462 11827,4491 11981,4580 11981,4551 "/>
       </g>
       <polygon class="fil28" points="11266,4192 11266,4221 11427,4314 11427,4285 "/>
       <polygon class="fil28" points="11918,4568 11452,4299 11452,4328 11918,4597 "/>
       <polygon class="fil28" points="11651,4573 11347,4398 11347,4427 11651,4602 "/>
       <polygon class="fil28" points="11918,4727 11676,4588 11676,4617 11918,4756 "/>
       <g>
        <polygon class="fil28" points="11892,4871 11591,4698 11591,4727 11892,4900 "/>
       </g>
       <polygon class="fil28" points="11728,4830 11728,4859 11892,4954 11892,4924 "/>
       <polygon class="fil28" points="11286,4575 11227,4541 11227,4570 11286,4604 "/>
       <g>
        <polygon class="fil28" points="11396,4639 11396,4668 11703,4845 11703,4816 "/>
        <polygon class="fil28" points="11371,4624 11311,4590 11311,4619 11371,4653 "/>
       </g>
       <polygon class="fil28" points="11646,4836 11311,4643 11311,4672 11646,4865 "/>
      </g>
      <g>
       <polygon class="fil29" points="11059,4865 11059,4894 11181,4965 11181,4936 "/>
       <polygon class="fil29" points="11059,4918 11059,4947 11181,5018 11181,4989 "/>
       <polygon class="fil29" points="11059,4971 11059,5000 11181,5071 11181,5042 "/>
       <polygon class="fil29" points="11981,5585 11981,5556 11227,5121 11227,5150 "/>
       <polygon class="fil29" points="11059,5024 11059,5054 11181,5124 11181,5095 "/>
       <polygon class="fil29" points="11059,5078 11059,5107 11181,5177 11181,5148 "/>
       <polygon class="fil29" points="11981,5639 11981,5609 11227,5175 11227,5204 "/>
       <polygon class="fil29" points="11059,5237 11059,5266 11181,5337 11181,5307 "/>
       <polygon class="fil29" points="11059,5290 11059,5319 11181,5390 11181,5361 "/>
       <polygon class="fil29" points="11917,5838 11917,5867 11981,5904 11981,5875 "/>
       <polygon class="fil29" points="11566,5583 11227,5387 11227,5416 11566,5612 "/>
       <polygon class="fil29" points="11427,5077 11227,4962 11227,4991 11427,5106 "/>
       <g>
        <polygon class="fil29" points="11755,5266 11452,5092 11452,5121 11755,5296 "/>
       </g>
       <polygon class="fil29" points="11578,5218 11365,5095 11365,5124 11578,5247 "/>
       <g>
        <polygon class="fil29" points="11802,5347 11603,5232 11603,5261 11802,5376 "/>
        <polygon class="fil29" points="11827,5361 11827,5390 11981,5479 11981,5450 "/>
       </g>
       <polygon class="fil29" points="11266,5091 11266,5120 11427,5213 11427,5184 "/>
       <polygon class="fil29" points="11918,5467 11452,5198 11452,5227 11918,5496 "/>
       <polygon class="fil29" points="11651,5472 11347,5297 11347,5326 11651,5502 "/>
       <polygon class="fil29" points="11918,5626 11676,5487 11676,5516 11918,5655 "/>
       <g>
        <polygon class="fil29" points="11892,5770 11591,5597 11591,5626 11892,5799 "/>
       </g>
       <polygon class="fil29" points="11728,5729 11728,5758 11892,5853 11892,5824 "/>
       <polygon class="fil29" points="11286,5474 11227,5440 11227,5469 11286,5503 "/>
       <g>
        <polygon class="fil29" points="11396,5538 11396,5567 11703,5744 11703,5715 "/>
        <polygon class="fil29" points="11371,5523 11311,5489 11311,5518 11371,5553 "/>
       </g>
       <polygon class="fil29" points="11646,5735 11311,5542 11311,5571 11646,5764 "/>
      </g>
      <g>
       <path class="fil30" d="M7112 -106l-101 -59c-5,-2 -11,1 -11,7l0 121c0,6 3,12 8,15l101 58c6,3 12,-1 12,-6l0 -121c0,-6 -3,-12 -9,-15z"/>
       <path class="fil30" d="M7112 75l-101 -58c-5,-3 -11,1 -11,6l0 122c0,6 3,11 8,14l101 59c6,3 12,-1 12,-7l0 -121c0,-6 -3,-11 -9,-15z"/>
       <path class="fil30" d="M7112 257l-101 -59c-5,-2 -11,1 -11,7l0 121c0,6 3,12 8,15l101 58c6,3 12,-1 12,-6l0 -121c0,-6 -3,-12 -9,-15z"/>
       <path class="fil30" d="M7112 439l-101 -59c-5,-3 -11,1 -11,6l0 122c0,6 3,11 8,14l101 59c6,3 12,-1 12,-7l0 -121c0,-6 -3,-11 -9,-14z"/>
       <path class="fil30" d="M7112 620l-101 -58c-5,-3 -11,0 -11,6l0 121c0,6 3,12 8,15l101 58c6,3 12,0 12,-6l0 -121c0,-6 -3,-12 -9,-15z"/>
       <path class="fil30" d="M7112 802l-101 -59c-5,-3 -11,1 -11,7l0 121c0,6 3,11 8,14l101 59c6,3 12,-1 12,-7l0 -121c0,-6 -3,-11 -9,-14z"/>
       <path class="fil30" d="M7112 983l-101 -58c-5,-3 -11,0 -11,6l0 121c0,6 3,12 8,15l101 58c6,3 12,0 12,-6l0 -121c0,-6 -3,-12 -9,-15z"/>
       <path class="fil30" d="M7112 1165l-101 -59c-5,-3 -11,1 -11,7l0 121c0,6 3,11 8,14l101 59c6,3 12,-1 12,-7l0 -121c0,-6 -3,-11 -9,-14z"/>
       <path class="fil30" d="M7112 1346l-101 -58c-5,-3 -11,0 -11,6l0 121c0,6 3,12 8,15l101 58c6,3 12,0 12,-6l0 -121c0,-6 -3,-12 -9,-15z"/>
       <path class="fil30" d="M7112 1528l-101 -59c-5,-3 -11,1 -11,7l0 121c0,6 3,11 8,14l101 59c6,3 12,-1 12,-7l0 -120c0,-7 -3,-12 -9,-15z"/>
       <path class="fil30" d="M7112 1709l-101 -58c-5,-3 -11,0 -11,6l0 122c0,5 3,11 8,14l101 58c6,3 12,0 12,-6l0 -121c0,-6 -3,-12 -9,-15z"/>
       <path class="fil30" d="M7112 1891l-101 -59c-5,-3 -11,1 -11,7l0 121c0,6 3,11 8,14l101 59c6,3 12,-1 12,-7l0 -120c0,-7 -3,-12 -9,-15z"/>
      </g>
     </g>
     <g>
      <path class="fil29" d="M10024 1631c-6,6 -9,18 -9,35l0 78 0 2c0,15 -5,23 -14,24 -10,1 -23,-3 -41,-14l0 55c18,10 31,21 41,33 9,12 14,26 14,43l0 77c0,17 2,33 8,46 6,13 15,25 28,37 13,12 30,24 53,37l0 -51c-14,-9 -24,-18 -29,-26 -6,-9 -8,-19 -8,-31l0 -74 0 -3c0,-29 -16,-56 -49,-81l0 -2c33,13 49,4 49,-28l1 -73c0,-12 2,-20 8,-22 5,-3 15,0 29,8l0 -52c-22,-12 -39,-20 -52,-23 -13,-3 -23,-2 -29,5z"/>
      <path class="fil29" d="M10329 1960c-9,-12 -13,-25 -13,-40l0 -2 0 -78c0,-26 -7,-47 -20,-65 -14,-18 -37,-37 -70,-56l0 52c14,8 24,17 29,26 6,8 8,18 8,30l0 74c0,32 17,60 49,84l0 3c-16,-6 -28,-8 -37,-4 -8,5 -12,14 -12,29l0 2 -1 74c0,12 -2,19 -7,22 -6,2 -16,0 -30,-8l0 51c33,19 56,27 70,25 13,-3 20,-17 20,-42l0 -77c0,-16 5,-25 14,-26 9,-2 23,3 41,13l0 -54c-18,-10 -31,-21 -41,-33z"/>
     </g>
     <g>
      <path class="fil29" d="M10525 1912c-6,6 -9,18 -9,36l0 78 0 2c0,15 -5,23 -14,24 -10,1 -23,-4 -41,-14l0 54c18,10 31,22 41,34 9,12 14,26 14,42l0 77c-1,18 2,33 8,46 6,13 15,26 28,38 13,12 30,24 53,37l0 -51c-15,-9 -24,-18 -29,-27 -6,-9 -8,-19 -8,-30l0 -74 0 -3c0,-30 -16,-56 -49,-81l0 -3c33,13 49,4 49,-27l1 -74c0,-12 2,-19 8,-22 5,-2 15,0 29,8l0 -51c-22,-13 -40,-21 -52,-24 -14,-3 -23,-1 -29,5z"/>
      <path class="fil29" d="M10830 2241c-9,-12 -14,-25 -14,-40l0 -2 1 -78c0,-25 -7,-47 -20,-65 -14,-18 -37,-36 -70,-55l0 51c14,9 24,18 29,26 6,9 8,19 8,31l0 74c0,32 17,60 49,84l0 3c-16,-7 -28,-8 -37,-4 -8,4 -12,13 -12,28l0 2 -1 74c0,12 -2,20 -8,22 -5,3 -15,0 -29,-8l0 52c33,19 56,27 70,24 13,-2 20,-16 20,-41l0 -77c0,-17 5,-25 14,-27 9,-1 23,3 41,14l0 -55c-18,-10 -31,-21 -41,-33z"/>
     </g>
     <g>
      <path class="fil29" d="M10419 4538l-49 -28c-6,30 -17,55 -34,73l35 60 -60 33 -34 -59c-24,5 -52,2 -81,-8l0 56 -84 -49 0 -55c-29,-24 -57,-53 -81,-86l-34 20 -59 -102 34 -20c-16,-37 -27,-75 -33,-112l-49 -28 1 -97 48 29c6,-31 18,-56 34,-74l-34 -59 59 -34 35 59c24,-5 51,-2 80,8l1 -56 83 49 0 56c30,23 57,52 81,85l34 -20 60 103 -35 19c16,37 28,75 33,112l49 28 0 97zm-265 -75l0 0c61,35 110,7 111,-62 0,-70 -49,-155 -110,-190 -61,-35 -110,-7 -110,63 0,69 49,154 109,189z"/>
     </g>
     <g>
      <path class="fil29" d="M10769 5005l-40 -23c-4,25 -14,45 -27,60l28 48 -49 28 -28 -48c-19,4 -42,1 -66,-7l0 46 -69 -40 1 -46c-25,-19 -47,-43 -66,-69l-29 16 -48 -84 28 -16c-13,-30 -22,-61 -27,-92l-40 -22 1 -79 39 23c5,-25 15,-45 28,-60l-28 -49 49 -28 28 49c19,-4 42,-2 66,7l0 -46 68 40 0 45c24,19 47,43 66,70l28 -16 49 83 -29 16c14,31 23,62 28,92l39 23 0 79zm-216 -61l0 0c50,29 90,6 90,-51 0,-57 -40,-127 -89,-155 -50,-29 -90,-6 -90,51 -1,57 39,126 89,155z"/>
     </g>
     <g>
      <polygon class="fil29" points="10503,2489 9961,2175 9961,2203 10503,2517 "/>
      <polygon class="fil29" points="10793,2711 9961,2229 9961,2257 10793,2738 "/>
      <polygon class="fil30" points="10793,2657 10539,2510 10539,2537 10793,2684 "/>
      <polygon class="fil29" points="10503,2595 9961,2281 9961,2308 10503,2623 "/>
      <polygon class="fil29" points="10793,2816 9961,2335 9961,2363 10793,2844 "/>
      <polygon class="fil30" points="10793,2762 10539,2615 10539,2643 10793,2790 "/>
     </g>
     <g>
      <polygon class="fil29" points="10503,2748 9961,2434 9961,2461 10503,2775 "/>
      <polygon class="fil29" points="10793,2969 9961,2488 9961,2515 10793,2997 "/>
      <polygon class="fil29" points="10793,2915 10539,2768 10539,2796 10793,2943 "/>
      <polygon class="fil29" points="10503,2853 9961,2539 9961,2567 10503,2881 "/>
      <polygon class="fil29" points="10793,3075 9961,2594 9961,2621 10793,3102 "/>
      <polygon class="fil29" points="10793,3021 10539,2874 10539,2901 10793,3048 "/>
     </g>
     <g>
      <polygon class="fil29" points="10503,3006 9961,2692 9961,2720 10503,3034 "/>
      <polygon class="fil29" points="10793,3228 9961,2746 9961,2774 10793,3255 "/>
      <polygon class="fil29" points="10793,3173 10539,3027 10539,3054 10793,3201 "/>
      <polygon class="fil30" points="10503,3112 9961,2798 9961,2825 10503,3139 "/>
      <polygon class="fil29" points="10793,3333 9961,2852 9961,2880 10793,3361 "/>
      <polygon class="fil29" points="10793,3279 10539,3132 10539,3160 10793,3307 "/>
     </g>
     <g>
      <polygon class="fil29" points="10503,3265 9961,2951 9961,2978 10503,3292 "/>
      <polygon class="fil29" points="10793,3486 9961,3005 9961,3032 10793,3514 "/>
      <polygon class="fil30" points="10793,3432 10539,3285 10539,3313 10793,3459 "/>
      <polygon class="fil29" points="10503,3370 9961,3056 9961,3084 10503,3398 "/>
      <polygon class="fil29" points="10793,3592 9961,3110 9961,3138 10793,3619 "/>
      <polygon class="fil30" points="10793,3538 10539,3391 10539,3418 10793,3565 "/>
     </g>
     <g>
      <polygon class="fil29" points="10503,3523 9961,3209 9961,3237 10503,3551 "/>
      <polygon class="fil29" points="10793,3744 9961,3263 9961,3291 10793,3772 "/>
      <polygon class="fil30" points="10793,3690 10539,3543 10539,3571 10793,3718 "/>
      <polygon class="fil29" points="10503,3629 9961,3315 9961,3342 10503,3656 "/>
      <polygon class="fil30" points="10793,3850 9961,3369 9961,3396 10793,3878 "/>
      <polygon class="fil29" points="10793,3796 10539,3649 10539,3677 10793,3824 "/>
     </g>
    </g>
    <g>
     <g>
      <g>
       <polygon class="fil3" points="2267,48 2267,99 2482,223 2482,172 "/>
       <polygon class="fil3" points="2267,141 2267,193 2482,317 2482,266 "/>
       <polygon class="fil3" points="2267,235 2267,286 2482,410 2482,359 "/>
       <polygon class="fil3" points="3891,1317 3891,1265 2563,499 2563,551 "/>
       <polygon class="fil3" points="2267,329 2267,380 2482,504 2482,453 "/>
       <polygon class="fil3" points="2267,422 2267,473 2482,598 2482,546 "/>
       <polygon class="fil3" points="3891,1410 3891,1359 2563,593 2563,644 "/>
       <polygon class="fil3" points="2267,703 2267,754 2482,878 2482,827 "/>
       <polygon class="fil3" points="2267,797 2267,848 2482,972 2482,921 "/>
       <polygon class="fil3" points="2267,1171 2267,1222 2482,1346 2482,1295 "/>
       <polygon class="fil3" points="2267,1264 2267,1316 2482,1440 2482,1388 "/>
       <g>
        <polygon class="fil3" points="3401,1918 2563,1435 2563,1486 3401,1970 "/>
        <polygon class="fil3" points="3445,1944 3445,1995 3891,2252 3891,2201 "/>
       </g>
       <g>
        <polygon class="fil3" points="2984,1584 2563,1341 2563,1393 2984,1636 "/>
        <polygon class="fil3" points="3028,1610 3028,1661 3891,2159 3891,2108 "/>
       </g>
       <polygon class="fil3" points="3777,1761 3777,1813 3891,1878 3891,1827 "/>
       <polygon class="fil3" points="3159,1311 2563,967 2563,1018 3159,1363 "/>
       <polygon class="fil3" points="2915,422 2563,219 2563,270 2915,473 "/>
       <g>
        <polygon class="fil3" points="3492,755 2959,447 2959,498 3492,806 "/>
       </g>
       <polygon class="fil3" points="3182,669 2806,453 2806,504 3182,720 "/>
       <g>
        <polygon class="fil3" points="3575,896 3226,695 3226,746 3575,948 "/>
        <polygon class="fil3" points="3620,922 3620,973 3891,1129 3891,1078 "/>
       </g>
       <polygon class="fil3" points="2632,446 2632,497 2915,660 2915,609 "/>
       <polygon class="fil3" points="3780,1108 2959,634 2959,686 3780,1159 "/>
       <polygon class="fil3" points="3310,1118 2774,808 2774,859 3310,1169 "/>
       <polygon class="fil3" points="3780,1389 3354,1143 3354,1194 3780,1440 "/>
       <g>
        <polygon class="fil3" points="3733,1642 3204,1337 3204,1388 3733,1693 "/>
       </g>
       <polygon class="fil3" points="3445,1569 3445,1621 3733,1787 3733,1736 "/>
       <polygon class="fil3" points="2667,1121 2563,1061 2563,1112 2667,1172 "/>
       <g>
        <polygon class="fil3" points="2861,1233 2861,1284 3401,1595 3401,1544 "/>
        <polygon class="fil3" points="2817,1207 2711,1146 2711,1197 2817,1259 "/>
       </g>
       <polygon class="fil3" points="3301,1580 2711,1240 2711,1291 3301,1631 "/>
      </g>
     </g>
     <g>
      <g>
       <g>
        <path class="fil31" d="M4646 767l-874 -504c-27,-16 -58,-15 -88,3l0 0 -192 111 90 121 33 38 0 866c0,52 27,99 72,125l654 378 7 37 133 187 205 -121c1,0 1,0 1,-1l2 0 0 -1c18,-11 31,-31 31,-56l0 -1054c0,-53 -28,-102 -74,-129z"/>
        <path class="fil13" d="M4441 887l-884 -510c-43,-25 -97,6 -97,56l0 1059c0,51 28,99 72,125l884 511c45,25 100,-7 100,-58l0 -1054c0,-53 -29,-102 -75,-129z"/>
       </g>
      </g>
      <g>
       <path class="fil4" d="M4482 2128l-1 1 0 -1c0,0 1,0 1,0z"/>
       <path class="fil32" d="M4516 2070l0 -1054c0,-18 -4,-34 -10,-51l205 -118c5,16 9,32 9,49l0 1054c0,25 -13,45 -31,56l0 1 -2 0c0,1 0,1 -1,1l-203 120c19,-12 33,-32 33,-58z"/>
      </g>
     </g>
     <g>
      <g>
       <g>
        <path class="fil33" d="M4830 1320l-874 -504c-27,-16 -58,-15 -88,3l0 0 -192 111 89 121 34 38 0 866c0,51 27,99 72,125l654 378 7 36 133 187 205 -120c1,-1 1,-1 1,-1l2 -1 0 0c18,-11 31,-31 31,-56l0 -1054c0,-53 -28,-103 -74,-129z"/>
        <path class="fil23" d="M4625 1440l-884 -510c-43,-25 -97,6 -97,56l0 1058c0,52 27,99 72,125l884 511c44,26 100,-6 100,-57l0 -1054c0,-53 -29,-102 -75,-129z"/>
       </g>
      </g>
      <g>
       <path class="fil4" d="M4666 2681l-1 0 0 0c0,0 1,0 1,0z"/>
       <path class="fil34" d="M4700 2623l0 -1054c0,-18 -4,-35 -10,-51l205 -118c5,16 9,32 9,49l0 1054c0,25 -13,45 -31,56l0 0 -2 1c0,0 0,0 -1,1l-203 119c19,-11 33,-32 33,-57z"/>
      </g>
     </g>
     <g>
      <g>
       <g>
        <path class="fil5" d="M3877 1216l-874 -504c-27,-15 -57,-15 -87,3l0 0 -192 111 89 121 33 38 0 866c0,52 28,99 72,125l654 378 7 37 134 187 205 -121c0,0 1,0 1,-1l1 0 0 0c19,-12 32,-32 32,-57l0 -1054c0,-53 -29,-102 -75,-129z"/>
        <path class="fil4" d="M3673 1336l-885 -510c-43,-25 -97,6 -97,56l0 1059c0,51 28,99 73,125l884 511c44,25 99,-7 99,-58l0 -1054c0,-53 -28,-102 -74,-129z"/>
       </g>
      </g>
      <g>
       <path class="fil4" d="M3714 2577l-1 1 -1 0c1,-1 1,-1 2,-1z"/>
       <path class="fil6" d="M3747 2519l0 -1054c0,-17 -4,-34 -10,-50l205 -119c6,16 10,32 10,49l0 1054c0,25 -13,45 -32,57l0 0 -1 0c0,1 -1,1 -1,1l-204 120c20,-12 33,-32 33,-58z"/>
      </g>
     </g>
     <g>
      <g>
       <g>
        <path class="fil35" d="M3493 1441l-874 -505c-27,-15 -58,-14 -88,4l0 0 -192 111 90 121 33 38 0 866c0,51 27,99 72,125l654 378 7 36 133 187 206 -120c0,-1 0,-1 1,-1l1 -1 0 0c18,-11 31,-31 31,-56l0 -1054c0,-53 -28,-103 -74,-129z"/>
        <path class="fil30" d="M3288 1561l-884 -510c-43,-25 -97,6 -97,56l0 1058c0,52 28,99 72,125l884 511c45,26 100,-6 100,-57l0 -1054c0,-53 -28,-103 -75,-129z"/>
       </g>
      </g>
      <g>
       <path class="fil4" d="M3330 2801l-2 1 0 0c1,0 1,0 2,-1z"/>
       <path class="fil36" d="M3363 2744l0 -1054c0,-18 -4,-35 -10,-51l205 -118c5,16 9,32 9,49l0 1054c0,25 -13,45 -31,56l0 0 -1 1c-1,0 -1,0 -1,1l-204 119c19,-11 33,-32 33,-57z"/>
      </g>
     </g>
     <g>
      <g>
       <g>
        <path class="fil37" d="M3108 1665l-873 -504c-27,-15 -58,-15 -88,4l0 -1 -192 111 89 121 34 38 0 866c0,52 27,99 72,125l654 378 7 37 133 187 205 -121c1,0 1,0 1,0l2 -1 0 0c18,-12 31,-32 31,-57l0 -1054c0,-53 -28,-102 -75,-129z"/>
        <path class="fil38" d="M2904 1785l-884 -510c-43,-25 -97,6 -97,56l0 1059c0,51 27,99 72,125l884 511c44,25 100,-6 100,-58l0 -1054c0,-53 -29,-102 -75,-129z"/>
       </g>
      </g>
      <g>
       <path class="fil4" d="M2945 3026l-1 1 0 0c0,-1 1,-1 1,-1z"/>
       <path class="fil39" d="M2979 2968l0 -1054c0,-17 -4,-34 -10,-50l205 -119c5,16 9,32 9,49l0 1054c0,25 -13,45 -31,57l0 0 -2 1c0,0 0,0 -1,0l-203 120c19,-11 33,-32 33,-58z"/>
      </g>
     </g>
     <g>
      <g>
       <g>
        <path class="fil5" d="M2724 1890l-874 -504c-27,-16 -57,-15 -87,3l0 0 -192 111 89 121 33 38 0 866c0,51 28,99 72,125l655 378 6 36 134 187 205 -120c0,-1 1,-1 1,-1l1 -1 0 0c19,-11 32,-31 32,-56l0 -1054c0,-53 -29,-103 -75,-129z"/>
        <path class="fil4" d="M2520 2010l-884 -510c-44,-25 -97,6 -97,56l0 1058c0,52 27,99 72,125l884 511c44,26 99,-6 99,-57l0 -1054c0,-53 -28,-102 -74,-129z"/>
       </g>
      </g>
      <g>
       <path class="fil4" d="M2561 3251l-1 0 0 0c0,0 1,0 1,0z"/>
       <path class="fil6" d="M2594 3193l0 -1054c0,-18 -4,-35 -10,-51l205 -118c6,16 10,32 10,49l0 1054c0,25 -13,45 -32,56l0 0 -1 1c0,0 -1,0 -1,1l-204 119c20,-11 33,-32 33,-57z"/>
      </g>
     </g>
     <g>
      <path class="fil40" d="M1749 2006l-108 -62 -1 387 72 41 0 -137 31 18c41,24 74,31 96,22 23,-9 34,-34 35,-76 0,-40 -11,-76 -32,-108 -21,-33 -52,-61 -93,-85zm36 189l0 0c-11,4 -27,-1 -49,-14l-24 -13 0 -115 33 19c19,11 34,24 43,38 9,15 14,31 13,51 0,19 -5,30 -16,34z"/>
      <polygon class="fil41" points="2123,2374 1990,2297 1990,2146 1919,2104 1917,2491 1989,2532 1989,2366 2123,2442 2122,2609 2193,2651 2194,2264 2123,2223 "/>
      <path class="fil42" d="M2461 2448c-21,-32 -52,-60 -93,-84l-107 -62 -2 387 72 41 0 -138 31 18c42,24 74,32 96,23 23,-9 35,-34 35,-76 0,-40 -11,-76 -32,-109zm-57 104l0 0c-11,4 -27,-1 -49,-13l-24 -14 1 -115 32 19c20,11 34,24 43,39 9,14 14,31 14,50 0,19 -6,31 -17,34z"/>
     </g>
     <g>
      <path class="fil5" d="M4071 1537c0,13 -2,21 -6,25 -4,4 -10,3 -19,-2 -6,-3 -12,-8 -19,-14l0 42c7,7 15,13 26,19 12,7 22,10 31,8 10,-1 17,-6 22,-16 5,-10 7,-23 7,-40l1 -252 -42 -24 -1 254z"/>
      <path class="fil5" d="M4188 1545l60 34 12 73 43 24 -56 -293 -57 -33 -57 228 42 25 13 -58zm25 -113l0 0c2,-11 4,-22 6,-31 0,5 2,16 4,32 3,16 4,27 5,31l12 67 -43 -25c9,-38 14,-63 16,-74z"/>
      <path class="fil5" d="M4405 1735l54 -229 -43 -25 -29 142c-4,16 -6,34 -9,54 -2,-27 -5,-48 -7,-63l-30 -176 -42 -24 52 290 54 31z"/>
      <path class="fil5" d="M4496 1788l13 -58 59 34 13 73 42 24 -55 -293 -57 -33 -57 229 42 24zm38 -171l0 0c2,-11 4,-21 5,-31 1,5 2,16 5,32 2,17 4,27 5,31l11 67 -42 -24c9,-39 14,-64 16,-75z"/>
      <polygon class="fil5" points="4453,1878 4133,1693 4133,1710 4453,1895 "/>
      <polygon class="fil5" points="4133,1741 4623,2025 4623,2009 4133,1725 "/>
      <polygon class="fil5" points="4474,1907 4623,1993 4623,1977 4474,1890 "/>
      <polygon class="fil5" points="4453,1941 4133,1756 4133,1772 4453,1957 "/>
      <polygon class="fil5" points="4133,1804 4623,2087 4623,2071 4133,1787 "/>
      <polygon class="fil5" points="4474,1969 4623,2055 4623,2039 4474,1953 "/>
      <polygon class="fil5" points="4453,2030 4133,1845 4133,1862 4453,2047 "/>
      <polygon class="fil5" points="4133,1894 4623,2177 4623,2161 4133,1877 "/>
      <polygon class="fil5" points="4474,2059 4623,2145 4623,2129 4474,2043 "/>
      <polygon class="fil5" points="4453,2093 4133,1908 4133,1924 4453,2109 "/>
      <polygon class="fil5" points="4133,1956 4623,2239 4623,2223 4133,1940 "/>
      <polygon class="fil5" points="4474,2121 4623,2207 4623,2191 4474,2105 "/>
      <polygon class="fil5" points="4453,2183 4133,1998 4133,2014 4453,2199 "/>
      <polygon class="fil5" points="4133,2046 4623,2329 4623,2313 4133,2030 "/>
      <polygon class="fil5" points="4474,2211 4623,2297 4623,2281 4474,2195 "/>
      <polygon class="fil5" points="4453,2245 4133,2060 4133,2076 4453,2261 "/>
      <polygon class="fil5" points="4133,2108 4623,2392 4623,2375 4133,2092 "/>
      <polygon class="fil5" points="4474,2273 4623,2360 4623,2343 4474,2257 "/>
      <polygon class="fil5" points="4453,2335 4133,2150 4133,2166 4453,2351 "/>
      <polygon class="fil5" points="4133,2198 4623,2482 4623,2465 4133,2182 "/>
      <polygon class="fil5" points="4474,2363 4623,2450 4623,2433 4474,2347 "/>
      <polygon class="fil5" points="4453,2397 4133,2212 4133,2228 4453,2413 "/>
      <polygon class="fil5" points="4133,2260 4623,2544 4623,2528 4133,2244 "/>
      <polygon class="fil5" points="4474,2425 4623,2512 4623,2496 4474,2409 "/>
     </g>
    </g>
   </g>
  </g>
 </g>
</svg>
