<?xml version="1.0" encoding="UTF-8"?>
<!DOCTYPE svg PUBLIC "-//W3C//DTD SVG 1.1//EN" "http://www.w3.org/Graphics/SVG/1.1/DTD/svg11.dtd">
<!-- Creator: CorelDRAW X8 -->
<svg xmlns="http://www.w3.org/2000/svg" xml:space="preserve" width="8.5in" height="11in" version="1.1" style="shape-rendering:geometricPrecision; text-rendering:geometricPrecision; image-rendering:optimizeQuality; fill-rule:evenodd; clip-rule:evenodd"
viewBox="0 0 8500 11000"
 xmlns:xlink="http://www.w3.org/1999/xlink">
 <defs>
  <style type="text/css">
   <![CDATA[
    .str0 {stroke:#373435;stroke-width:6.94488}
    .fil1 {fill:none}
    .fil0 {fill:#FEFEFE}
    .fil44 {fill:#FEFEFE;fill-rule:nonzero}
    .fil41 {fill:#373435;fill-rule:nonzero}
    .fil42 {fill:#FDD63F;fill-rule:nonzero}
    .fil43 {fill:#FDD63F;fill-rule:nonzero}
    .fil37 {fill:#F6C32E;fill-rule:nonzero}
    .fil3 {fill:#D7A23A;fill-rule:nonzero}
    .fil10 {fill:#8F6A39;fill-rule:nonzero}
    .fil9 {fill:#0A3B56;fill-rule:nonzero}
    .fil23 {fill:#0F4462;fill-rule:nonzero}
    .fil26 {fill:#1A4D6B;fill-rule:nonzero}
    .fil8 {fill:#1C75BC;fill-rule:nonzero}
    .fil27 {fill:#1F5D77;fill-rule:nonzero}
    .fil22 {fill:#2A87C6;fill-rule:nonzero}
    .fil36 {fill:#3BC642;fill-rule:nonzero}
    .fil30 {fill:#4FE85D;fill-rule:nonzero}
    .fil32 {fill:#7231A3;fill-rule:nonzero}
    .fil35 {fill:#79FF67;fill-rule:nonzero}
    .fil15 {fill:#8344B1;fill-rule:nonzero}
    .fil31 {fill:#9162C1;fill-rule:nonzero}
    .fil20 {fill:#933D31;fill-rule:nonzero}
    .fil21 {fill:#9C4D36;fill-rule:nonzero}
    .fil7 {fill:#A7BCCD;fill-rule:nonzero}
    .fil5 {fill:#BACDE1;fill-rule:nonzero}
    .fil34 {fill:#D83859;fill-rule:nonzero}
    .fil19 {fill:#DFBAB8;fill-rule:nonzero}
    .fil14 {fill:#E8EBF4;fill-rule:nonzero}
    .fil24 {fill:#ED5460;fill-rule:nonzero}
    .fil29 {fill:#EDEFF7;fill-rule:nonzero}
    .fil16 {fill:#EFCDC8;fill-rule:nonzero}
    .fil33 {fill:#F47579;fill-rule:nonzero}
    .fil11 {fill:#F4C4A1;fill-rule:nonzero}
    .fil28 {fill:#F4CF11;fill-rule:nonzero}
    .fil18 {fill:#F4DDD8;fill-rule:nonzero}
    .fil13 {fill:#F9973F;fill-rule:nonzero}
    .fil12 {fill:#FDD4BC;fill-rule:nonzero}
    .fil25 {fill:#FFBC59;fill-rule:nonzero}
    .fil17 {fill:#FFFBEF;fill-rule:nonzero}
    .fil6 {fill:white;fill-rule:nonzero}
    .fil4 {fill:white;fill-rule:nonzero;fill-opacity:0.400000}
    .fil2 {fill:url(#id1);fill-rule:nonzero}
    .fil39 {fill:url(#id2);fill-rule:nonzero}
    .fil40 {fill:url(#id3);fill-rule:nonzero}
    .fil45 {fill:url(#id4);fill-rule:nonzero}
    .fil38 {fill:url(#id5);fill-rule:nonzero}
   ]]>
  </style>
   <clipPath id="id0">
    <path d="M-15750 500l40000 0 0 10000 -40000 0 0 -10000z"/>
   </clipPath>
  <linearGradient id="id1" gradientUnits="userSpaceOnUse" x1="11043.3" y1="10104.8" x2="21801.3" y2="-373.803">
   <stop offset="0" style="stop-opacity:1; stop-color:#FDD63F"/>
   <stop offset="1" style="stop-opacity:1; stop-color:#FFF538"/>
  </linearGradient>
  <linearGradient id="id2" gradientUnits="userSpaceOnUse" x1="10981.5" y1="1781.54" x2="11588.5" y2="4687.69">
   <stop offset="0" style="stop-opacity:1; stop-color:#1C75BC"/>
   <stop offset="0.709804" style="stop-opacity:1; stop-color:#3784BC"/>
   <stop offset="1" style="stop-opacity:1; stop-color:#5293BC"/>
  </linearGradient>
  <linearGradient id="id3" gradientUnits="userSpaceOnUse" xlink:href="#id2" x1="11229.5" y1="1623.44" x2="11882.9" y2="4750.3">
  </linearGradient>
  <linearGradient id="id4" gradientUnits="userSpaceOnUse" xlink:href="#id1" x1="-1979.87" y1="8602.88" x2="-15314.6" y2="15511.1">
  </linearGradient>
  <linearGradient id="id5" gradientUnits="userSpaceOnUse" xlink:href="#id2" x1="10732.5" y1="1763.17" x2="11385.9" y2="4890.5">
  </linearGradient>
 </defs>
 <g id="Layer_x0020_1">
  <metadata id="CorelCorpID_0Corel-Layer"/>
  <g>
  </g>
  <g style="clip-path:url(#id0)">
   <g>
    <rect class="fil0 str0" x="-16605" y="-127" width="42498" height="12030"/>
    <polygon class="fil1" points="-1095,-2026 24319,-2026 24319,13022 -1095,13022 "/>
    <path class="fil2" d="M8341 -2026c0,0 4944,356 1366,2049 -3579,1693 7033,1980 2574,4314 -4459,2335 998,2460 2759,2207 1761,-253 -4514,1846 -4998,3454 -483,1608 3908,2285 6022,1650 2113,-635 -298,-983 150,-1931 449,-949 1919,-2159 4001,-1235 1774,788 3962,743 2536,-1322 -1425,-2063 1568,-940 1568,-940l0 -8246c0,0 -15773,0 -15978,0z"/>
    <path class="fil3" d="M18635 -2026c-1719,527 -3449,1609 -4030,3276 -945,2711 116,4575 1992,4589 1877,14 2626,-1307 1864,-2103 -760,-797 -1601,818 -2275,339 -673,-480 15,-3040 3234,-2784 3218,256 3205,1444 2611,2050 -592,606 -141,1256 1129,1369 988,87 1141,950 1159,1332l0 -8068c0,0 -2589,0 -5684,0z"/>
    <g id="_770101936">
     <g>
      <polygon class="fil4" points="14758,1189 14758,1238 14967,1358 14967,1309 "/>
      <polygon class="fil4" points="14758,1279 14758,1328 14967,1448 14967,1399 "/>
      <polygon class="fil4" points="14758,1370 14758,1419 14967,1538 14967,1489 "/>
      <polygon class="fil4" points="16325,2413 16325,2364 15044,1624 15044,1674 "/>
      <polygon class="fil4" points="14758,1459 14758,1509 14967,1629 14967,1579 "/>
      <polygon class="fil4" points="14758,1550 14758,1599 14967,1719 14967,1670 "/>
      <polygon class="fil4" points="16325,2504 16325,2453 15044,1714 15044,1764 "/>
      <polygon class="fil4" points="14758,1821 14758,1870 14967,1990 14967,1941 "/>
      <polygon class="fil4" points="14758,1911 14758,1960 14967,2080 14967,2031 "/>
      <polygon class="fil4" points="14758,2272 14758,2322 14967,2442 14967,2393 "/>
      <polygon class="fil4" points="14758,2363 14758,2412 14967,2532 14967,2482 "/>
      <g>
       <polygon class="fil4" points="15852,2994 15044,2528 15044,2577 15852,3043 "/>
       <polygon class="fil4" points="15895,3018 15895,3068 16325,3316 16325,3267 "/>
      </g>
      <g>
       <polygon class="fil4" points="15450,2672 15044,2437 15044,2486 15450,2721 "/>
       <polygon class="fil4" points="15492,2696 15492,2746 16325,3225 16325,3176 "/>
      </g>
      <polygon class="fil4" points="16216,2842 16216,2892 16325,2955 16325,2905 "/>
      <polygon class="fil4" points="15620,2408 15044,2076 15044,2125 15620,2457 "/>
      <polygon class="fil4" points="15383,1549 15044,1353 15044,1402 15383,1599 "/>
      <g>
       <polygon class="fil4" points="15941,1870 15427,1574 15427,1623 15941,1921 "/>
      </g>
      <polygon class="fil4" points="15641,1788 15279,1579 15279,1628 15641,1838 "/>
      <g>
       <polygon class="fil4" points="16021,2007 15683,1813 15683,1862 16021,2057 "/>
       <polygon class="fil4" points="16064,2032 16064,2082 16325,2232 16325,2183 "/>
      </g>
      <polygon class="fil4" points="15111,1572 15111,1622 15383,1780 15383,1730 "/>
      <polygon class="fil4" points="16219,2212 15427,1755 15427,1804 16219,2261 "/>
      <polygon class="fil4" points="15766,2221 15247,1923 15247,1972 15766,2270 "/>
      <polygon class="fil4" points="16219,2482 15808,2246 15808,2295 16219,2532 "/>
      <g>
       <polygon class="fil4" points="16174,2727 15662,2432 15662,2482 16174,2777 "/>
      </g>
      <polygon class="fil4" points="15895,2657 15895,2706 16174,2867 16174,2817 "/>
      <polygon class="fil4" points="15144,2224 15044,2166 15044,2216 15144,2273 "/>
      <g>
       <polygon class="fil4" points="15332,2332 15332,2382 15852,2682 15852,2633 "/>
       <polygon class="fil4" points="15289,2308 15186,2249 15186,2298 15289,2357 "/>
      </g>
      <polygon class="fil4" points="15756,2668 15186,2339 15186,2389 15756,2717 "/>
     </g>
    </g>
    <g id="_770098288">
     <g>
      <polygon class="fil4" points="14758,2659 14758,2708 14967,2828 14967,2779 "/>
      <polygon class="fil4" points="14758,2750 14758,2799 14967,2919 14967,2869 "/>
      <polygon class="fil4" points="14758,2839 14758,2889 14967,3008 14967,2959 "/>
      <polygon class="fil4" points="16325,3884 16325,3833 15044,3094 15044,3144 "/>
      <polygon class="fil4" points="14758,2930 14758,2979 14967,3099 14967,3050 "/>
      <polygon class="fil4" points="14758,3020 14758,3069 14967,3190 14967,3140 "/>
      <polygon class="fil4" points="16325,3973 16325,3924 15044,3185 15044,3234 "/>
      <polygon class="fil4" points="14758,3291 14758,3340 14967,3460 14967,3411 "/>
      <polygon class="fil4" points="14758,3382 14758,3431 14967,3551 14967,3502 "/>
      <polygon class="fil4" points="14758,3743 14758,3792 14967,3912 14967,3862 "/>
      <polygon class="fil4" points="14758,3833 14758,3883 14967,4002 14967,3953 "/>
      <g>
       <polygon class="fil4" points="15852,4464 15044,3998 15044,4047 15852,4514 "/>
       <polygon class="fil4" points="15895,4489 15895,4538 16325,4786 16325,4737 "/>
      </g>
      <g>
       <polygon class="fil4" points="15450,4141 15044,3907 15044,3957 15450,4192 "/>
       <polygon class="fil4" points="15492,4166 15492,4216 16325,4696 16325,4647 "/>
      </g>
      <polygon class="fil4" points="16216,4312 16216,4362 16325,4425 16325,4376 "/>
      <polygon class="fil4" points="15620,3878 15044,3546 15044,3595 15620,3928 "/>
      <polygon class="fil4" points="15383,3020 15044,2824 15044,2873 15383,3069 "/>
      <g>
       <polygon class="fil4" points="15941,3341 15427,3044 15427,3093 15941,3390 "/>
      </g>
      <polygon class="fil4" points="15641,3258 15279,3050 15279,3099 15641,3308 "/>
      <g>
       <polygon class="fil4" points="16021,3477 15683,3283 15683,3333 16021,3528 "/>
       <polygon class="fil4" points="16064,3502 16064,3552 16325,3702 16325,3653 "/>
      </g>
      <polygon class="fil4" points="15111,3043 15111,3092 15383,3250 15383,3200 "/>
      <polygon class="fil4" points="16219,3682 15427,3224 15427,3275 16219,3731 "/>
      <polygon class="fil4" points="15766,3692 15247,3392 15247,3442 15766,3741 "/>
      <polygon class="fil4" points="16219,3953 15808,3716 15808,3765 16219,4002 "/>
      <g>
       <polygon class="fil4" points="16174,4197 15662,3903 15662,3952 16174,4247 "/>
      </g>
      <polygon class="fil4" points="15895,4128 15895,4177 16174,4337 16174,4288 "/>
      <polygon class="fil4" points="15144,3695 15044,3637 15044,3686 15144,3744 "/>
      <g>
       <polygon class="fil4" points="15332,3803 15332,3852 15852,4152 15852,4103 "/>
       <polygon class="fil4" points="15289,3778 15186,3719 15186,3768 15289,3828 "/>
      </g>
      <polygon class="fil4" points="15756,4137 15186,3809 15186,3859 15756,4187 "/>
     </g>
    </g>
    <g id="_770096296">
     <g>
      <polygon class="fil5" points="13180,6510 14084,5987 14084,6114 13180,6635 "/>
      <polygon class="fil6" points="13262,5514 14084,5987 13180,6510 12357,6036 "/>
      <polygon class="fil7" points="12357,6036 13180,6510 13180,6635 12357,6159 "/>
     </g>
     <g>
      <polygon class="fil5" points="12281,5000 13186,4477 13363,5574 12459,6095 "/>
      <polygon class="fil6" points="13085,4419 13186,4477 12281,5000 12180,4941 "/>
      <polygon class="fil7" points="12180,4941 12281,5000 12459,6095 12357,6036 "/>
     </g>
    </g>
    <path class="fil8" d="M12707 5978l66 -110 235 91c0,0 -134,288 -235,233 -102,-55 -66,-214 -66,-214z"/>
    <path class="fil9" d="M12847 4419l450 15 174 73c0,0 23,189 60,462 38,274 -22,995 -22,995 -170,85 -827,80 -827,80 -42,-346 -87,-1451 -87,-1451l252 -174z"/>
    <path class="fil10" d="M13182 4430l157 134c68,397 61,1173 55,1502 -58,9 -122,15 -189,19 -15,-824 -288,-1608 -309,-1665l286 10z"/>
    <polygon class="fil8" points="13229,4613 13373,4672 13317,4434 13242,4383 "/>
    <polygon class="fil11" points="12917,4316 13264,4370 13229,4613 12895,4417 "/>
    <path class="fil12" d="M12834 4092c0,188 138,342 307,342 169,0 272,-154 272,-342 0,-189 -103,-342 -272,-342 -169,0 -307,153 -307,342z"/>
    <polygon class="fil8" points="12888,4366 13229,4613 13080,4760 12847,4419 "/>
    <path class="fil13" d="M12779 3916c0,0 82,-230 345,-230 0,0 318,-1 345,406 1,18 -19,30 -34,21 -37,-21 -97,-52 -158,-67l16 27c0,0 5,16 -29,14l-164 -39c0,0 -14,84 -123,139 0,0 -12,142 -63,165 0,0 -204,-155 -135,-436z"/>
    <g id="_770094712">
     <path class="fil14" d="M20034 7695l-2086 -1211c-89,-51 -198,-51 -286,0l-3286 1901c-84,48 -84,169 -1,217l2040 1184c105,61 235,62 340,1l3278 -1897c76,-44 76,-152 1,-195z"/>
     <path class="fil7" d="M20033 7890l-3278 1897c-105,61 -235,60 -340,-1l-2040 -1184c-42,-24 -62,-65 -63,-108l0 156c0,0 0,0 0,1l0 2 1 0c1,42 21,82 62,106l2040 1185c105,60 235,60 340,0l3278 -1897c39,-22 57,-60 57,-98l0 0 0 -156c0,38 -19,76 -57,97z"/>
     <path class="fil5" d="M20033 7890l-3278 1897c-48,28 -102,42 -156,45l0 157c54,-3 108,-17 156,-45l3278 -1897c39,-22 57,-60 57,-98l0 0 0 -156c0,38 -19,76 -57,97z"/>
    </g>
    <g id="_372203736">
     <polygon class="fil15" points="17547,7126 18485,7658 19084,7312 18145,6780 "/>
     <g>
      <polygon class="fil16" points="18302,7645 18302,7666 17363,7128 17363,7114 "/>
      <polygon class="fil17" points="17363,7114 18302,7645 18899,7299 17961,6767 "/>
      <polygon class="fil18" points="18302,7645 18302,7666 18899,7320 18899,7299 "/>
     </g>
     <polygon class="fil19" points="17968,6824 17606,7033 17622,7042 17983,6833 "/>
     <polygon class="fil19" points="18006,6846 17644,7054 17660,7063 18021,6854 "/>
     <polygon class="fil19" points="18092,6895 17595,7182 17611,7191 18109,6905 "/>
     <polygon class="fil19" points="18127,6915 17629,7202 17646,7210 18143,6924 "/>
     <polygon class="fil19" points="18162,6934 17664,7221 17679,7231 18177,6943 "/>
     <polygon class="fil19" points="18196,6954 17699,7241 17714,7250 18212,6962 "/>
     <polygon class="fil19" points="18230,6973 17732,7261 17749,7269 18246,6983 "/>
     <polygon class="fil19" points="18265,6993 17767,7280 17784,7289 18281,7002 "/>
     <polygon class="fil19" points="18299,7013 17802,7299 17817,7309 18315,7021 "/>
     <polygon class="fil19" points="18334,7032 17836,7320 17852,7328 18349,7041 "/>
     <polygon class="fil19" points="18368,7051 17870,7339 17887,7348 18384,7061 "/>
     <polygon class="fil19" points="18402,7071 17905,7358 17921,7367 18419,7080 "/>
     <polygon class="fil19" points="18437,7091 17940,7377 17955,7387 18452,7099 "/>
     <polygon class="fil19" points="18472,7110 17974,7398 17990,7406 18487,7119 "/>
     <polygon class="fil19" points="18506,7129 18009,7417 18024,7426 18522,7139 "/>
     <polygon class="fil19" points="18540,7150 18043,7436 18059,7445 18556,7158 "/>
     <polygon class="fil19" points="18575,7169 18077,7456 18093,7465 18590,7178 "/>
    </g>
    <path class="fil6" d="M18624 8087l-893 -517c-25,-14 -55,-14 -81,0l-1296 748c-23,14 -23,48 0,61l880 509c29,17 66,17 95,1l1295 -748c21,-12 21,-43 0,-54z"/>
    <path class="fil5" d="M18624 8141l-1295 748c-29,16 -66,16 -95,-1l-880 -509c-11,-7 -17,-18 -17,-30l0 62c0,0 0,0 0,0l0 1 0 0c0,12 6,23 17,30l880 509c29,17 66,17 95,0l1295 -747c11,-6 16,-17 16,-28l0 0 0 -62c0,10 -5,21 -16,27z"/>
    <path class="fil6" d="M16300 7131l1328 -765c8,-5 18,-5 26,1l0 0 34 18 -26 37 -11 12 0 1059c0,16 -7,29 -21,38l-1261 728 -2 10 -41 57 -37 -22c0,0 -1,0 -1,0l0 -1 0 0c-6,-3 -10,-9 -10,-16l0 -1116c0,-17 9,-31 22,-40z"/>
    <path class="fil5" d="M16338 7154l1331 -769c13,-7 30,2 30,18l0 1116c0,17 -9,30 -22,38l-1331 768c-14,8 -30,-2 -30,-17l0 -1116c0,-16 8,-31 22,-38z"/>
    <polygon class="fil3" points="16359,7221 17666,6462 17666,7459 16359,8216 "/>
    <polygon class="fil5" points="17759,7697 17693,7659 17618,7702 17683,7740 "/>
    <polygon class="fil5" points="17665,7751 17599,7712 17525,7756 17591,7793 "/>
    <polygon class="fil5" points="17572,7804 17506,7766 17431,7809 17497,7847 "/>
    <polygon class="fil5" points="17479,7858 17413,7819 17338,7863 17403,7901 "/>
    <polygon class="fil5" points="17385,7911 17319,7873 17245,7917 17311,7955 "/>
    <polygon class="fil5" points="17292,7965 17227,7928 17151,7970 17217,8009 "/>
    <polygon class="fil5" points="17199,8019 17133,7981 17059,8024 17124,8062 "/>
    <polygon class="fil5" points="17106,8072 17040,8035 16965,8077 17031,8116 "/>
    <polygon class="fil5" points="17012,8126 16947,8088 16872,8131 16937,8169 "/>
    <polygon class="fil5" points="16919,8179 16853,8142 16779,8185 16845,8223 "/>
    <polygon class="fil5" points="16826,8233 16761,8196 16685,8238 16751,8277 "/>
    <polygon class="fil5" points="16733,8288 16667,8249 16593,8292 16658,8330 "/>
    <polygon class="fil5" points="16573,8303 16499,8345 16565,8384 16640,8341 "/>
    <polygon class="fil5" points="17768,7790 17843,7746 17778,7708 17703,7751 "/>
    <polygon class="fil5" points="17610,7805 17676,7843 17750,7800 17684,7762 "/>
    <polygon class="fil5" points="17516,7858 17582,7897 17657,7853 17592,7816 "/>
    <polygon class="fil5" points="17424,7912 17489,7950 17564,7907 17498,7869 "/>
    <polygon class="fil5" points="17330,7966 17396,8004 17471,7961 17404,7923 "/>
    <polygon class="fil5" points="17236,8019 17302,8058 17377,8014 17312,7977 "/>
    <polygon class="fil5" points="17144,8073 17209,8111 17284,8068 17218,8030 "/>
    <polygon class="fil5" points="17050,8126 17116,8165 17191,8122 17125,8084 "/>
    <polygon class="fil5" points="16957,8180 17023,8218 17097,8176 17032,8137 "/>
    <polygon class="fil5" points="16864,8234 16929,8272 17005,8230 16938,8191 "/>
    <polygon class="fil5" points="16770,8288 16836,8326 16911,8283 16846,8245 "/>
    <polygon class="fil5" points="16678,8342 16743,8379 16818,8337 16752,8298 "/>
    <polygon class="fil5" points="16659,8352 16584,8395 16650,8433 16725,8390 "/>
    <polygon class="fil5" points="17853,7839 17928,7795 17863,7758 17788,7800 "/>
    <polygon class="fil5" points="17695,7854 17760,7892 17836,7849 17769,7811 "/>
    <polygon class="fil5" points="17742,7902 17677,7865 17601,7908 17667,7946 "/>
    <polygon class="fil5" points="17509,7961 17574,8000 17649,7956 17583,7918 "/>
    <polygon class="fil5" points="17415,8015 17481,8053 17556,8011 17490,7972 "/>
    <polygon class="fil5" points="17322,8068 17387,8107 17462,8064 17397,8026 "/>
    <polygon class="fil5" points="17229,8122 17294,8160 17370,8118 17303,8079 "/>
    <polygon class="fil5" points="17135,8177 17201,8214 17276,8171 17210,8133 "/>
    <polygon class="fil5" points="17042,8230 17108,8268 17182,8225 17117,8186 "/>
    <polygon class="fil5" points="16949,8284 17014,8321 17090,8279 17024,8240 "/>
    <polygon class="fil5" points="16856,8337 16922,8375 16996,8332 16930,8294 "/>
    <polygon class="fil5" points="16903,8386 16837,8347 16763,8391 16828,8428 "/>
    <polygon class="fil5" points="16744,8401 16669,8445 16735,8482 16810,8439 "/>
    <polygon class="fil5" points="17939,7888 18013,7845 17948,7807 17873,7849 "/>
    <polygon class="fil5" points="17921,7899 17855,7860 17780,7903 17845,7941 "/>
    <polygon class="fil5" points="17827,7952 17761,7914 17687,7957 17752,7995 "/>
    <polygon class="fil5" points="17733,8006 17668,7968 17593,8011 17659,8049 "/>
    <polygon class="fil5" points="17641,8060 17575,8021 17500,8065 17566,8102 "/>
    <polygon class="fil5" points="17547,8113 17482,8075 17407,8118 17473,8156 "/>
    <polygon class="fil5" points="17455,8167 17389,8128 17314,8172 17379,8209 "/>
    <polygon class="fil5" points="17361,8220 17295,8182 17221,8226 17286,8263 "/>
    <polygon class="fil5" points="17268,8274 17202,8236 17127,8279 17193,8317 "/>
    <polygon class="fil5" points="17175,8328 17109,8289 17034,8333 17099,8371 "/>
    <polygon class="fil5" points="17081,8381 17015,8344 16941,8386 17007,8425 "/>
    <polygon class="fil5" points="16988,8435 16923,8397 16847,8440 16913,8478 "/>
    <polygon class="fil5" points="16829,8451 16755,8494 16820,8532 16895,8489 "/>
    <polygon class="fil5" points="18024,7937 18098,7894 18033,7856 17958,7899 "/>
    <polygon class="fil5" points="18006,7948 17940,7909 17865,7953 17930,7990 "/>
    <polygon class="fil5" points="17912,8002 17846,7963 17772,8007 17838,8044 "/>
    <polygon class="fil5" points="17819,8055 17754,8017 17678,8060 17744,8098 "/>
    <polygon class="fil5" points="17726,8109 17660,8070 17585,8114 17650,8151 "/>
    <polygon class="fil5" points="17632,8162 17566,8124 17492,8167 17558,8205 "/>
    <polygon class="fil5" points="17539,8216 17474,8178 17399,8221 17464,8259 "/>
    <polygon class="fil5" points="17446,8270 17380,8232 17306,8275 17372,8313 "/>
    <polygon class="fil5" points="17353,8323 17288,8286 17212,8328 17278,8367 "/>
    <polygon class="fil5" points="17260,8377 17194,8339 17120,8382 17184,8420 "/>
    <polygon class="fil5" points="17167,8430 17100,8393 17026,8435 17092,8474 "/>
    <polygon class="fil5" points="17073,8484 17008,8446 16932,8489 16998,8528 "/>
    <polygon class="fil5" points="16914,8500 16840,8543 16905,8581 16980,8538 "/>
    <polygon class="fil5" points="18118,7905 18043,7949 18109,7986 18184,7943 "/>
    <polygon class="fil5" points="17950,8002 18015,8040 18091,7997 18025,7958 "/>
    <polygon class="fil5" points="17857,8056 17923,8094 17997,8051 17931,8012 "/>
    <polygon class="fil5" points="17763,8109 17829,8148 17904,8104 17839,8067 "/>
    <polygon class="fil5" points="17671,8163 17736,8201 17811,8158 17745,8120 "/>
    <polygon class="fil5" points="17577,8217 17643,8255 17718,8211 17651,8174 "/>
    <polygon class="fil5" points="17559,8227 17465,8281 17465,8281 17447,8291 17372,8335 17372,8335 17334,8356 17279,8388 17279,8388 17220,8422 17111,8485 17177,8523 17290,8457 17344,8427 17344,8427 17401,8394 17438,8372 17438,8372 17511,8330 17531,8319 17531,8319 17624,8265 "/>
    <polygon class="fil5" points="17017,8538 17083,8577 17158,8534 17093,8496 "/>
    <polygon class="fil5" points="16925,8593 16990,8630 17065,8588 16999,8549 "/>
    <path class="fil5" d="M18089 8352l-235 -135c-6,-4 -13,-4 -20,0l-325 187c-6,4 -6,13 0,16l231 133c7,5 17,5 23,0l326 -187c4,-3 4,-11 0,-14z"/>
    <g id="_606128792">
     <g>
      <polygon class="fil7" points="14780,9893 14780,9805 14779,9886 14780,9974 "/>
      <polygon class="fil7" points="15586,9998 15480,10059 15480,10141 15586,10079 "/>
      <polygon class="fil7" points="14344,10059 14237,9998 14237,10079 14344,10141 "/>
      <path class="fil7" d="M14572 10341c1,-3 2,-5 3,-8 1,-4 1,-8 3,-11 0,-3 1,-6 2,-9 2,-3 4,-6 6,-10 1,-2 3,-5 4,-8 3,-4 6,-8 9,-12 1,-2 3,-4 5,-6 4,-6 9,-11 14,-16 2,-2 4,-4 6,-6 4,-2 8,-5 10,-8 4,-3 7,-6 10,-8 4,-3 9,-6 13,-9 4,-3 8,-5 12,-7 11,-6 21,-12 33,-17 3,-2 7,-3 10,-5 8,-3 18,-6 27,-9 3,-1 6,-3 9,-4 6,-2 12,-3 19,-5 4,-1 8,-3 13,-4 6,-1 13,-2 19,-4 4,-1 8,-2 13,-3 13,-2 25,-3 39,-4 3,-1 7,-1 12,-1 8,-1 16,-2 23,-2 5,0 10,0 15,0 6,0 12,0 18,0 6,0 11,0 17,0 5,0 11,1 17,1 5,0 11,1 15,1 6,1 12,2 18,2 5,1 10,1 15,2 6,1 12,2 19,3 4,1 8,2 13,3 8,2 15,3 21,5 4,1 9,2 13,4 12,3 24,8 36,12 6,2 12,4 18,7 3,1 6,3 9,4 8,4 17,9 25,14 67,38 101,89 101,141l0 -82c0,-51 -34,-102 -101,-140 -8,-5 -17,-10 -25,-14 -3,-1 -6,-3 -9,-4 -5,-2 -11,-5 -16,-7 -1,0 -1,0 -2,-1 -11,-3 -24,-8 -36,-12 -1,0 -2,0 -3,-1 -3,0 -6,-1 -9,-2 -7,-2 -14,-4 -21,-5 -2,-1 -4,-1 -6,-2 -3,0 -6,-1 -8,-1 -6,-1 -13,-2 -19,-3 -3,-1 -5,-1 -8,-2 -1,0 -4,0 -7,-1 -6,0 -12,0 -18,-1 -2,0 -4,0 -7,-1 -3,0 -5,0 -8,0 -6,0 -12,-1 -17,-1 -3,0 -6,0 -9,-1 -2,0 -5,1 -7,1 -7,-1 -12,-1 -19,0 -3,0 -6,0 -9,0 -2,0 -4,0 -6,0 -7,0 -15,1 -23,2 -3,0 -7,0 -9,0 -1,0 -2,1 -3,1 -13,0 -26,2 -39,4 -1,0 -2,0 -2,1 -4,0 -8,1 -11,2 -6,1 -13,3 -19,4 -5,1 -9,3 -13,4 -6,2 -12,3 -19,5 -1,1 -2,1 -3,1 -2,1 -4,2 -6,3 -9,3 -19,5 -27,9 -3,2 -6,3 -10,5 -11,5 -22,10 -32,17 -2,0 -3,0 -5,1 -3,2 -5,4 -8,6 -4,3 -9,6 -13,9 -3,2 -6,5 -9,8 -3,3 -7,5 -10,8 -1,0 -2,1 -3,1 -1,2 -2,3 -3,4 -6,6 -11,11 -14,17 -1,1 -3,2 -4,2 -1,1 -1,3 -2,4 -3,4 -6,8 -8,12 -2,2 -3,4 -4,5 0,1 -1,2 -1,3 -2,3 -4,6 -5,10 -1,2 -3,4 -3,7 0,0 0,1 0,2 -1,3 -2,7 -3,10 -1,2 -2,4 -2,7 0,0 0,1 0,1 -1,4 -1,8 -2,12 0,2 0,5 0,7 -1,1 -1,2 -1,3l0 81c0,-3 1,-7 1,-10 0,-4 1,-8 1,-11z"/>
      <path class="fil7" d="M15586 10357c-2,6 -4,10 -6,15 -1,3 -3,6 -4,10 -2,3 -2,6 -4,9 -1,3 -3,6 -5,10 -2,3 -3,6 -5,9 -2,4 -5,8 -7,11 -2,3 -4,5 -6,8 -3,4 -5,8 -8,12 -2,3 -4,5 -6,7 -5,7 -11,14 -17,22 -1,1 -2,1 -3,2 -6,6 -12,12 -18,18 -5,4 -9,9 -15,13l0 82c5,-4 9,-8 12,-12 1,0 2,-1 3,-2 6,-6 12,-12 18,-17 1,-1 2,-2 3,-3 5,-7 11,-15 17,-21 1,-1 1,-1 2,-2 1,-2 3,-4 4,-6 3,-4 5,-8 8,-12 2,-2 4,-5 5,-8 3,-3 5,-7 8,-11 0,-1 1,-2 2,-4 1,-2 2,-3 3,-5 2,-4 3,-7 5,-9 2,-4 2,-7 4,-10 1,-3 2,-7 4,-10 0,-2 1,-3 2,-5 1,-2 2,-6 3,-9l152 0 1 -82 -152 0z"/>
      <path class="fil7" d="M14347 10585l0 -82c-53,-45 -88,-94 -105,-146l-152 0 -1 82 152 0c17,51 53,100 106,146z"/>
      <path class="fil7" d="M15297 10611c-17,6 -36,13 -55,19 -10,3 -22,6 -32,9 -10,2 -20,5 -30,8 -11,3 -22,5 -33,7 -11,3 -21,5 -31,7 -23,4 -46,7 -70,9l0 82c24,-2 47,-6 69,-10 1,0 3,0 4,0 10,-2 18,-5 28,-7 11,-2 22,-4 33,-7 9,-2 20,-5 30,-7 10,-4 21,-6 32,-10 0,0 2,0 3,-1 18,-6 36,-12 52,-18l108 61 184 -107 1 -81 -184 107 -109 -61z"/>
      <path class="fil7" d="M14785 10670c-16,-1 -33,-3 -49,-6 -12,-2 -23,-4 -35,-6 -10,-2 -20,-4 -30,-6 -13,-3 -27,-7 -40,-11 -11,-2 -22,-4 -32,-8 -4,-1 -9,-3 -14,-4 -18,-6 -35,-12 -53,-18 0,0 0,0 0,0l-107 61 -185 -107 0 81 185 107 107 -61c18,6 35,12 53,18 5,2 9,3 14,5 5,1 9,3 13,4 6,2 13,3 19,4 13,3 27,7 40,10 4,1 9,2 13,3 5,1 11,2 17,3 12,2 23,4 35,6 5,1 10,2 15,3 11,2 22,3 33,4 0,0 0,0 0,0l1 87 262 0 0 -81 -262 0 0 -88z"/>
     </g>
     <g>
      <path class="fil6" d="M15406 10672l-109 -61c-77,29 -163,50 -251,59l1 88 -262 0 0 -88c-89,-9 -176,-30 -253,-59l-107 61 -185 -107 107 -62c-53,-45 -88,-94 -105,-146l-152 0 -1 -151 152 0c16,-52 51,-101 103,-147l-107 -61 184 -107 107 61c77,-30 163,-50 252,-59l0 -88 261 0 1 88c89,9 174,29 253,59l106 -61 185 107 -106 61c52,46 88,95 105,147l152 0 1 151 -152 0c-17,52 -52,101 -104,146l108 62 -184 107zm-735 -250l0 0c135,78 351,78 486,-1 133,-77 132,-202 -2,-279 -135,-79 -352,-79 -485,0 -134,77 -133,202 1,280z"/>
     </g>
    </g>
    <g id="_606127976">
     <g>
      <polygon class="fil7" points="13411,9731 13411,9660 13411,9727 13411,9798 "/>
      <polygon class="fil7" points="14070,9818 13982,9868 13982,9935 14070,9884 "/>
      <polygon class="fil7" points="13055,9868 12967,9818 12967,9884 13055,9935 "/>
      <path class="fil7" d="M13241 10098c1,-2 1,-5 2,-7 1,-3 1,-5 3,-8 0,-2 1,-5 3,-7 0,-3 1,-6 3,-9 1,-2 2,-4 4,-6 2,-3 4,-6 6,-10 2,-1 4,-3 5,-5 4,-5 8,-9 11,-14 2,0 4,-2 5,-3 3,-3 6,-5 9,-8 3,-2 5,-4 8,-6 4,-2 6,-5 10,-7 3,-2 7,-4 11,-6 8,-5 17,-10 26,-14 3,-1 6,-2 8,-4 7,-3 14,-6 22,-8 3,0 6,-1 9,-2 3,-2 8,-3 13,-4 4,-1 8,-2 12,-3 4,-2 10,-3 15,-4 4,-1 7,-1 11,-2 10,-2 21,-3 32,-5 2,0 6,0 9,0 7,-1 13,-2 20,-2 3,0 7,0 11,0 6,0 11,0 16,0 4,0 8,0 13,0 5,0 9,1 14,1 4,0 8,1 13,1 5,1 9,1 14,2 4,0 8,1 12,2 5,0 11,1 16,2 3,1 7,2 11,3 6,1 12,2 18,4 2,1 5,2 9,3 10,3 20,5 30,9 5,2 10,4 14,6 3,2 4,3 7,4 7,3 14,7 21,11 55,31 83,73 83,114l0 -65c0,-43 -27,-84 -83,-116 -6,-4 -14,-8 -21,-11 -2,-1 -4,-2 -6,-3 -5,-1 -9,-3 -13,-5 -1,0 -2,0 -2,0 -10,-4 -20,-8 -30,-11 -1,0 -2,-1 -3,-1 -2,-1 -5,-1 -6,-2 -6,-1 -12,-3 -18,-4 -2,0 -3,-1 -5,-1 -2,-1 -4,-1 -6,-2 -5,-1 -10,-1 -16,-2 -2,0 -4,0 -6,0 -2,-1 -4,-1 -6,-1 -4,-1 -9,-1 -14,-2 -2,0 -5,0 -7,0 -2,-1 -4,-1 -5,-1 -5,0 -10,0 -15,-1 -3,0 -5,0 -8,0 -2,0 -3,0 -4,0 -6,0 -11,0 -16,0 -3,0 -6,0 -8,0 -2,0 -3,0 -4,0 -7,1 -13,1 -20,2 -2,0 -5,0 -7,0 0,0 -1,1 -2,1 -11,1 -22,2 -32,3 0,0 -1,0 -2,0 -3,1 -6,2 -9,2 -5,2 -11,3 -15,4 -4,1 -7,2 -11,3 -5,1 -10,3 -14,4 -1,1 -2,1 -3,1 -2,1 -4,1 -6,2 -7,3 -15,6 -21,9 -3,1 -6,2 -9,2 -9,5 -17,9 -26,14 -1,1 -2,2 -4,2 -2,2 -5,4 -7,5 -4,2 -6,5 -10,7 -2,1 -5,3 -8,6 -3,2 -6,4 -9,7 0,0 -1,1 -1,1 -1,1 -2,3 -3,4 -4,4 -8,8 -12,12 0,1 -2,2 -2,3 -1,1 -2,2 -2,3 -3,3 -5,6 -7,10 -1,1 -2,3 -3,4 0,1 -1,2 -1,2 -2,3 -3,5 -3,8 -1,2 -2,4 -3,6 0,0 0,1 0,1 -1,3 -2,6 -3,9 0,2 -1,4 -1,6 -1,0 -1,1 -1,1 0,3 0,6 -1,9 0,2 0,4 0,6 0,0 0,1 0,2l-1 66c0,-2 1,-5 1,-8 0,-3 1,-6 1,-9z"/>
      <path class="fil7" d="M14069 10112c-1,3 -3,7 -4,11 -1,3 -3,6 -4,9 -1,2 -2,5 -4,8 -1,2 -2,4 -4,7 -1,2 -2,5 -3,8 -2,3 -4,6 -6,9 -1,2 -3,5 -5,6 -2,3 -4,7 -7,10 -1,2 -3,4 -4,6 -4,6 -9,12 -15,17 0,1 -1,1 -2,2 -5,5 -10,10 -15,15 -3,4 -7,7 -11,11l-1 66c4,-3 7,-6 11,-9 1,-1 1,-1 1,-2 5,-5 10,-9 15,-14 1,-1 2,-2 2,-2 6,-6 11,-12 14,-17 1,-1 1,-1 2,-2 1,-1 2,-3 3,-4 3,-4 5,-7 7,-10 2,-2 3,-5 5,-7 2,-3 4,-6 6,-9 0,-1 1,-2 2,-3 0,-1 0,-3 1,-4 1,-3 3,-6 4,-9 2,-2 3,-5 4,-7 1,-2 2,-5 3,-8 1,-1 2,-2 2,-4 1,-2 2,-5 3,-8l123 0 0 -66 -123 0z"/>
      <path class="fil7" d="M13056 10297l0 -66c-42,-36 -71,-77 -85,-119l-124 0 0 66 124 0c14,42 42,82 85,119z"/>
      <path class="fil7" d="M13834 10318c-15,6 -31,12 -46,17 -9,2 -17,4 -26,7 -8,2 -16,4 -24,7 -10,2 -18,4 -28,6 -8,1 -17,3 -25,5 -19,3 -38,5 -57,8l0 66c19,-2 38,-5 57,-8 1,0 2,-1 3,-1 7,-1 15,-3 22,-5 10,-1 18,-2 27,-5 9,-2 16,-4 25,-7 9,-2 17,-5 26,-7 1,-1 2,-1 3,-1 14,-5 29,-9 42,-15l88 51 151 -88 1 -67 -152 88 -87 -51z"/>
      <path class="fil7" d="M13415 10368c-14,-2 -27,-4 -40,-5 -10,-2 -19,-4 -29,-5 -8,-2 -16,-4 -24,-6 -12,-2 -22,-5 -33,-8 -9,-2 -17,-5 -26,-7 -4,-1 -8,-2 -12,-3 -14,-5 -29,-10 -43,-16 0,0 0,0 0,0l-87 51 -151 -88 0 67 151 88 87 -51c14,6 29,10 43,15 4,1 8,2 12,3 4,2 8,3 12,4 3,1 9,2 13,4 12,3 22,6 34,8 4,0 7,1 10,2 5,1 9,1 14,2 10,2 19,4 29,5 4,1 8,2 13,3 8,1 17,2 27,3 0,0 0,0 0,0l0 72 214 0 0 -66 -214 0 0 -72z"/>
     </g>
     <g>
      <path class="fil6" d="M13921 10369l-87 -51c-63,25 -134,42 -206,50l1 72 -214 0 0 -72c-73,-8 -143,-25 -207,-50l-87 51 -151 -88 86 -50c-42,-36 -71,-77 -85,-119l-124 0 -1 -124 124 0c14,-42 42,-83 85,-120l-88 -50 150 -88 88 52c64,-26 133,-42 206,-51l0 -71 213 0 1 71c72,9 143,25 205,51l88 -52 152 88 -88 50c43,37 72,78 87,120l123 0 0 124 -123 0c-14,42 -42,83 -84,119l88 50 -152 88zm-599 -204l0 0c110,63 287,62 397,0 109,-64 108,-166 -2,-230 -109,-64 -287,-64 -396,0 -109,64 -108,166 1,230z"/>
     </g>
    </g>
    <path class="fil20" d="M18187 10590c131,2 89,-98 89,-98 195,-60 290,-26 290,-26 50,172 30,276 32,317 0,21 -14,33 -34,41 -105,38 -200,65 -396,46 -144,-14 -297,-147 -262,-285 21,-84 148,4 281,5z"/>
    <path class="fil8" d="M18243 9353c39,-49 105,-93 214,-64l1178 227 -45 303c0,0 -180,238 -496,147 -315,-90 -520,-238 -520,-238l40 834c0,0 -185,58 -349,-41 -28,-18 -53,-821 -62,-1028 -1,-57 5,-95 40,-140z"/>
    <path class="fil21" d="M17622 10832c137,2 92,-103 92,-103 203,-61 302,-27 302,-27 51,179 31,287 33,330 1,22 -15,34 -35,42 -109,40 -208,67 -412,48 -149,-14 -308,-153 -271,-295 22,-89 152,4 291,5z"/>
    <g id="_606123608">
     <polygon class="fil5" points="18959,10501 19970,9917 19970,10059 18959,10640 "/>
     <polygon class="fil6" points="19052,9389 19970,9917 18959,10501 18040,9972 "/>
     <polygon class="fil7" points="18040,9972 18959,10501 18959,10640 18040,10109 "/>
    </g>
    <path class="fil22" d="M17680 9547c41,-52 109,-96 223,-67l1222 237 -46 314c0,0 -187,246 -515,153 -327,-94 -540,-247 -540,-247l41 866c0,0 -192,59 -361,-44 -29,-17 -56,-852 -65,-1066 -2,-59 6,-99 41,-146z"/>
    <path class="fil12" d="M18647 7693c21,205 172,358 339,342 166,-17 285,-196 265,-402 -21,-205 -172,-358 -338,-341 -167,16 -286,195 -266,401z"/>
    <path class="fil11" d="M18399 8171c0,0 -72,17 -97,20 -25,2 -121,22 -159,11 -39,-13 33,-38 52,-52 17,-13 17,-47 -22,-58 -40,-12 -129,-6 -175,-13 -47,-7 46,-150 122,-162 78,-14 142,-5 210,28 66,32 101,87 131,97l-62 129z"/>
    <path class="fil23" d="M18391 7977l495 124 25 315 -585 -201c-12,-111 65,-238 65,-238z"/>
    <path class="fil23" d="M19612 8110c0,0 136,173 0,410 0,0 -97,132 -359,3l359 -413z"/>
    <path class="fil9" d="M19205 7908c0,0 -213,-14 -380,104 0,0 -13,34 -46,56 -33,23 -199,89 -199,89 0,0 73,975 -12,1449 0,0 361,282 925,0 0,0 82,-1196 119,-1496 0,0 -95,-116 -407,-202z"/>
    <g id="_606121760">
     <polygon class="fil5" points="19300,9517 20309,8933 19970,9918 18959,10501 "/>
     <polygon class="fil6" points="20198,8869 20309,8933 19300,9517 19187,9451 "/>
     <polygon class="fil7" points="19187,9451 19300,9517 18959,10501 18845,10435 "/>
    </g>
    <path class="fil11" d="M17733 8602c0,0 -55,-55 -76,-71 -21,-16 -94,-86 -137,-95 -41,-9 30,63 39,85 8,23 -43,-17 -82,-33 -40,-14 -84,-11 -133,5 -95,34 -90,226 -12,203 128,-37 186,64 263,87 54,14 76,13 109,19l29 -200z"/>
    <path class="fil23" d="M18580 8157l-418 554 -434 -128c0,0 -93,118 -63,242l579 225 471 -518c0,0 157,-328 -135,-375z"/>
    <path class="fil23" d="M18822 7123c0,0 -32,77 122,97 153,21 343,98 393,260 32,104 -4,215 -56,306 -19,31 -38,61 -61,88 0,0 -104,27 -227,-39 0,0 -76,-50 -123,-149 0,0 -90,39 -119,-37 -22,-56 -87,-71 -124,-101 0,0 -207,-339 195,-425z"/>
    <g id="_606118208">
     <path class="fil7" d="M16625 8859l-79 0 0 85 79 0c29,0 53,23 53,52l0 138c0,29 -24,53 -53,53l-115 0 0 84 115 0c76,0 138,-62 138,-137l0 -138c0,-75 -62,-137 -138,-137z"/>
     <path class="fil5" d="M16596 8812l0 476c0,74 -110,134 -247,134 -135,0 -245,-60 -245,-134l0 -476 492 0z"/>
     <path class="fil6" d="M16104 8812c0,74 110,134 245,134 137,0 247,-60 247,-134 0,-74 -110,-134 -247,-134 -135,0 -245,60 -245,134z"/>
     <path class="fil7" d="M16153 8811c0,58 88,104 196,104 110,0 197,-46 197,-104 0,-58 -87,-106 -197,-106 -108,0 -196,48 -196,106z"/>
     <path class="fil21" d="M16349 8774c-85,0 -159,30 -185,70 26,42 100,71 185,71 87,0 160,-29 187,-71 -27,-40 -100,-70 -187,-70z"/>
     <path class="fil7" d="M16443 8936l0 476c48,-11 88,-29 116,-53l0 -477c-28,24 -68,43 -116,54z"/>
    </g>
    <g id="_610853016">
     <path class="fil14" d="M17291 6108l-2085 -1211c-89,-51 -198,-51 -286,0l-3287 1901c-83,49 -84,169 0,217l2040 1185c104,61 235,61 340,1l3278 -1898c76,-43 76,-151 0,-195z"/>
     <path class="fil7" d="M17291 6303l-3278 1898c-105,60 -236,60 -340,-1l-2040 -1185c-42,-24 -63,-65 -63,-108l0 157c0,0 0,1 0,1l0 2 0 0c1,41 22,83 63,106l2040 1184c104,61 235,61 340,1l3278 -1897c38,-22 57,-60 56,-99l0 0 0 -155c0,37 -18,75 -56,96z"/>
     <path class="fil5" d="M17291 6303l-3278 1898c-48,28 -101,42 -155,44l0 157c54,-3 107,-17 155,-44l3278 -1897c38,-22 57,-60 56,-99l0 0 0 -155c0,37 -18,75 -56,96z"/>
     <g>
      <g>
       <path class="fil6" d="M15292 6142l-894 -516c-25,-15 -55,-15 -80,0l-1296 748c-23,13 -23,47 0,60l880 510c29,16 66,16 94,0l1296 -748c20,-11 20,-41 0,-54z"/>
       <path class="fil5" d="M15292 6196l-1296 748c-28,16 -65,16 -94,0l-880 -510c-12,-6 -18,-18 -18,-29l0 61c0,0 0,0 0,1l0 0 0 0c0,12 6,23 18,30l880 509c29,17 66,17 94,0l1296 -747c10,-6 15,-17 15,-27l0 0 0 -63c0,11 -5,21 -15,27z"/>
      </g>
      <g>
       <polygon class="fil5" points="14708,5942 14642,5905 14567,5947 14633,5986 "/>
       <polygon class="fil5" points="14614,5996 14549,5958 14474,6001 14540,6039 "/>
       <polygon class="fil5" points="14522,6049 14456,6012 14381,6054 14446,6093 "/>
       <polygon class="fil5" points="14428,6103 14362,6065 14288,6108 14354,6146 "/>
       <polygon class="fil5" points="14335,6157 14269,6119 14194,6162 14260,6200 "/>
       <polygon class="fil5" points="14242,6211 14176,6173 14101,6215 14166,6254 "/>
       <polygon class="fil5" points="14148,6265 14082,6226 14008,6269 14074,6307 "/>
       <polygon class="fil5" points="14055,6318 13990,6280 13914,6323 13980,6361 "/>
       <polygon class="fil5" points="13962,6372 13896,6333 13822,6377 13887,6414 "/>
       <polygon class="fil5" points="13869,6425 13803,6387 13728,6431 13794,6468 "/>
       <polygon class="fil5" points="13775,6479 13710,6441 13635,6484 13700,6522 "/>
       <polygon class="fil5" points="13682,6533 13616,6494 13542,6538 13608,6575 "/>
       <polygon class="fil5" points="13524,6548 13448,6591 13514,6629 13589,6586 "/>
       <polygon class="fil5" points="14718,6035 14793,5992 14727,5954 14653,5996 "/>
       <polygon class="fil5" points="14559,6050 14625,6088 14700,6046 14633,6007 "/>
       <polygon class="fil5" points="14466,6103 14531,6142 14606,6099 14541,6061 "/>
       <polygon class="fil5" points="14373,6158 14439,6195 14513,6153 14447,6114 "/>
       <polygon class="fil5" points="14279,6212 14345,6249 14420,6207 14355,6168 "/>
       <polygon class="fil5" points="14187,6265 14252,6303 14327,6260 14261,6222 "/>
       <polygon class="fil5" points="14093,6319 14159,6356 14234,6314 14167,6275 "/>
       <polygon class="fil5" points="13999,6372 14065,6410 14140,6367 14075,6329 "/>
       <polygon class="fil5" points="13907,6426 13972,6463 14047,6421 13981,6382 "/>
       <polygon class="fil5" points="13813,6480 13879,6517 13954,6475 13888,6436 "/>
       <polygon class="fil5" points="13720,6533 13786,6572 13860,6528 13795,6490 "/>
       <polygon class="fil5" points="13627,6587 13692,6625 13768,6582 13701,6544 "/>
       <polygon class="fil5" points="13609,6598 13533,6640 13599,6679 13674,6635 "/>
       <polygon class="fil5" points="14803,6084 14878,6041 14812,6003 14738,6046 "/>
       <polygon class="fil5" points="14644,6100 14710,6137 14785,6095 14719,6056 "/>
       <polygon class="fil5" points="14691,6148 14626,6110 14551,6154 14617,6191 "/>
       <polygon class="fil5" points="14458,6207 14523,6245 14599,6202 14532,6163 "/>
       <polygon class="fil5" points="14364,6261 14430,6298 14505,6256 14439,6217 "/>
       <polygon class="fil5" points="14272,6314 14337,6352 14412,6309 14346,6271 "/>
       <polygon class="fil5" points="14178,6368 14244,6406 14319,6363 14253,6324 "/>
       <polygon class="fil5" points="14085,6422 14151,6460 14225,6416 14160,6379 "/>
       <polygon class="fil5" points="13992,6475 14057,6514 14133,6470 14066,6432 "/>
       <polygon class="fil5" points="13898,6529 13964,6567 14039,6524 13973,6486 "/>
       <polygon class="fil5" points="13805,6582 13871,6621 13945,6577 13880,6540 "/>
       <polygon class="fil5" points="13853,6631 13787,6593 13712,6636 13777,6674 "/>
       <polygon class="fil5" points="13693,6647 13619,6690 13685,6728 13759,6684 "/>
       <polygon class="fil5" points="14888,6133 14963,6090 14897,6052 14823,6095 "/>
       <polygon class="fil5" points="14870,6144 14804,6105 14729,6149 14795,6186 "/>
       <polygon class="fil5" points="14776,6197 14711,6159 14636,6203 14702,6241 "/>
       <polygon class="fil5" points="14684,6251 14618,6213 14543,6256 14608,6295 "/>
       <polygon class="fil5" points="14590,6305 14524,6267 14450,6310 14515,6348 "/>
       <polygon class="fil5" points="14497,6358 14431,6321 14356,6363 14422,6402 "/>
       <polygon class="fil5" points="14404,6412 14338,6374 14263,6417 14329,6455 "/>
       <polygon class="fil5" points="14310,6465 14245,6428 14170,6471 14236,6509 "/>
       <polygon class="fil5" points="14218,6519 14152,6482 14077,6524 14142,6563 "/>
       <polygon class="fil5" points="14124,6573 14058,6535 13984,6578 14050,6616 "/>
       <polygon class="fil5" points="14031,6627 13965,6589 13890,6631 13956,6670 "/>
       <polygon class="fil5" points="13938,6681 13872,6642 13797,6685 13862,6723 "/>
       <polygon class="fil5" points="13778,6696 13704,6739 13770,6777 13844,6734 "/>
       <polygon class="fil5" points="14973,6183 15048,6139 14983,6102 14908,6144 "/>
       <polygon class="fil5" points="14955,6193 14889,6155 14815,6198 14880,6236 "/>
       <polygon class="fil5" points="14861,6247 14796,6209 14721,6252 14787,6290 "/>
       <polygon class="fil5" points="14769,6300 14703,6263 14628,6305 14693,6344 "/>
       <polygon class="fil5" points="14675,6354 14609,6316 14535,6359 14601,6397 "/>
       <polygon class="fil5" points="14582,6407 14517,6370 14441,6412 14507,6451 "/>
       <polygon class="fil5" points="14489,6462 14423,6423 14349,6466 14413,6504 "/>
       <polygon class="fil5" points="14396,6516 14329,6477 14255,6520 14321,6558 "/>
       <polygon class="fil5" points="14302,6569 14237,6531 14162,6573 14227,6612 "/>
       <polygon class="fil5" points="14209,6623 14143,6584 14069,6628 14135,6665 "/>
       <polygon class="fil5" points="14116,6676 14051,6638 13975,6681 14041,6719 "/>
       <polygon class="fil5" points="14023,6730 13957,6691 13883,6735 13947,6772 "/>
       <polygon class="fil5" points="13863,6745 13789,6789 13855,6826 13930,6784 "/>
       <polygon class="fil5" points="15068,6151 14993,6194 15058,6232 15133,6188 "/>
       <polygon class="fil5" points="14900,6247 14965,6286 15040,6242 14974,6204 "/>
       <polygon class="fil5" points="14806,6301 14872,6339 14947,6296 14882,6258 "/>
       <polygon class="fil5" points="14713,6354 14778,6393 14854,6350 14788,6312 "/>
       <polygon class="fil5" points="14620,6408 14686,6446 14760,6404 14694,6365 "/>
       <polygon class="fil5" points="14526,6462 14592,6500 14667,6457 14602,6419 "/>
       <polygon class="fil5" points="14508,6472 14415,6526 14415,6526 14397,6537 14322,6580 14322,6580 14284,6601 14228,6633 14228,6633 14169,6667 14060,6731 14126,6768 14240,6703 14294,6672 14294,6672 14351,6639 14387,6618 14387,6618 14461,6575 14481,6565 14481,6565 14574,6511 "/>
       <polygon class="fil5" points="13968,6784 14033,6822 14107,6779 14042,6740 "/>
       <polygon class="fil5" points="13874,6838 13940,6876 14015,6833 13949,6794 "/>
      </g>
      <path class="fil5" d="M14189 6068l-235 -135c-6,-3 -13,-3 -20,0l-325 188c-6,3 -6,11 0,15l231 133c7,4 17,4 24,0l325 -187c5,-4 5,-10 0,-14z"/>
     </g>
    </g>
    <path class="fil11" d="M14138 5703c0,0 51,78 70,102 20,24 88,125 132,150 44,25 0,-60 -5,-87 -5,-26 23,-52 68,-27 44,26 85,92 131,127 47,37 96,-138 39,-216 -57,-78 -115,-111 -202,-144 -83,-32 -155,-18 -190,-36l-43 131z"/>
    <path class="fil8" d="M13531 4969c-37,-273 -60,-462 -60,-462l340 654 487 420 -174 191 -544 -400 -37 -57c2,-135 0,-262 -12,-346z"/>
    <path class="fil11" d="M13349 5988c0,0 79,18 105,29 25,9 128,37 159,69 31,32 -54,22 -79,26 -24,5 27,37 58,69 32,32 50,58 59,126 7,51 -170,153 -203,74 -32,-75 -33,-75 -100,-123 -79,-58 -120,-119 -143,-145l144 -125z"/>
    <path class="fil8" d="M12595 4593c0,0 -168,39 -183,304l138 553c12,88 35,156 82,195l566 522 200 -175 -547 -537 -122 -580c0,0 14,-227 -134,-282z"/>
    <g id="_610852200">
     <path class="fil7" d="M13922 5798l1327 -767c9,-5 18,-5 27,1l0 0 34 19 -27 36 -10 12 0 1059c0,16 -8,30 -22,38l-1261 728 -2 11 -41 56 -37 -22c0,0 0,0 0,0l-1 0 0 0c-5,-4 -9,-9 -9,-17l0 -1116c0,-16 8,-31 22,-38z"/>
     <path class="fil5" d="M13960 5819l1331 -768c12,-7 29,1 29,17l0 1117c0,16 -9,30 -23,38l-1329 768c-14,8 -30,-2 -30,-17l0 -1117c0,-15 7,-31 22,-38z"/>
    </g>
    <polygon class="fil24" points="12191,6856 13001,7316 13519,7016 12708,6558 "/>
    <polygon class="fil25" points="12191,7067 13001,7526 13519,7227 12708,6767 "/>
    <g id="_610848336">
     <g>
      <polygon class="fil10" points="15924,5616 15924,5562 15923,5611 15924,5665 "/>
      <polygon class="fil10" points="16416,5680 16350,5718 16350,5768 16416,5730 "/>
      <polygon class="fil10" points="15657,5718 15592,5680 15592,5730 15657,5768 "/>
      <path class="fil10" d="M15796 5889c1,-1 1,-3 2,-5 0,-2 1,-3 2,-6 0,-1 1,-3 2,-5 1,-2 2,-4 3,-7 1,-1 2,-3 3,-4 1,-3 3,-6 5,-8 1,-1 2,-2 3,-3 3,-4 6,-7 9,-10 1,-1 2,-3 3,-4 2,-2 5,-3 7,-5 2,-2 4,-4 6,-5 2,-1 5,-3 8,-4 1,-2 4,-4 7,-6 6,-3 13,-7 20,-10 2,-1 4,-2 6,-3 5,-2 11,-4 17,-6 2,0 4,-1 6,-1 3,-1 6,-2 10,-3 3,-1 6,-2 9,-3 4,-1 8,-1 11,-2 2,-1 5,-1 8,-2 8,-1 16,-2 23,-3 3,-1 6,-1 8,-1 5,0 10,-1 15,-1 2,0 5,0 8,0 4,0 8,0 12,0 3,0 7,0 9,0 4,0 7,0 11,1 3,0 7,0 10,0 4,1 6,1 10,2 3,0 6,1 10,1 3,1 7,1 11,2 2,1 5,1 8,2 5,1 9,2 13,3 3,1 5,1 8,2 7,2 15,4 22,7 4,1 7,3 10,5 2,0 4,1 6,2 5,3 11,5 16,8 40,24 61,55 61,87l0 -51c0,-30 -20,-61 -61,-85 -5,-3 -11,-6 -16,-8 -2,-1 -4,-2 -6,-3 -3,-1 -5,-3 -8,-4 -1,0 -1,0 -2,0 -7,-3 -15,-6 -22,-8 -1,0 -1,-1 -2,-1 -2,0 -4,-1 -5,-1 -5,0 -9,-2 -14,-2 -1,-1 -2,-1 -3,-1 -2,-1 -3,-1 -5,-1 -4,-1 -7,-2 -11,-2 -2,-1 -3,-1 -5,-1 -2,0 -3,0 -5,-1 -4,0 -6,-1 -10,-1 -2,0 -3,0 -5,0 -2,-1 -3,-1 -5,-1 -4,0 -7,0 -11,0 -2,0 -3,-1 -4,-1 -2,0 -3,0 -5,0 -4,0 -8,0 -12,0 -2,0 -4,0 -6,0 -1,1 -2,1 -2,1 -5,0 -10,0 -15,1 -2,0 -4,0 -6,0 0,0 -1,0 -1,0 -8,1 -16,2 -24,4 0,0 -1,0 -1,0 -3,0 -5,1 -7,1 -3,1 -7,2 -11,3 -3,1 -6,1 -9,1 -3,1 -7,2 -10,3 -1,1 -2,1 -2,1 -2,1 -3,1 -4,2 -6,2 -12,4 -17,6 -2,1 -4,2 -5,3 -7,3 -14,6 -21,10 -1,1 -2,1 -2,2 -2,0 -4,1 -5,2 -3,2 -5,4 -8,6 -2,1 -4,3 -6,4 -2,2 -5,4 -7,6 0,0 -1,1 -1,1 -1,1 -1,2 -2,2 -3,4 -6,7 -8,9 -1,1 -2,2 -2,2 -1,1 -1,2 -2,3 -2,2 -3,5 -5,7 -1,1 -2,2 -2,3 0,1 -1,1 -1,2 -1,2 -2,4 -3,7 -1,1 -1,2 -2,3 0,0 0,1 0,1 -1,2 -2,4 -2,7 -1,1 -1,2 -1,4 0,0 0,1 -1,1 0,2 0,5 0,7 0,1 -1,3 -1,4 0,1 0,2 0,2l0 50c0,-3 0,-5 1,-7 0,-2 0,-4 0,-7z"/>
      <path class="fil10" d="M16415 5900c-1,3 -2,6 -3,9 -1,1 -2,3 -3,5 -1,2 -1,4 -2,6 -1,2 -3,4 -3,6 -1,2 -2,4 -3,6 -1,2 -3,4 -4,6 -1,2 -2,4 -4,5 -1,3 -3,5 -5,8 -1,1 -2,3 -4,4 -3,5 -7,9 -10,13 0,0 -1,1 -2,1 -3,4 -7,8 -11,11 -3,3 -6,6 -9,9l0 49c2,-2 5,-4 8,-7 0,0 1,-1 1,-1 4,-4 8,-8 11,-11 1,0 1,0 2,-1 3,-4 7,-9 10,-13 1,-1 1,-1 1,-1 1,-2 2,-3 3,-4 2,-2 4,-5 5,-7 1,-1 3,-3 4,-5 1,-2 3,-4 4,-7 1,0 1,-1 2,-2 0,-1 1,-2 1,-3 0,-2 1,-4 2,-7 1,-2 2,-3 3,-5 1,-2 2,-4 3,-6 0,-1 1,-2 1,-2 1,-3 2,-5 2,-7l93 0 0 -49 -93 0z"/>
      <path class="fil10" d="M15659 6038l0 -49c-32,-27 -54,-58 -64,-89l-93 0 0 49 93 0c10,32 32,62 64,89z"/>
      <path class="fil10" d="M16239 6054c-10,4 -22,8 -33,12 -7,2 -14,4 -20,6 -6,2 -12,3 -18,4 -7,2 -13,3 -20,5 -7,1 -13,2 -20,4 -13,2 -28,4 -42,6l0 49c14,-1 28,-3 42,-6 1,0 1,0 2,0 6,-1 12,-3 18,-4 7,-1 13,-2 19,-3 7,-2 13,-4 19,-6 6,-2 13,-3 20,-5 1,-1 1,-1 2,-1 10,-4 21,-8 31,-12l66 38 113 -65 0 -50 -113 66 -66 -38z"/>
      <path class="fil10" d="M15927 6091c-11,-1 -21,-3 -30,-4 -8,-1 -15,-3 -21,-4 -6,-1 -13,-3 -19,-4 -8,-2 -16,-4 -25,-5 -6,-2 -12,-4 -19,-6 -3,-1 -5,-2 -8,-2 -11,-4 -22,-8 -33,-12 0,0 0,0 0,0l-65 38 -113 -66 0 50 113 65 65 -38c11,4 22,8 33,12 2,1 5,2 8,3 3,0 6,1 9,2 3,1 6,2 10,3 9,2 17,4 25,6 3,1 5,1 8,1 4,1 7,2 11,2 6,2 13,3 21,4 3,1 6,1 9,2 7,1 14,2 20,2l1 0 0 54 159 0 0 -49 -159 0 0 -54z"/>
     </g>
     <g>
      <path class="fil10" d="M16305 6092l-66 -38c-47,19 -99,31 -153,37l0 54 -159 0 0 -54c-54,-6 -107,-18 -155,-37l-65 38 -113 -66 65 -37c-32,-27 -54,-58 -64,-89l-93 0 0 -93 93 0c9,-32 31,-62 62,-89l-65 -38 113 -65 65 38c48,-19 100,-31 154,-37l0 -54 159 0 0 54c54,6 107,18 155,37l64 -38 114 65 -66 38c32,27 54,57 65,89l93 0 0 93 -93 0c-10,31 -31,62 -63,89l66 37 -113 66zm-448 -153l0 0c82,48 215,48 297,0 81,-47 81,-124 -1,-171 -82,-48 -215,-48 -297,0 -81,47 -81,124 1,171z"/>
     </g>
    </g>
    <g id="_610846104">
     <g>
      <polygon class="fil10" points="16120,6168 16120,6125 16120,6165 16120,6209 "/>
      <polygon class="fil10" points="16522,6220 16469,6251 16469,6292 16522,6261 "/>
      <polygon class="fil10" points="15903,6251 15849,6220 15849,6261 15903,6292 "/>
      <path class="fil10" d="M16016 6392c0,-2 1,-3 1,-5 0,-1 1,-3 1,-5 1,-1 2,-3 2,-3 1,-2 2,-4 3,-6 1,-1 1,-2 2,-4 2,-2 3,-4 4,-6 1,-1 2,-2 3,-4 3,-2 5,-5 8,-8 1,0 2,-1 3,-1 1,-2 2,-4 4,-5 2,-1 3,-3 5,-4 2,-1 4,-3 7,-4 2,-2 4,-3 6,-4 6,-4 10,-6 16,-9 2,0 3,0 5,-1 5,-2 9,-4 13,-5 2,-1 3,-2 5,-2 3,-1 6,-2 9,-3 2,0 5,-1 7,-2 3,0 7,-1 9,-2 2,0 4,-1 7,-1 6,-1 13,-2 19,-3 2,0 4,0 6,0 4,-1 8,-1 12,-1 3,0 5,0 8,0 2,0 5,0 8,0 3,0 6,0 8,0 3,0 6,0 9,0 3,0 5,1 8,1 3,0 6,1 8,1 3,0 6,1 8,1 4,1 7,1 9,2 2,0 5,1 7,1 4,1 8,2 11,3 2,0 4,1 6,2 6,1 12,4 18,6 3,1 6,2 9,3 2,0 3,1 4,2 4,2 9,4 13,7 34,19 50,45 50,71l0 -41c0,-26 -16,-51 -50,-70 -4,-3 -9,-5 -13,-7 -1,-1 -2,-2 -4,-2 -2,-1 -5,-3 -8,-4 0,0 0,0 -1,0 -6,-2 -12,-5 -18,-6 0,-1 -1,-1 -1,-1 -2,0 -3,-1 -5,-1 -3,-1 -7,-2 -11,-3 -1,0 -2,0 -3,0 -1,-1 -3,-1 -4,-1 -2,0 -5,0 -8,-1 -2,0 -3,0 -4,-1 -2,0 -3,0 -4,0 -3,0 -6,-1 -9,-1 -2,0 -3,0 -4,0 -1,-1 -2,-1 -3,-1 -3,0 -6,0 -9,0 -2,0 -3,0 -5,0 -1,0 -2,0 -3,0 -4,0 -7,0 -9,0 -2,0 -3,0 -5,0 -1,0 -2,0 -3,0 -4,0 -8,0 -12,1 -1,0 -3,0 -5,0 0,0 -1,0 -1,0 -6,1 -13,2 -19,3 -1,0 -1,0 -1,0 -2,0 -4,0 -6,0 -2,1 -6,2 -9,2 -2,1 -4,2 -7,2 -3,1 -6,2 -9,3 -1,0 -1,0 -2,1 -1,0 -2,0 -3,1 -4,1 -8,3 -13,5 -2,1 -3,1 -5,2 -6,3 -10,5 -16,9 0,0 -1,0 -2,1 -1,1 -3,2 -4,2 -3,1 -5,3 -7,4 -2,1 -3,3 -5,4 -2,2 -3,3 -4,5 0,0 -1,0 -1,0 -1,1 -1,2 -2,2 -3,3 -5,6 -8,9 0,0 -1,1 -1,1 -1,1 -1,1 -1,2 -2,1 -3,3 -5,5 0,1 -1,2 -1,3 -1,0 -1,1 -1,1 -1,2 -2,4 -3,6 0,1 -1,2 -1,3 0,0 0,1 0,1 -1,2 -1,4 -2,5 0,2 -1,3 -1,4 0,0 0,0 0,0 0,2 0,4 0,5 0,2 0,3 0,4 0,1 0,1 0,2l0 41c0,-2 0,-4 0,-6 0,-1 0,-3 0,-5z"/>
      <path class="fil10" d="M16522 6400c-1,3 -2,5 -3,7 -1,1 -2,3 -2,5 -1,1 -2,3 -3,5 0,1 0,3 -1,5 -1,1 -2,3 -3,4 -1,2 -2,4 -3,6 -1,2 -2,2 -3,3 -2,2 -3,4 -5,6 -1,2 -1,3 -2,4 -3,4 -6,8 -10,11 0,1 0,1 0,2 -3,3 -6,5 -9,8 -3,2 -5,4 -8,7l0 41c2,-2 4,-4 6,-6 1,-1 1,-1 2,-1 3,-3 6,-6 9,-9 0,-1 0,-1 0,-2 3,-3 6,-6 9,-10 1,0 1,0 1,-1 1,-1 2,-2 2,-3 2,-2 3,-4 5,-6 1,-1 2,-2 2,-4 2,-2 3,-4 4,-6 0,0 1,-1 1,-2 1,0 1,-1 2,-2 1,-1 1,-3 1,-4 1,-2 2,-4 2,-5 1,-2 2,-4 3,-5 0,-1 0,-2 1,-3 0,-1 1,-3 1,-5l76 0 0 -40 -75 0z"/>
      <path class="fil10" d="M15904 6514l0 -41c-26,-23 -44,-47 -53,-73l-75 0 0 40 75 0c9,26 27,50 53,74z"/>
      <path class="fil10" d="M16378 6526c-9,4 -18,7 -28,10 -5,2 -10,3 -16,5 -5,1 -10,3 -14,4 -6,0 -12,2 -17,3 -6,1 -10,2 -15,3 -12,2 -23,4 -35,5l0 41c12,-1 23,-3 35,-5 0,0 1,0 1,0 4,-1 9,-2 14,-3 5,-2 11,-3 17,-4 4,-1 9,-3 14,-4 6,-2 11,-3 16,-5 0,0 1,0 2,0 9,-3 18,-6 26,-9l53 31 92 -53 1 -41 -93 53 -53 -31z"/>
      <path class="fil10" d="M16123 6556c-9,-1 -17,-2 -25,-3 -6,-1 -12,-2 -18,-3 -5,-1 -9,-2 -14,-4 -7,-1 -14,-2 -21,-4 -4,-1 -10,-3 -15,-4 -3,-1 -5,-2 -7,-2 -9,-3 -18,-6 -27,-10l0 0 -53 31 -93 -53 0 41 93 53 53 -31c9,3 18,6 27,9 2,0 4,1 7,2 2,0 4,1 7,2 3,1 6,1 8,2 7,2 14,4 21,5 2,1 4,2 6,2 3,1 5,1 8,2 6,1 12,2 18,3 2,0 5,1 7,1 6,1 12,2 17,2l0 0 0 0 1 44 130 0 0 -41 -130 0 0 -44z"/>
     </g>
     <g>
      <path class="fil10" d="M16431 6557l-53 -31c-38,16 -81,25 -125,30l0 44 -130 0 0 -44c-45,-5 -88,-14 -127,-30l-53 31 -93 -53 54 -31c-26,-23 -44,-47 -53,-73l-75 0 -1 -76 75 0c9,-26 27,-50 53,-73l-54 -31 92 -53 53 31c39,-14 82,-25 126,-30l0 -43 130 0 0 43c44,5 88,16 126,30l54 -31 92 53 -53 31c26,23 44,47 52,73l76 0 0 76 -75 0c-8,26 -26,50 -52,73l54 31 -93 53zm-365 -124l0 0c67,38 175,38 242,0 67,-39 66,-102 -1,-140 -68,-39 -176,-39 -242,0 -67,38 -66,101 1,140z"/>
     </g>
    </g>
    <g id="_610876656">
     <g>
      <path class="fil11" d="M12065 6313c0,0 -57,-56 -73,-78 -16,-22 -88,-97 -98,-139 -9,-44 56,8 80,17 23,9 56,-11 46,-54 -11,-43 -65,-122 -84,-168 -18,-47 174,-44 229,18 55,63 83,128 87,209 3,79 -30,143 -25,178l-162 17z"/>
      <path class="fil6" d="M12256 6228l-259 39 35 428 387 348c0,0 -17,-408 -163,-815z"/>
      <path class="fil20" d="M11368 10083c0,0 -23,101 115,119 139,19 200,18 212,110 12,93 -27,132 -181,141 -132,8 -357,-22 -482,-58 -22,-5 -39,-16 -41,-38 -2,-46 17,-168 52,-252 50,-120 325,-22 325,-22z"/>
      <path class="fil21" d="M11906 10204c0,0 -11,32 128,40 140,8 289,8 308,99 20,91 -89,163 -242,185 -131,18 -394,30 -498,34 -22,1 -40,-14 -42,-35 -7,-46 -15,-126 -8,-211 10,-129 354,-112 354,-112z"/>
      <path class="fil26" d="M11177 7879c0,0 -39,1124 -50,1260 -9,137 -115,988 -115,988 0,0 236,119 417,38l204 -2159 -456 -127z"/>
      <path class="fil27" d="M11506 7950l55 1105c-10,329 -24,1272 -24,1272 269,31 440,-115 440,-115 -16,-147 0,-1038 0,-1038 55,-430 27,-1122 32,-1249 1,-13 1,-21 1,-21l-504 46z"/>
      <path class="fil6" d="M11015 6293c0,0 -136,527 -99,810 0,0 99,145 284,131l-185 -941z"/>
      <path class="fil12" d="M11950 5798c0,206 -136,373 -303,372 -168,0 -303,-168 -302,-373 0,-207 136,-374 304,-373 167,0 302,168 301,374z"/>
      <path class="fil21" d="M12155 6370c0,0 -253,-97 -288,-120 -33,-23 -47,-59 -47,-59 -171,-119 -390,-105 -390,-105 -318,88 -415,207 -415,207 33,272 104,1346 119,1584 2,30 19,56 45,68 393,180 685,94 820,29 50,-24 78,-78 72,-134 -57,-515 84,-1470 84,-1470z"/>
      <path class="fil9" d="M11757 5407c0,0 237,45 240,244l-221 72c0,0 35,168 -89,211 0,0 -36,152 -261,138 0,0 -337,-440 76,-648 0,0 115,-42 255,-17z"/>
      <path class="fil6" d="M12164 6370c-231,0 -139,496 -139,496l79 345c11,48 58,74 105,67 186,-26 210,-196 210,-196 -3,-454 -255,-712 -255,-712z"/>
     </g>
     <path class="fil6" d="M11820 6191c-171,-119 -390,-105 -390,-105 -49,15 -93,29 -133,44 193,0 449,70 546,98 -16,-18 -23,-37 -23,-37z"/>
    </g>
    <path class="fil6" d="M21160 3224l-5115 -2950c-31,-18 -67,-17 -102,4l0 0 -114 64 104 142 39 44 0 3232c0,60 33,116 85,147l4857 2802 7 42 157 219 129 -75c1,0 1,0 2,-1l1 -1 0 0c22,-14 36,-37 36,-66l0 -3452c0,-63 -32,-120 -86,-151z"/>
    <path class="fil10" d="M21031 3299l-5126 -2957c-51,-29 -113,7 -113,65l0 3458c0,60 31,116 84,146l5125 2958c52,30 117,-8 117,-67l0 -3453c0,-61 -33,-119 -87,-150z"/>
    <g id="_610875000">
     <path class="fil5" d="M15792 407l0 3458c0,60 31,116 84,146l5125 2958c13,8 26,11 40,11 40,0 77,-33 77,-78l0 -3453c0,-61 -33,-119 -87,-150l-5126 -2957c-12,-7 -26,-10 -38,-10 -40,0 -75,31 -75,75zm73 0l0 0 0 -3c1,0 3,1 3,1l5127 2958c30,18 50,51 50,86l0 3448c0,4 -4,4 -4,4l-5129 -2958c-29,-18 -47,-50 -47,-83l0 -3453z"/>
    </g>
    <g id="_610873800">
     <path class="fil5" d="M21080 6969l-2 1 0 0c1,0 1,0 2,-1z"/>
     <path class="fil7" d="M21118 6902l0 -3453c0,-20 -5,-40 -11,-58l129 -73c7,18 10,37 10,57l0 3452c0,29 -14,52 -36,66l0 0 -1 1c-1,1 -1,1 -2,1l-127 74c23,-13 38,-37 38,-67z"/>
    </g>
    <g id="_605507760">
     <g>
      <polygon class="fil28" points="16337,862 16337,932 16634,1103 16634,1033 "/>
      <polygon class="fil29" points="16337,990 16337,1062 16634,1232 16634,1162 "/>
      <polygon class="fil29" points="16337,1120 16337,1191 16634,1362 16634,1291 "/>
      <polygon class="fil29" points="18578,2613 18578,2541 16746,1484 16746,1555 "/>
      <polygon class="fil29" points="16337,1249 16337,1319 16634,1491 16634,1421 "/>
      <polygon class="fil29" points="16337,1378 16337,1449 16634,1620 16634,1549 "/>
      <polygon class="fil30" points="18578,2741 18578,2671 16746,1614 16746,1684 "/>
      <polygon class="fil29" points="16337,1765 16337,1837 16634,2007 16634,1937 "/>
      <polygon class="fil28" points="16337,1895 16337,1965 16634,2137 16634,2066 "/>
      <polygon class="fil29" points="16337,2411 16337,2482 16634,2653 16634,2583 "/>
      <polygon class="fil29" points="16337,2540 16337,2611 16634,2782 16634,2712 "/>
      <g>
       <polygon class="fil30" points="17902,3443 16746,2776 16746,2846 17902,3513 "/>
       <polygon class="fil29" points="17963,3478 17963,3549 18578,3904 18578,3833 "/>
      </g>
      <g>
       <polygon class="fil29" points="17326,2981 16746,2646 16746,2718 17326,3053 "/>
       <polygon class="fil29" points="17388,3017 17388,3087 18578,3775 18578,3704 "/>
      </g>
      <polygon class="fil29" points="18422,3226 18422,3297 18578,3387 18578,3316 "/>
      <polygon class="fil24" points="17569,2605 16746,2130 16746,2201 17569,2676 "/>
      <polygon class="fil29" points="17232,1377 16746,1097 16746,1168 17232,1448 "/>
      <g>
       <polygon class="fil29" points="18029,1837 17292,1413 17292,1483 18029,1908 "/>
      </g>
      <polygon class="fil29" points="17599,1719 17082,1420 17082,1491 17599,1789 "/>
      <g>
       <polygon class="fil24" points="18144,2033 17660,1754 17660,1825 18144,2103 "/>
       <polygon class="fil29" points="18204,2067 18204,2138 18578,2354 18578,2284 "/>
      </g>
      <polygon class="fil24" points="16842,1411 16842,1481 17232,1706 17232,1636 "/>
      <polygon class="fil29" points="18425,2324 17292,1671 17292,1741 18425,2395 "/>
      <polygon class="fil29" points="17777,2338 17037,1911 17037,1981 17777,2408 "/>
      <polygon class="fil29" points="18425,2712 17838,2373 17838,2444 18425,2782 "/>
      <g>
       <polygon class="fil29" points="18361,3061 17630,2641 17630,2711 18361,3133 "/>
      </g>
      <polygon class="fil30" points="17963,2961 17963,3032 18361,3261 18361,3191 "/>
      <polygon class="fil29" points="16889,2342 16746,2259 16746,2330 16889,2413 "/>
      <g>
       <polygon class="fil29" points="17157,2497 17157,2567 17902,2997 17902,2926 "/>
       <polygon class="fil29" points="17096,2462 16950,2377 16950,2448 17096,2533 "/>
      </g>
      <polygon class="fil29" points="17764,2975 16950,2506 16950,2577 17764,3047 "/>
     </g>
     <g>
      <polygon class="fil28" points="16337,2920 16337,2991 16634,3163 16634,3092 "/>
      <polygon class="fil29" points="16337,3050 16337,3120 16634,3292 16634,3221 "/>
      <polygon class="fil29" points="16337,3179 16337,3250 16634,3421 16634,3350 "/>
      <polygon class="fil29" points="18578,4671 18578,4601 16746,3544 16746,3614 "/>
      <polygon class="fil29" points="16337,3308 16337,3379 16634,3550 16634,3479 "/>
      <polygon class="fil29" points="16337,3437 16337,3508 16634,3679 16634,3609 "/>
      <polygon class="fil30" points="18578,4801 18578,4730 16746,3672 16746,3744 "/>
      <polygon class="fil29" points="16337,3825 16337,3895 16634,4066 16634,3996 "/>
      <polygon class="fil28" points="16337,3954 16337,4025 16634,4195 16634,4125 "/>
      <polygon class="fil24" points="17569,4664 16746,4190 16746,4260 17569,4735 "/>
      <polygon class="fil29" points="17232,3437 16746,3156 16746,3226 17232,3507 "/>
      <g>
       <polygon class="fil29" points="18029,3896 17292,3472 17292,3542 18029,3967 "/>
      </g>
      <polygon class="fil29" points="17599,3778 17082,3479 17082,3550 17599,3849 "/>
      <g>
       <polygon class="fil24" points="18144,4091 17660,3813 17660,3884 18144,4162 "/>
       <polygon class="fil29" points="18204,4127 18204,4197 18578,4414 18578,4342 "/>
      </g>
      <polygon class="fil24" points="16842,3470 16842,3540 17232,3766 17232,3695 "/>
      <polygon class="fil29" points="18425,4384 17292,3730 17292,3801 18425,4454 "/>
      <polygon class="fil29" points="17777,4397 17037,3970 17037,4040 17777,4468 "/>
      <polygon class="fil29" points="18425,4771 17838,4432 17838,4502 18425,4842 "/>
      <g>
       <polygon class="fil29" points="18361,5121 17630,4699 17630,4770 18361,5191 "/>
      </g>
     </g>
     <g>
      <polygon class="fil30" points="19956,2947 19956,2975 20074,3042 20074,3014 "/>
      <polygon class="fil30" points="19956,2998 19956,3026 20074,3094 20074,3065 "/>
      <polygon class="fil30" points="19956,3049 19956,3077 20074,3145 20074,3117 "/>
      <polygon class="fil30" points="20846,3641 20846,3613 20118,3194 20118,3222 "/>
      <polygon class="fil30" points="19956,3100 19956,3128 20074,3197 20074,3169 "/>
      <polygon class="fil30" points="19956,3151 19956,3180 20074,3248 20074,3220 "/>
      <polygon class="fil30" points="20846,3693 20846,3665 20118,3245 20118,3273 "/>
      <polygon class="fil30" points="19956,3306 19956,3334 20074,3401 20074,3373 "/>
      <polygon class="fil30" points="19956,3357 19956,3385 20074,3453 20074,3424 "/>
      <polygon class="fil30" points="19956,3561 19956,3590 20074,3658 20074,3630 "/>
      <polygon class="fil30" points="19956,3613 19956,3641 20074,3709 20074,3681 "/>
      <g>
       <polygon class="fil30" points="20578,3972 20118,3707 20118,3735 20578,3999 "/>
       <polygon class="fil30" points="20602,3985 20602,4014 20846,4155 20846,4127 "/>
      </g>
      <g>
       <polygon class="fil30" points="20349,3788 20118,3655 20118,3683 20349,3816 "/>
       <polygon class="fil30" points="20373,3803 20373,3831 20846,4103 20846,4075 "/>
      </g>
      <polygon class="fil30" points="20784,3886 20784,3914 20846,3949 20846,3921 "/>
      <polygon class="fil30" points="20445,3639 20118,3450 20118,3478 20445,3667 "/>
      <polygon class="fil30" points="20311,3151 20118,3040 20118,3068 20311,3179 "/>
      <g>
       <polygon class="fil30" points="20628,3334 20335,3166 20335,3194 20628,3362 "/>
      </g>
      <polygon class="fil30" points="20457,3287 20251,3169 20251,3197 20457,3315 "/>
      <g>
       <polygon class="fil30" points="20673,3412 20481,3301 20481,3329 20673,3440 "/>
       <polygon class="fil30" points="20697,3425 20697,3453 20846,3539 20846,3511 "/>
      </g>
      <polygon class="fil30" points="20156,3165 20156,3193 20311,3282 20311,3253 "/>
      <polygon class="fil30" points="20785,3528 20335,3268 20335,3296 20785,3556 "/>
      <polygon class="fil30" points="20527,3532 20234,3363 20234,3391 20527,3560 "/>
      <polygon class="fil30" points="20785,3681 20552,3547 20552,3575 20785,3709 "/>
      <g>
       <polygon class="fil30" points="20760,3820 20470,3653 20470,3681 20760,3848 "/>
      </g>
      <polygon class="fil30" points="20602,3780 20602,3808 20760,3899 20760,3871 "/>
      <polygon class="fil30" points="20175,3534 20118,3501 20118,3529 20175,3562 "/>
      <g>
       <polygon class="fil30" points="20281,3596 20281,3624 20578,3795 20578,3766 "/>
       <polygon class="fil30" points="20257,3582 20199,3548 20199,3577 20257,3610 "/>
      </g>
      <polygon class="fil30" points="20523,3786 20199,3600 20199,3628 20523,3814 "/>
     </g>
     <g>
      <polygon class="fil29" points="19956,3814 19956,3842 20074,3911 20074,3882 "/>
      <polygon class="fil29" points="19956,3865 19956,3893 20074,3962 20074,3934 "/>
      <polygon class="fil29" points="19956,3916 19956,3944 20074,4013 20074,3985 "/>
      <polygon class="fil29" points="20846,4509 20846,4481 20118,4061 20118,4089 "/>
      <polygon class="fil29" points="19956,3968 19956,3996 20074,4064 20074,4036 "/>
      <polygon class="fil29" points="19956,4019 19956,4048 20074,4115 20074,4087 "/>
      <polygon class="fil29" points="20846,4560 20846,4532 20118,4112 20118,4140 "/>
      <polygon class="fil29" points="19956,4173 19956,4201 20074,4269 20074,4241 "/>
      <polygon class="fil29" points="19956,4224 19956,4252 20074,4321 20074,4292 "/>
      <polygon class="fil29" points="19956,4430 19956,4458 20074,4525 20074,4497 "/>
      <polygon class="fil29" points="19956,4481 19956,4509 20074,4577 20074,4549 "/>
      <g>
       <polygon class="fil29" points="20578,4839 20118,4575 20118,4603 20578,4867 "/>
       <polygon class="fil29" points="20602,4853 20602,4882 20846,5023 20846,4995 "/>
      </g>
      <g>
       <polygon class="fil29" points="20349,4656 20118,4523 20118,4552 20349,4684 "/>
       <polygon class="fil29" points="20373,4670 20373,4698 20846,4971 20846,4942 "/>
      </g>
      <polygon class="fil29" points="20784,4753 20784,4781 20846,4817 20846,4789 "/>
      <polygon class="fil29" points="20445,4506 20118,4318 20118,4346 20445,4534 "/>
      <polygon class="fil29" points="20311,4019 20118,3908 20118,3936 20311,4047 "/>
      <g>
       <polygon class="fil29" points="20628,4201 20335,4033 20335,4061 20628,4229 "/>
      </g>
      <polygon class="fil29" points="20457,4155 20251,4036 20251,4064 20457,4183 "/>
      <g>
       <polygon class="fil29" points="20673,4279 20481,4168 20481,4196 20673,4307 "/>
       <polygon class="fil29" points="20697,4293 20697,4321 20846,4407 20846,4379 "/>
      </g>
      <polygon class="fil29" points="20156,4032 20156,4060 20311,4150 20311,4121 "/>
      <polygon class="fil29" points="20785,4395 20335,4136 20335,4164 20785,4423 "/>
      <polygon class="fil29" points="20527,4400 20234,4231 20234,4259 20527,4428 "/>
      <polygon class="fil29" points="20785,4549 20552,4414 20552,4442 20785,4577 "/>
      <g>
       <polygon class="fil29" points="20760,4688 20470,4521 20470,4549 20760,4716 "/>
      </g>
      <polygon class="fil29" points="20602,4648 20602,4676 20760,4767 20760,4739 "/>
      <polygon class="fil29" points="20175,4402 20118,4369 20118,4397 20175,4430 "/>
      <g>
       <polygon class="fil29" points="20281,4464 20281,4492 20578,4663 20578,4634 "/>
       <polygon class="fil29" points="20257,4449 20199,4416 20199,4444 20257,4477 "/>
      </g>
      <polygon class="fil29" points="20523,4654 20199,4468 20199,4496 20523,4682 "/>
     </g>
     <g>
      <polygon class="fil28" points="19956,4682 19956,4710 20074,4778 20074,4749 "/>
      <polygon class="fil28" points="19956,4733 19956,4761 20074,4829 20074,4802 "/>
      <polygon class="fil28" points="19956,4784 19956,4812 20074,4881 20074,4853 "/>
      <polygon class="fil28" points="20846,5377 20846,5349 20118,4929 20118,4957 "/>
      <polygon class="fil28" points="19956,4835 19956,4863 20074,4932 20074,4904 "/>
      <polygon class="fil28" points="19956,4887 19956,4915 20074,4983 20074,4955 "/>
      <polygon class="fil28" points="20846,5429 20846,5400 20118,4980 20118,5009 "/>
      <polygon class="fil28" points="19956,5041 19956,5069 20074,5137 20074,5108 "/>
      <polygon class="fil28" points="19956,5092 19956,5120 20074,5189 20074,5161 "/>
      <polygon class="fil28" points="19956,5298 19956,5326 20074,5393 20074,5365 "/>
      <polygon class="fil28" points="19956,5349 19956,5377 20074,5444 20074,5416 "/>
      <g>
       <polygon class="fil28" points="20578,5707 20118,5442 20118,5470 20578,5735 "/>
       <polygon class="fil28" points="20602,5721 20602,5749 20846,5890 20846,5862 "/>
      </g>
      <g>
       <polygon class="fil28" points="20349,5523 20118,5391 20118,5419 20349,5551 "/>
       <polygon class="fil28" points="20373,5538 20373,5566 20846,5839 20846,5810 "/>
      </g>
      <polygon class="fil28" points="20784,5621 20784,5649 20846,5685 20846,5657 "/>
      <polygon class="fil28" points="20445,5374 20118,5186 20118,5214 20445,5403 "/>
      <polygon class="fil28" points="20311,4886 20118,4775 20118,4803 20311,4914 "/>
      <g>
       <polygon class="fil28" points="20628,5069 20335,4901 20335,4929 20628,5097 "/>
      </g>
      <polygon class="fil28" points="20457,5023 20251,4904 20251,4932 20457,5051 "/>
      <g>
       <polygon class="fil28" points="20673,5147 20481,5036 20481,5064 20673,5175 "/>
       <polygon class="fil28" points="20697,5161 20697,5189 20846,5274 20846,5246 "/>
      </g>
      <polygon class="fil28" points="20156,4900 20156,4928 20311,5018 20311,4990 "/>
      <polygon class="fil28" points="20785,5263 20335,5003 20335,5031 20785,5291 "/>
      <polygon class="fil28" points="20527,5268 20234,5099 20234,5127 20527,5296 "/>
      <polygon class="fil28" points="20785,5416 20552,5282 20552,5310 20785,5444 "/>
      <g>
       <polygon class="fil28" points="20760,5555 20470,5388 20470,5416 20760,5583 "/>
      </g>
      <polygon class="fil28" points="20602,5516 20602,5544 20760,5635 20760,5606 "/>
      <polygon class="fil28" points="20175,5270 20118,5237 20118,5265 20175,5298 "/>
      <g>
       <polygon class="fil28" points="20281,5331 20281,5359 20578,5530 20578,5502 "/>
       <polygon class="fil28" points="20257,5317 20199,5284 20199,5312 20257,5345 "/>
      </g>
      <polygon class="fil28" points="20523,5521 20199,5335 20199,5363 20523,5549 "/>
     </g>
     <g>
      <polygon class="fil29" points="19956,5549 19956,5577 20074,5646 20074,5618 "/>
      <polygon class="fil29" points="19956,5601 19956,5629 20074,5697 20074,5669 "/>
      <polygon class="fil29" points="19956,5652 19956,5680 20074,5748 20074,5720 "/>
      <polygon class="fil29" points="20846,6244 20846,6216 20118,5797 20118,5825 "/>
      <polygon class="fil29" points="19956,5703 19956,5732 20074,5799 20074,5771 "/>
      <polygon class="fil29" points="19956,5755 19956,5783 20074,5851 20074,5823 "/>
      <polygon class="fil29" points="20846,6296 20846,6268 20118,5849 20118,5877 "/>
      <polygon class="fil29" points="19956,5909 19956,5936 20074,6005 20074,5976 "/>
      <polygon class="fil29" points="19956,5960 19956,5988 20074,6056 20074,6028 "/>
      <polygon class="fil29" points="20784,6489 20784,6517 20846,6552 20846,6524 "/>
      <polygon class="fil29" points="20445,6242 20118,6053 20118,6081 20445,6270 "/>
      <polygon class="fil29" points="20311,5754 20118,5643 20118,5671 20311,5782 "/>
      <g>
       <polygon class="fil29" points="20628,5936 20335,5769 20335,5797 20628,5965 "/>
      </g>
      <polygon class="fil29" points="20457,5890 20251,5771 20251,5799 20457,5918 "/>
      <g>
       <polygon class="fil29" points="20673,6015 20481,5904 20481,5932 20673,6043 "/>
       <polygon class="fil29" points="20697,6028 20697,6056 20846,6142 20846,6114 "/>
      </g>
      <polygon class="fil29" points="20156,5768 20156,5796 20311,5885 20311,5857 "/>
      <polygon class="fil29" points="20785,6130 20335,5871 20335,5899 20785,6158 "/>
      <polygon class="fil29" points="20527,6135 20234,5966 20234,5994 20527,6164 "/>
      <polygon class="fil29" points="20785,6284 20552,6150 20552,6178 20785,6312 "/>
      <g>
       <polygon class="fil29" points="20760,6423 20470,6256 20470,6284 20760,6451 "/>
      </g>
      <polygon class="fil29" points="20602,6383 20602,6411 20760,6503 20760,6475 "/>
      <polygon class="fil29" points="20175,6137 20118,6104 20118,6132 20175,6165 "/>
      <g>
       <polygon class="fil29" points="20281,6199 20281,6227 20578,6398 20578,6370 "/>
       <polygon class="fil29" points="20257,6185 20199,6152 20199,6180 20257,6213 "/>
      </g>
      <polygon class="fil29" points="20523,6389 20199,6203 20199,6231 20523,6417 "/>
     </g>
     <g>
      <path class="fil30" d="M16147 752l-98 -57c-5,-2 -10,1 -10,7l0 116c0,6 3,12 7,15l98 56c6,3 11,-1 11,-6l0 -117c0,-5 -2,-11 -8,-14z"/>
      <path class="fil30" d="M16147 927l-98 -56c-5,-3 -10,1 -10,5l0 118c0,6 3,11 7,14l98 57c6,2 11,-1 11,-7l0 -117c0,-6 -2,-11 -8,-14z"/>
      <path class="fil30" d="M16147 1102l-98 -57c-5,-2 -10,1 -10,7l0 117c0,6 3,11 7,14l98 56c6,3 11,-1 11,-6l0 -116c0,-6 -2,-12 -8,-15z"/>
      <path class="fil30" d="M16147 1278l-98 -57c-5,-3 -10,1 -10,6l0 117c0,6 3,11 7,14l98 57c6,3 11,-1 11,-7l0 -117c0,-5 -2,-10 -8,-13z"/>
      <path class="fil30" d="M16147 1453l-98 -56c-5,-3 -10,0 -10,5l0 117c0,6 3,12 7,15l98 56c6,2 11,0 11,-6l0 -117c0,-6 -2,-12 -8,-14z"/>
      <path class="fil30" d="M16147 1628l-98 -57c-5,-3 -10,1 -10,7l0 117c0,6 3,10 7,13l98 57c6,3 11,-1 11,-7l0 -116c0,-6 -2,-11 -8,-14z"/>
      <path class="fil30" d="M16147 1803l-98 -56c-5,-3 -10,0 -10,6l0 116c0,6 3,12 7,15l98 56c6,3 11,0 11,-6l0 -117c0,-5 -2,-11 -8,-14z"/>
      <path class="fil30" d="M16147 1979l-98 -57c-5,-3 -10,1 -10,6l0 117c0,6 3,11 7,14l98 57c6,2 11,-1 11,-7l0 -117c0,-6 -2,-11 -8,-13z"/>
      <path class="fil30" d="M16147 2153l-98 -56c-5,-3 -10,0 -10,6l0 117c0,6 3,11 7,14l98 56c6,3 11,0 11,-6l0 -116c0,-6 -2,-12 -8,-15z"/>
      <path class="fil30" d="M16147 2329l-98 -57c-5,-3 -10,1 -10,7l0 116c0,6 3,11 7,14l98 57c6,3 11,-1 11,-7l0 -116c0,-6 -2,-11 -8,-14z"/>
      <path class="fil30" d="M16147 2504l-98 -56c-5,-3 -10,0 -10,5l0 118c0,5 3,11 7,14l98 56c6,2 11,0 11,-6l0 -117c0,-6 -2,-12 -8,-14z"/>
      <path class="fil30" d="M16147 2679l-98 -57c-5,-3 -10,1 -10,7l0 117c0,6 3,10 7,13l98 57c6,3 11,-1 11,-7l0 -115c0,-7 -2,-12 -8,-15z"/>
     </g>
    </g>
    <g id="_605507832">
     <path class="fil29" d="M18957 2428c-6,6 -8,18 -8,34l0 75 0 2c0,15 -5,22 -14,23 -10,1 -22,-2 -40,-13l0 53c18,10 30,20 40,32 9,11 14,25 14,41l0 75c0,16 1,32 7,44 6,13 15,24 27,36 13,11 29,23 51,35l0 -49c-13,-8 -23,-17 -28,-25 -5,-9 -7,-18 -7,-30l0 -71 0 -3c0,-28 -16,-54 -48,-78l0 -2c32,12 48,4 48,-27l1 -71c0,-11 2,-19 7,-21 5,-3 15,0 28,8l0 -50c-21,-12 -37,-20 -50,-23 -12,-2 -22,-1 -28,5z"/>
     <path class="fil29" d="M19252 2746c-9,-12 -13,-24 -13,-39l0 -2 0 -75c0,-25 -7,-45 -19,-63 -14,-17 -36,-35 -68,-54l0 50c14,8 23,17 28,25 6,8 8,18 8,29l0 72c0,31 16,58 47,81l0 3c-15,-6 -27,-8 -36,-4 -7,5 -11,13 -11,28l0 2 -1 71c0,12 -2,19 -7,22 -6,1 -15,0 -29,-8l0 49c32,18 54,26 68,24 12,-3 19,-16 19,-40l0 -75c0,-15 5,-24 14,-25 8,-2 22,3 39,13l0 -52c-17,-10 -30,-21 -39,-32z"/>
    </g>
    <g id="_605506584">
     <path class="fil29" d="M19441 2699c-6,6 -9,18 -9,35l0 75 0 2c0,15 -5,23 -13,24 -10,1 -23,-4 -40,-14l0 52c17,10 30,21 40,33 8,12 13,25 13,41l0 74c-1,17 2,32 8,44 6,13 14,25 27,37 12,12 29,23 51,36l0 -50c-15,-8 -23,-17 -28,-26 -6,-8 -8,-18 -8,-29l0 -71 0 -3c0,-29 -15,-54 -47,-78l0 -3c32,13 47,4 47,-26l1 -71c0,-12 2,-19 8,-22 5,-2 14,0 28,8l0 -49c-21,-13 -39,-20 -50,-23 -14,-3 -22,-1 -28,4z"/>
     <path class="fil29" d="M19735 3017c-9,-12 -13,-24 -13,-39l0 -2 1 -75c0,-24 -7,-45 -20,-63 -13,-17 -35,-34 -67,-53l0 50c13,8 23,17 28,25 5,8 7,18 7,30l0 71c0,31 17,58 48,81l0 3c-16,-7 -27,-8 -36,-4 -8,4 -12,13 -12,27l0 2 -1 71c0,12 -1,20 -7,22 -5,3 -15,0 -28,-8l0 50c32,19 54,26 67,23 13,-2 20,-15 20,-39l0 -75c0,-16 4,-24 13,-26 9,-1 22,3 40,14l0 -53c-18,-10 -30,-20 -40,-32z"/>
    </g>
    <g id="_605506992">
     <path class="fil29" d="M19338 5234l-47 -27c-6,29 -16,53 -33,70l34 58 -58 32 -33 -57c-23,5 -50,2 -78,-8l0 54 -81 -47 0 -53c-28,-23 -55,-51 -78,-83l-33 19 -57 -98 33 -19c-15,-36 -26,-73 -32,-108l-47 -27 1 -94 46 28c6,-30 18,-54 33,-72l-33 -56 57 -33 34 57c23,-5 49,-2 77,7l1 -54 80 48 0 54c29,22 55,50 78,82l33 -20 58 100 -34 18c16,36 27,73 32,108l47 27 0 94zm-255 -73l0 0c59,34 106,7 107,-59 0,-68 -47,-150 -106,-184 -59,-33 -107,-6 -107,61 0,67 48,149 106,182z"/>
    </g>
    <g id="_605506896">
     <path class="fil29" d="M19676 5685l-38 -23c-4,25 -14,44 -26,58l27 47 -48 27 -27 -47c-18,4 -40,1 -63,-6l0 44 -67 -39 1 -44c-24,-18 -45,-42 -64,-67l-28 16 -46 -81 27 -16c-13,-29 -21,-59 -26,-88l-39 -22 1 -76 38 22c5,-24 14,-43 27,-58l-27 -47 47 -27 27 47c19,-4 41,-2 64,7l0 -44 66 38 0 44c23,18 45,41 63,67l27 -15 48 80 -28 15c13,30 22,60 27,89l37 22 0 77zm-208 -59l0 0c48,28 87,6 87,-49 0,-56 -39,-123 -86,-150 -49,-28 -87,-6 -87,49 -1,55 38,122 86,150z"/>
    </g>
    <g id="_605521920">
     <polygon class="fil29" points="19420,3256 18896,2953 18896,2980 19420,3283 "/>
     <polygon class="fil29" points="19699,3471 18896,3005 18896,3032 19699,3497 "/>
     <polygon class="fil30" points="19699,3418 19454,3277 19454,3303 19699,3445 "/>
     <polygon class="fil29" points="19420,3359 18896,3056 18896,3082 19420,3386 "/>
     <polygon class="fil29" points="19699,3572 18896,3108 18896,3135 19699,3599 "/>
     <polygon class="fil30" points="19699,3520 19454,3378 19454,3405 19699,3547 "/>
    </g>
    <g id="_605510856">
     <polygon class="fil29" points="19420,3506 18896,3203 18896,3229 19420,3532 "/>
     <polygon class="fil29" points="19699,3720 18896,3255 18896,3281 19699,3747 "/>
     <polygon class="fil29" points="19699,3667 19454,3526 19454,3553 19699,3695 "/>
     <polygon class="fil29" points="19420,3608 18896,3305 18896,3332 19420,3635 "/>
     <polygon class="fil29" points="19699,3822 18896,3358 18896,3384 19699,3848 "/>
     <polygon class="fil29" points="19699,3770 19454,3628 19454,3654 19699,3796 "/>
    </g>
    <g id="_616189992">
     <polygon class="fil29" points="19420,3755 18896,3452 18896,3479 19420,3782 "/>
     <polygon class="fil29" points="19699,3970 18896,3504 18896,3531 19699,3996 "/>
     <polygon class="fil29" points="19699,3916 19454,3776 19454,3802 19699,3944 "/>
     <polygon class="fil30" points="19420,3858 18896,3555 18896,3581 19420,3884 "/>
     <polygon class="fil29" points="19699,4071 18896,3607 18896,3634 19699,4098 "/>
     <polygon class="fil29" points="19699,4019 19454,3877 19454,3904 19699,4046 "/>
    </g>
    <g id="_616189368">
     <polygon class="fil29" points="19420,4005 18896,3702 18896,3728 19420,4031 "/>
     <polygon class="fil29" points="19699,4219 18896,3754 18896,3780 19699,4246 "/>
     <polygon class="fil30" points="19699,4166 19454,4025 19454,4052 19699,4193 "/>
     <polygon class="fil29" points="19420,4107 18896,3804 18896,3831 19420,4134 "/>
     <polygon class="fil29" points="19699,4321 18896,3856 18896,3883 19699,4347 "/>
     <polygon class="fil30" points="19699,4269 19454,4127 19454,4153 19699,4295 "/>
    </g>
    <g id="_616188672">
     <polygon class="fil29" points="19420,4254 18896,3951 18896,3978 19420,4281 "/>
     <polygon class="fil29" points="19699,4468 18896,4003 18896,4030 19699,4495 "/>
     <polygon class="fil30" points="19699,4415 19454,4274 19454,4301 19699,4442 "/>
     <polygon class="fil29" points="19420,4357 18896,4054 18896,4080 19420,4383 "/>
     <polygon class="fil30" points="19699,4570 18896,4106 18896,4132 19699,4597 "/>
     <polygon class="fil29" points="19699,4518 19454,4376 19454,4403 19699,4545 "/>
    </g>
    <g id="_616220784">
     <g>
      <polygon class="fil4" points="11471,901 11471,950 11678,1069 11678,1020 "/>
      <polygon class="fil4" points="11471,990 11471,1040 11678,1160 11678,1111 "/>
      <polygon class="fil4" points="11471,1081 11471,1130 11678,1250 11678,1201 "/>
      <polygon class="fil4" points="13038,2125 13038,2075 11756,1336 11756,1386 "/>
      <polygon class="fil4" points="11471,1172 11471,1221 11678,1341 11678,1291 "/>
      <polygon class="fil4" points="11471,1261 11471,1311 11678,1431 11678,1381 "/>
      <polygon class="fil4" points="13038,2215 13038,2166 11756,1427 11756,1476 "/>
      <polygon class="fil4" points="11471,1533 11471,1582 11678,1702 11678,1652 "/>
      <polygon class="fil4" points="11471,1623 11471,1673 11678,1792 11678,1743 "/>
      <polygon class="fil4" points="11471,1984 11471,2034 11678,2153 11678,2104 "/>
      <polygon class="fil4" points="11471,2074 11471,2124 11678,2244 11678,2194 "/>
      <g>
       <polygon class="fil4" points="12565,2705 11756,2239 11756,2288 12565,2755 "/>
       <polygon class="fil4" points="12608,2730 12608,2780 13038,3028 13038,2978 "/>
      </g>
      <g>
       <polygon class="fil4" points="12163,2383 11756,2148 11756,2199 12163,2433 "/>
       <polygon class="fil4" points="12205,2408 12205,2457 13038,2938 13038,2889 "/>
      </g>
      <polygon class="fil4" points="12928,2554 12928,2604 13038,2667 13038,2617 "/>
      <polygon class="fil4" points="12332,2119 11756,1787 11756,1837 12332,2170 "/>
      <polygon class="fil4" points="12096,1261 11756,1066 11756,1115 12096,1311 "/>
      <g>
       <polygon class="fil4" points="12653,1583 12139,1286 12139,1335 12653,1632 "/>
      </g>
      <polygon class="fil4" points="12354,1500 11991,1291 11991,1341 12354,1549 "/>
      <g>
       <polygon class="fil4" points="12733,1719 12396,1525 12396,1574 12733,1769 "/>
       <polygon class="fil4" points="12777,1744 12777,1793 13038,1944 13038,1895 "/>
      </g>
      <polygon class="fil4" points="11823,1285 11823,1334 12096,1491 12096,1442 "/>
      <polygon class="fil4" points="12931,1924 12139,1466 12139,1516 12931,1973 "/>
      <polygon class="fil4" points="12477,1933 11960,1634 11960,1683 12477,1982 "/>
      <polygon class="fil4" points="12931,2195 12520,1957 12520,2007 12931,2244 "/>
      <g>
       <polygon class="fil4" points="12886,2439 12375,2145 12375,2194 12886,2488 "/>
      </g>
      <polygon class="fil4" points="12608,2368 12608,2419 12886,2579 12886,2530 "/>
      <polygon class="fil4" points="11857,1936 11756,1878 11756,1927 11857,1985 "/>
      <g>
       <polygon class="fil4" points="12044,2044 12044,2093 12565,2394 12565,2344 "/>
       <polygon class="fil4" points="12002,2019 11899,1960 11899,2009 12002,2069 "/>
      </g>
      <polygon class="fil4" points="12469,2379 11899,2051 11899,2100 12469,2428 "/>
     </g>
    </g>
    <g id="_616201920">
     <g>
      <g>
       <path class="fil31" d="M13767 1594l-844 -486c-26,-15 -56,-14 -85,3l0 0 -185 107 87 117 32 36 0 836c0,50 26,96 69,121l631 365 7 35 129 181 197 -117c1,0 1,0 1,-1l2 0 0 -1c18,-10 30,-30 30,-54l0 -1017c0,-51 -27,-99 -71,-125z"/>
       <path class="fil15" d="M13569 1710l-853 -492c-42,-24 -94,6 -94,54l0 1022c0,49 27,96 70,121l853 493c43,24 96,-7 96,-56l0 -1017c0,-51 -28,-99 -72,-125z"/>
      </g>
     </g>
     <g>
      <path class="fil5" d="M13609 2908l-1 1 0 -1c0,0 1,0 1,0z"/>
      <path class="fil32" d="M13641 2852l0 -1017c0,-18 -4,-33 -9,-49l198 -114c4,15 8,31 8,47l0 1017c0,24 -12,44 -30,54l0 1 -2 0c0,1 0,1 -1,1l-196 116c19,-12 32,-31 32,-56z"/>
     </g>
    </g>
    <g id="_616200984">
     <g>
      <g>
       <path class="fil33" d="M13944 2128l-843 -486c-26,-16 -56,-15 -85,3l0 0 -185 107 86 117 32 36 0 836c0,49 26,96 70,121l631 364 7 35 128 181 198 -116c1,-1 1,-1 1,-1l2 -1 0 0c17,-11 30,-30 30,-54l0 -1017c0,-52 -27,-100 -72,-125z"/>
       <path class="fil24" d="M13747 2244l-854 -492c-41,-24 -93,6 -93,54l0 1021c0,50 26,95 69,121l853 493c43,25 97,-6 97,-55l0 -1018c0,-51 -28,-98 -72,-124z"/>
      </g>
     </g>
     <g>
      <path class="fil5" d="M13786 3442l-1 0 0 0c0,0 1,0 1,0z"/>
      <path class="fil34" d="M13819 3386l0 -1018c0,-17 -4,-33 -10,-49l198 -114c5,16 9,31 9,48l0 1017c0,24 -13,43 -30,54l0 0 -2 1c0,0 0,0 -1,1l-196 115c18,-11 32,-31 32,-55z"/>
     </g>
    </g>
    <g id="_616200480">
     <g>
      <g>
       <path class="fil6" d="M13025 2028l-844 -487c-26,-14 -55,-14 -84,3l0 0 -185 107 86 117 32 37 0 836c0,50 27,95 69,120l631 365 7 36 129 180 198 -117c0,0 1,0 1,-1l1 0 0 0c18,-11 31,-30 31,-55l0 -1017c0,-51 -28,-98 -72,-124z"/>
       <path class="fil5" d="M12828 2144l-854 -493c-42,-24 -94,6 -94,54l0 1022c0,50 27,96 70,121l854 493c42,24 95,-6 95,-56l0 -1017c0,-51 -27,-98 -71,-124z"/>
      </g>
     </g>
     <g>
      <path class="fil5" d="M12867 3341l-1 1 -1 0c1,-1 1,-1 2,-1z"/>
      <path class="fil7" d="M12899 3285l0 -1017c0,-16 -4,-33 -9,-48l197 -115c6,15 10,31 10,47l0 1017c0,25 -13,44 -31,55l0 0 -1 0c0,1 -1,1 -1,1l-197 116c20,-11 32,-31 32,-56z"/>
     </g>
    </g>
    <g id="_616199184">
     <g>
      <g>
       <path class="fil35" d="M12654 2245l-843 -487c-27,-15 -56,-14 -85,3l0 0 -186 108 87 116 32 37 0 836c0,49 26,95 69,120l632 365 6 35 129 180 199 -115c0,-1 0,-1 1,-1l1 -1 0 0c17,-11 29,-30 29,-54l0 -1018c0,-51 -27,-99 -71,-124z"/>
       <path class="fil30" d="M12456 2361l-853 -492c-41,-25 -94,5 -94,54l0 1021c0,50 27,95 70,120l853 493c43,26 97,-5 97,-55l0 -1017c0,-51 -27,-99 -73,-124z"/>
      </g>
     </g>
     <g>
      <path class="fil5" d="M12497 3557l-2 1 0 0c1,0 1,0 2,-1z"/>
      <path class="fil36" d="M12529 3502l0 -1017c0,-17 -4,-34 -10,-49l198 -114c5,16 8,31 8,47l0 1018c0,24 -12,43 -29,54l0 0 -1 1c-1,0 -1,0 -1,1l-197 114c18,-10 32,-30 32,-55z"/>
     </g>
    </g>
    <path class="fil37" d="M12282 2461l-842 -486c-26,-15 -56,-15 -85,4l0 -1 -185 107 86 116 32 37 0 836c0,50 26,95 70,121l631 364 7 36 128 181 198 -117c1,0 1,0 1,0l2 -1 0 0c17,-12 30,-31 30,-55l0 -1017c0,-52 -27,-99 -73,-125z"/>
    <path class="fil3" d="M12086 2577l-854 -492c-41,-24 -93,5 -93,54l0 1022c0,49 26,95 69,120l853 494c43,24 97,-6 97,-56l0 -1018c0,-51 -28,-98 -72,-124z"/>
    <path class="fil5" d="M12125 3775l-1 1 0 0c0,-1 1,-1 1,-1z"/>
    <path class="fil10" d="M12158 3719l0 -1018c0,-16 -4,-32 -10,-48l198 -115c5,16 9,31 9,48l0 1017c0,24 -13,43 -30,55l0 0 -2 1c0,0 0,0 -1,0l-196 116c18,-11 32,-31 32,-56z"/>
    <g id="_616198392">
     <g>
      <g>
       <path class="fil6" d="M11912 2678l-844 -486c-26,-16 -55,-15 -84,3l0 0 -185 107 86 117 32 36 0 836c0,49 27,96 69,121l632 365 6 34 130 181 197 -116c0,-1 1,-1 1,-1l1 -1 0 0c19,-11 31,-30 31,-54l0 -1017c0,-51 -28,-100 -72,-125z"/>
       <path class="fil5" d="M11715 2794l-853 -492c-43,-24 -94,6 -94,54l0 1021c0,50 26,96 70,121l853 493c42,25 95,-6 95,-55l0 -1017c0,-52 -27,-99 -71,-125z"/>
      </g>
     </g>
     <g>
      <path class="fil5" d="M11755 3992l-1 0 0 0c0,0 1,0 1,0z"/>
      <path class="fil7" d="M11786 3936l0 -1017c0,-18 -3,-34 -9,-50l198 -114c5,16 9,31 9,48l0 1017c0,24 -12,43 -31,54l0 0 -1 1c0,0 -1,0 -1,1l-196 115c19,-11 31,-31 31,-55z"/>
     </g>
    </g>
    <g id="_616198104">
     <path class="fil38" d="M10971 2790l-104 -60 -1 374 69 39 0 -132 30 18c40,23 71,29 93,21 22,-9 33,-33 33,-74 0,-38 -10,-73 -30,-104 -21,-32 -51,-59 -90,-82zm35 183l0 0c-11,3 -26,-1 -48,-14l-23 -12 0 -111 32 18c18,11 33,23 41,37 9,14 14,29 13,49 0,18 -5,29 -15,33z"/>
     <polygon class="fil39" points="11332,3145 11203,3071 11203,2925 11135,2885 11133,3258 11202,3298 11202,3138 11332,3211 11331,3372 11399,3413 11400,3039 11332,3000 "/>
     <path class="fil40" d="M11658 3217c-20,-31 -50,-58 -90,-81l-103 -60 -2 373 70 40 0 -133 29 17c41,23 72,31 93,22 22,-8 34,-32 34,-73 0,-39 -11,-73 -31,-105zm-55 100l0 0c-11,4 -26,-1 -47,-12l-23 -14 1 -111 30 18c20,11 33,24 42,38 9,14 13,30 13,48 0,19 -5,30 -16,33z"/>
    </g>
    <g id="_616194384">
     <path class="fil6" d="M13212 2338c0,12 -2,20 -6,24 -4,4 -10,3 -18,-2 -6,-3 -12,-8 -19,-14l0 41c7,7 15,12 25,18 12,7 22,10 30,8 10,-1 17,-6 22,-16 4,-9 6,-22 6,-38l1 -243 -40 -24 -1 246z"/>
     <path class="fil6" d="M13325 2345l58 33 11 71 42 23 -54 -283 -55 -32 -55 220 40 24 13 -56zm24 -109l0 0c2,-10 4,-21 6,-30 0,5 2,16 4,31 2,16 3,26 4,30l12 65 -42 -24c9,-37 14,-61 16,-72z"/>
     <path class="fil6" d="M13534 2529l52 -221 -41 -24 -28 137c-4,15 -6,32 -9,52 -2,-26 -5,-47 -7,-61l-29 -170 -40 -23 50 280 52 30z"/>
     <path class="fil6" d="M13622 2580l13 -56 57 33 12 70 41 23 -53 -283 -55 -31 -56 221 41 23zm37 -165l0 0c2,-11 4,-21 5,-30 0,5 1,15 4,31 2,16 4,26 5,30l11 64 -41 -23c9,-37 14,-62 16,-72z"/>
     <polygon class="fil6" points="13581,2667 13272,2488 13272,2505 13581,2683 "/>
     <polygon class="fil6" points="13272,2534 13745,2809 13745,2793 13272,2519 "/>
     <polygon class="fil6" points="13601,2695 13745,2778 13745,2762 13601,2678 "/>
     <polygon class="fil6" points="13581,2727 13272,2549 13272,2564 13581,2743 "/>
     <polygon class="fil6" points="13272,2595 13745,2868 13745,2853 13272,2579 "/>
     <polygon class="fil6" points="13601,2754 13745,2837 13745,2822 13601,2739 "/>
     <polygon class="fil6" points="13581,2813 13272,2635 13272,2651 13581,2830 "/>
     <polygon class="fil6" points="13272,2682 13745,2955 13745,2940 13272,2666 "/>
     <polygon class="fil6" points="13601,2841 13745,2924 13745,2909 13601,2826 "/>
     <polygon class="fil6" points="13581,2874 13272,2696 13272,2711 13581,2890 "/>
     <polygon class="fil6" points="13272,2742 13745,3015 13745,3000 13272,2726 "/>
     <polygon class="fil6" points="13601,2901 13745,2984 13745,2969 13601,2886 "/>
     <polygon class="fil6" points="13581,2961 13272,2782 13272,2798 13581,2976 "/>
     <polygon class="fil6" points="13272,2829 13745,3102 13745,3086 13272,2813 "/>
     <polygon class="fil6" points="13601,2988 13745,3071 13745,3056 13601,2973 "/>
     <polygon class="fil6" points="13581,3021 13272,2842 13272,2858 13581,3036 "/>
     <polygon class="fil6" points="13272,2889 13745,3163 13745,3146 13272,2873 "/>
     <polygon class="fil6" points="13601,3048 13745,3132 13745,3115 13601,3032 "/>
     <polygon class="fil6" points="13581,3108 13272,2929 13272,2945 13581,3123 "/>
     <polygon class="fil6" points="13272,2975 13745,3250 13745,3233 13272,2960 "/>
     <polygon class="fil6" points="13601,3135 13745,3219 13745,3202 13601,3119 "/>
     <polygon class="fil6" points="13581,3168 13272,2989 13272,3004 13581,3183 "/>
     <polygon class="fil6" points="13272,3035 13745,3309 13745,3294 13272,3020 "/>
     <polygon class="fil6" points="13601,3195 13745,3279 13745,3263 13601,3179 "/>
    </g>
    <g id="_616192632">
     <g>
      <g>
       <path class="fil41" d="M-12162 2804c0,-15 7,-28 21,-40 13,-12 31,-18 54,-18l174 0c55,0 102,5 141,17 39,12 70,28 94,49 23,21 40,46 51,75 11,30 16,62 16,99l0 8c0,42 -10,79 -29,109 -19,30 -53,54 -102,72l137 281c9,12 11,26 4,43 -7,17 -19,31 -38,42 -19,9 -36,12 -54,7 -17,-4 -29,-13 -37,-25l-138 -297c-7,1 -14,1 -21,1 -8,0 -16,0 -24,0l-104 0 0 267c0,15 -6,28 -19,39 -13,12 -30,17 -51,17 -23,0 -41,-7 -54,-20 -14,-13 -21,-27 -21,-42l0 -684zm145 65l0 0 0 239 104 0c56,0 96,-9 121,-28 24,-19 36,-44 36,-73l0 -24c0,-35 -12,-63 -36,-83 -25,-20 -65,-31 -121,-31l-104 0z"/>
       <path class="fil41" d="M-10955 3158c0,39 -7,66 -22,81 -15,16 -40,24 -74,24l-294 0 0 32c0,40 12,72 37,95 24,24 58,36 103,36 22,0 43,-1 61,-4 19,-3 34,-7 44,-12 12,-6 23,-11 34,-17 10,-6 20,-9 29,-9 17,0 30,5 39,15 9,10 14,23 15,38 0,14 -6,27 -18,40 -11,13 -27,25 -47,36 -20,11 -43,20 -70,27 -27,7 -55,10 -86,10 -42,0 -80,-7 -115,-20 -34,-13 -64,-31 -90,-53 -25,-22 -44,-48 -58,-79 -14,-30 -21,-62 -21,-95l0 -132c0,-36 6,-70 20,-102 14,-33 32,-61 56,-85 24,-23 53,-42 86,-56 33,-14 69,-21 109,-21 47,0 87,7 120,22 33,16 60,36 81,60 21,24 36,51 46,81 10,30 15,59 15,88zm-264 -131l0 0c-37,0 -66,11 -88,35 -22,23 -35,55 -38,93l253 0 0 -18c0,-34 -12,-61 -36,-81 -23,-20 -53,-29 -91,-29z"/>
       <path class="fil41" d="M-10821 3190c0,-39 5,-75 16,-110 12,-34 28,-64 51,-90 23,-26 52,-46 87,-61 36,-15 78,-22 127,-22 47,0 89,7 125,22 35,15 64,35 87,61 24,26 41,56 52,90 11,35 17,71 17,110l0 85c0,37 -6,73 -17,106 -11,33 -28,61 -52,86 -23,25 -52,45 -87,59 -36,14 -78,22 -125,22 -49,0 -91,-8 -127,-22 -35,-14 -64,-34 -87,-59 -23,-25 -39,-53 -51,-86 -11,-33 -16,-69 -16,-106l0 -85zm146 87l0 0c0,45 12,80 36,105 24,25 57,37 99,37 42,0 75,-12 99,-37 24,-25 36,-60 36,-105l0 -90c0,-49 -12,-87 -36,-112 -24,-26 -57,-39 -99,-39 -42,0 -75,13 -99,39 -24,25 -36,63 -36,112l0 90z"/>
       <path class="fil41" d="M-9575 3538c0,46 -7,86 -22,119 -15,34 -35,61 -60,83 -26,22 -55,38 -88,49 -33,11 -67,16 -104,16 -31,0 -59,-2 -84,-5 -24,-3 -42,-7 -53,-11 -27,-17 -41,-38 -41,-63 0,-18 6,-33 17,-43 11,-11 28,-17 51,-17 9,0 22,2 39,5 17,4 41,5 71,5 19,0 37,-2 52,-5 16,-4 30,-11 41,-21 12,-11 21,-25 27,-42 7,-18 10,-41 10,-70l0 -61 -5 -2c-13,22 -32,40 -57,54 -25,14 -59,21 -100,21 -77,0 -137,-24 -179,-72 -42,-49 -63,-115 -63,-199l0 -73c0,-39 6,-76 18,-113 12,-36 30,-68 53,-96 24,-27 54,-49 90,-66 36,-17 78,-26 127,-26 45,0 85,6 118,18 33,12 60,29 81,50 21,21 36,46 46,75 10,29 15,59 15,92l0 398zm-274 -123l0 0c35,0 65,-10 90,-30 25,-20 39,-52 40,-95l0 -155c0,-32 -10,-56 -30,-71 -20,-16 -49,-24 -86,-24 -21,0 -41,5 -58,13 -17,9 -32,20 -45,35 -12,14 -22,31 -29,51 -7,19 -10,40 -10,62l0 83c0,87 43,131 128,131z"/>
      </g>
      <path class="fil42" d="M-9168 2905c34,0 64,7 90,21 26,13 47,30 64,49l8 -2 0 -226c0,-15 7,-28 19,-40 13,-12 30,-18 51,-18 23,0 41,6 54,18 13,12 20,25 20,40l0 533c0,39 -6,75 -18,108 -11,33 -28,61 -51,85 -23,24 -51,43 -85,57 -35,13 -74,20 -120,20 -48,0 -91,-7 -127,-22 -35,-15 -65,-35 -89,-61 -24,-25 -42,-55 -54,-90 -12,-34 -18,-70 -18,-109l0 -81c0,-38 5,-75 15,-109 10,-34 25,-64 46,-90 20,-25 47,-46 79,-60 32,-15 71,-23 116,-23zm32 510l0 0c37,0 67,-10 92,-31 26,-20 38,-53 38,-99l0 -119c-1,-43 -15,-75 -40,-95 -25,-21 -55,-31 -90,-31 -43,0 -77,13 -103,39 -26,25 -39,60 -39,104l0 90c0,44 13,78 39,104 26,25 60,38 103,38z"/>
      <path class="fil42" d="M-8172 3158c0,39 -7,66 -22,81 -15,16 -40,24 -74,24l-293 0 0 32c0,40 12,72 36,95 24,24 59,36 103,36 23,0 43,-1 62,-4 18,-3 33,-7 44,-12 11,-6 22,-11 33,-17 11,-6 21,-9 30,-9 16,0 29,5 38,15 9,10 14,23 15,38 0,14 -6,27 -17,40 -12,13 -28,25 -47,36 -20,11 -44,20 -70,27 -27,7 -56,10 -86,10 -42,0 -81,-7 -115,-20 -35,-13 -65,-31 -90,-53 -25,-22 -45,-48 -59,-79 -14,-30 -21,-62 -21,-95l0 -132c0,-36 7,-70 20,-102 14,-33 33,-61 57,-85 24,-23 52,-42 85,-56 33,-14 69,-21 109,-21 47,0 87,7 120,22 33,16 60,36 81,60 21,24 37,51 47,81 9,30 14,59 14,88zm-263 -131l0 0c-37,0 -67,11 -89,35 -22,23 -34,55 -37,93l252 0 0 -18c0,-34 -12,-61 -35,-81 -24,-20 -54,-29 -91,-29z"/>
      <path class="fil42" d="M-7704 3498c-4,14 -13,26 -28,37 -15,10 -32,15 -52,15 -21,0 -38,-5 -53,-15 -14,-11 -24,-23 -28,-37l-199 -512c-4,-14 -2,-29 7,-44 10,-15 25,-26 47,-32 21,-5 39,-3 56,5 16,8 26,20 30,34l140 420 138 -420c5,-14 16,-26 32,-34 16,-8 34,-10 54,-5 22,6 38,17 47,32 10,15 13,30 8,44l-199 512z"/>
     </g>
     <g>
      <path class="fil43" d="M-12490 2944c0,521 -422,944 -943,944 -521,0 -943,-423 -943,-944 0,-521 422,-943 943,-943 521,0 943,422 943,943z"/>
      <g>
       <path class="fil44" d="M-13712 3357c34,-34 34,-89 0,-122l1 -2c-12,-9 -24,-20 -36,-31 -150,-150 -150,-394 0,-544 150,-150 394,-150 544,0 11,12 22,24 32,36l0 -1c34,34 89,34 123,0 32,-31 34,-81 6,-116 0,0 0,0 0,0 -2,-2 -4,-4 -6,-6l0 -1c-10,-12 -21,-24 -32,-35 -218,-218 -572,-218 -790,0 -218,218 -218,572 0,790 16,16 32,30 49,44 34,22 80,18 109,-12z"/>
       <g>
        <path class="fil41" d="M-13327 2838c58,58 58,152 0,210 -58,58 -152,58 -210,0 -58,-58 -58,-152 0,-210 58,-58 152,-58 210,0z"/>
       </g>
       <path class="fil44" d="M-12796 3444c38,38 38,98 0,136 -37,37 -98,37 -135,0l-312 -312c-37,-37 -37,-98 0,-136 37,-37 98,-37 136,0l311 312z"/>
      </g>
     </g>
    </g>
    <path class="fil45" d="M-2912 20996c0,0 -4628,-1775 -712,-2357 3915,-582 -6158,-3934 -1214,-4876 4946,-940 -241,-2643 -1999,-2911 -1759,-269 4855,-458 5784,-1856 929,-1399 -3077,-3321 -5284,-3326 -2207,-5 0,1028 -704,1804 -705,778 -2463,1510 -4187,22 -1469,-1269 -3576,-1860 -2810,529 765,2389 -1774,445 -1774,445l-2392 7892c0,0 15096,4575 15292,4634z"/>
   </g>
  </g>
  <polygon class="fil1" points="-15750,500 24250,500 24250,10500 -15750,10500 "/>
 </g>
</svg>
