<?xml version="1.0" encoding="UTF-8"?>
<!DOCTYPE svg PUBLIC "-//W3C//DTD SVG 1.1//EN" "http://www.w3.org/Graphics/SVG/1.1/DTD/svg11.dtd">
<!-- Creator: CorelDRAW X8 -->
<svg xmlns="http://www.w3.org/2000/svg" xml:space="preserve" width="8.5in" height="11in" version="1.1" style="shape-rendering:geometricPrecision; text-rendering:geometricPrecision; image-rendering:optimizeQuality; fill-rule:evenodd; clip-rule:evenodd"
viewBox="0 0 8500 11000"
 xmlns:xlink="http://www.w3.org/1999/xlink">
 <defs>
  <style type="text/css">
   <![CDATA[
    .fil31 {fill:#0077D2;fill-rule:nonzero}
    .fil26 {fill:#0078BB;fill-rule:nonzero}
    .fil21 {fill:#007FDD;fill-rule:nonzero}
    .fil0 {fill:#00B8E5;fill-rule:nonzero}
    .fil22 {fill:#00EBFF;fill-rule:nonzero}
    .fil4 {fill:#023D5F;fill-rule:nonzero}
    .fil35 {fill:#062F44;fill-rule:nonzero}
    .fil47 {fill:#0A0A33;fill-rule:nonzero}
    .fil45 {fill:#0B0B3A;fill-rule:nonzero}
    .fil37 {fill:#103649;fill-rule:nonzero}
    .fil36 {fill:#16405A;fill-rule:nonzero}
    .fil20 {fill:#167F7F;fill-rule:nonzero}
    .fil19 {fill:#1C74A2;fill-rule:nonzero}
    .fil17 {fill:#2085B7;fill-rule:nonzero}
    .fil18 {fill:#2686E2;fill-rule:nonzero}
    .fil5 {fill:#2B99FF;fill-rule:nonzero}
    .fil39 {fill:#3A3A3A;fill-rule:nonzero}
    .fil6 {fill:#767F82;fill-rule:nonzero}
    .fil33 {fill:#9AA4A9;fill-rule:nonzero}
    .fil52 {fill:#AFD4DD;fill-rule:nonzero}
    .fil10 {fill:#C2C8CB;fill-rule:nonzero}
    .fil51 {fill:#C5E6EF;fill-rule:nonzero}
    .fil29 {fill:#CAD4DC;fill-rule:nonzero}
    .fil3 {fill:#DAE4E5;fill-rule:nonzero}
    .fil54 {fill:#DB856E;fill-rule:nonzero}
    .fil28 {fill:#DBE2E8;fill-rule:nonzero}
    .fil16 {fill:#E05241;fill-rule:nonzero}
    .fil14 {fill:#E08241;fill-rule:nonzero}
    .fil12 {fill:#E0C2BE;fill-rule:nonzero}
    .fil11 {fill:#E1B83F;fill-rule:nonzero}
    .fil46 {fill:#E3CAAF;fill-rule:nonzero}
    .fil9 {fill:#E3DFE2;fill-rule:nonzero}
    .fil24 {fill:#EBE7D1;fill-rule:nonzero}
    .fil30 {fill:#EBEFF2;fill-rule:nonzero}
    .fil2 {fill:#EBF5F7;fill-rule:nonzero}
    .fil38 {fill:#ECF1F2;fill-rule:nonzero}
    .fil55 {fill:#ED9C80;fill-rule:nonzero}
    .fil34 {fill:#F39F86;fill-rule:nonzero}
    .fil15 {fill:#FC5E49;fill-rule:nonzero}
    .fil13 {fill:#FC9549;fill-rule:nonzero}
    .fil8 {fill:#FCDED6;fill-rule:nonzero}
    .fil42 {fill:#FDBE37;fill-rule:nonzero}
    .fil25 {fill:#FDC63C;fill-rule:nonzero}
    .fil7 {fill:#FDD247;fill-rule:nonzero}
    .fil50 {fill:#FEE099;fill-rule:nonzero}
    .fil48 {fill:#FF703D;fill-rule:nonzero}
    .fil53 {fill:#FFA26D;fill-rule:nonzero}
    .fil44 {fill:#FFA92C;fill-rule:nonzero}
    .fil27 {fill:#FFAD00;fill-rule:nonzero}
    .fil49 {fill:#FFB199;fill-rule:nonzero}
    .fil43 {fill:#FFC25B;fill-rule:nonzero}
    .fil41 {fill:#FFD198;fill-rule:nonzero}
    .fil40 {fill:#FFE7C5;fill-rule:nonzero}
    .fil23 {fill:#FFF1D7;fill-rule:nonzero}
    .fil32 {fill:#FFFAC6;fill-rule:nonzero}
    .fil1 {fill:white;fill-rule:nonzero}
   ]]>
  </style>
 </defs>
 <g id="Layer_x0020_1">
  <metadata id="CorelCorpID_0Corel-Layer"/>
  <g id="_750766792">
   <path class="fil0" d="M5033 5586c-8,10 -23,11 -33,3l-50 -40c-10,-8 -11,-23 -3,-33l40 -50c8,-10 23,-12 33,-4l50 41c10,8 12,23 3,33l-40 50z"/>
   <path class="fil1" d="M4993 5509c2,2 5,5 8,6 4,1 8,-1 10,-5 2,-3 2,-6 -1,-9 -2,-2 -4,-4 -6,-6 -4,5 -8,9 -11,14zm6 -29c8,5 16,10 22,17 5,6 5,14 1,21 -4,7 -12,10 -20,8 -5,-1 -9,-3 -13,-7 -1,0 -2,-1 -3,-2 -4,5 -9,11 -13,16 -4,-3 -7,-6 -10,-8 12,-15 24,-30 36,-45z"/>
   <path class="fil1" d="M5045 5539c-2,2 -5,3 -7,5 -2,-2 -3,-4 -5,-6 -1,-1 -2,-2 -3,-3 -1,0 -3,0 -4,1 0,1 -1,2 0,3 0,2 1,4 2,5 1,2 2,4 3,6 3,9 -4,17 -13,16 -6,0 -10,-3 -14,-7 -3,-3 -5,-6 -7,-9 3,-2 5,-4 7,-6 3,4 5,7 8,10 1,1 2,1 3,1 1,0 2,0 3,0 1,-1 1,-3 1,-4 -1,-1 -2,-2 -2,-4 -1,-2 -3,-4 -4,-7 -2,-8 4,-16 13,-16 7,1 16,7 19,15z"/>
   <path class="fil2" d="M5098 5190c0,0 -379,0 -446,0 -68,0 -68,-83 -9,-100 62,-17 105,22 105,22 0,0 16,-205 170,-181 121,19 114,151 114,151 0,0 25,-54 90,-34 68,22 61,142 -24,142z"/>
   <path class="fil3" d="M4879 5825c0,40 -258,74 -576,74 -318,0 -576,-34 -576,-74 0,-41 258,-75 576,-75 318,0 576,34 576,75z"/>
   <path class="fil3" d="M5301 5867c0,50 -189,92 -422,92 -234,0 -423,-42 -423,-92 0,-51 189,-93 423,-93 233,0 422,42 422,93z"/>
   <path class="fil2" d="M3778 5513c0,0 -332,0 -391,0 -59,0 -60,-67 -7,-81 54,-13 92,18 92,18 0,0 14,-164 148,-145 106,15 100,121 100,121 0,0 22,-43 79,-27 60,17 53,114 -21,114z"/>
   <path class="fil2" d="M3866 4825c0,0 267,0 314,0 48,0 48,-54 6,-65 -43,-11 -74,15 -74,15 0,0 -11,-133 -119,-117 -86,12 -81,97 -81,97 0,0 -17,-35 -63,-22 -48,14 -43,92 17,92z"/>
   <path class="fil3" d="M3922 5798c0,15 -84,27 -188,27 -104,0 -188,-12 -188,-27 0,-15 84,-26 188,-26 104,0 188,11 188,26z"/>
   <polygon class="fil4" points="3623,5801 3682,5181 3670,5180 3611,5799 "/>
   <polygon class="fil4" points="3859,5799 3800,5180 3788,5181 3847,5801 "/>
   <polygon class="fil4" points="3672,5236 3799,5236 3799,5224 3672,5224 "/>
   <polygon class="fil4" points="3665,5310 3806,5310 3806,5298 3665,5298 "/>
   <polygon class="fil4" points="3657,5384 3813,5384 3813,5372 3657,5372 "/>
   <polygon class="fil4" points="3650,5459 3820,5459 3820,5447 3650,5447 "/>
   <polygon class="fil4" points="3643,5533 3827,5533 3827,5521 3643,5521 "/>
   <polygon class="fil4" points="3636,5608 3834,5608 3834,5596 3636,5596 "/>
   <polygon class="fil4" points="3629,5682 3841,5682 3841,5670 3629,5670 "/>
   <polygon class="fil4" points="3622,5756 3846,5756 3846,5744 3622,5744 "/>
   <path class="fil5" d="M3802 5184l-133 0c-5,0 -8,-3 -8,-8 0,-4 3,-7 8,-7l133 0c4,0 7,3 7,7 0,5 -3,8 -7,8z"/>
   <path class="fil6" d="M4250 5792l0 9c0,2 1,3 3,3 2,0 3,-1 3,-3l0 -9c0,-1 -1,-3 -3,-3 -2,0 -3,2 -3,3z"/>
   <path class="fil6" d="M4250 5816l0 14c0,1 0,2 0,3 0,2 1,3 3,3 1,0 3,-1 3,-2 0,-2 0,-3 0,-4l0 -14c0,-2 -1,-3 -3,-3 -2,0 -3,1 -3,3zm-2 31c-2,5 -4,11 -6,15 -1,2 -1,4 1,4 1,1 3,1 4,-1 3,-5 5,-11 7,-17 0,-1 -1,-3 -3,-3 -1,-1 -3,0 -3,2l0 0zm-14 27c-4,4 -8,7 -13,11 -1,1 -2,2 -1,4 1,1 3,1 4,1 5,-4 10,-8 14,-12 1,-2 1,-4 0,-5 -1,-1 -3,-1 -4,1zm-25 17c-5,2 -11,3 -16,4 -2,0 -3,2 -3,3 0,2 2,3 3,3 7,-1 12,-2 18,-4 2,-1 2,-3 2,-4 -1,-2 -3,-3 -4,-2zm-30 5l-18 0c-2,0 -3,1 -3,3 0,1 1,3 3,3l18 0c1,0 3,-2 3,-3 0,-2 -2,-3 -3,-3zm-32 0l-18 0c-1,0 -3,1 -3,3 0,1 2,3 3,3l18 0c1,0 3,-2 3,-3 0,-2 -2,-3 -3,-3zm-32 0l-18 0c-1,0 -3,1 -3,3 0,1 2,3 3,3l18 0c1,0 3,-2 3,-3 0,-2 -2,-3 -3,-3zm-32 0l-15 0c-1,0 -2,0 -3,0 -1,-1 -3,1 -3,2 0,2 1,3 3,4 1,0 2,0 3,0l15 0c1,0 3,-2 3,-3 0,-2 -2,-3 -3,-3zm-30 -4c-5,-2 -10,-5 -13,-9 -1,-2 -3,-2 -5,-1 -1,1 -1,3 0,5 4,4 9,8 15,11 2,0 3,0 4,-2 1,-1 0,-3 -1,-4zm-20 -21c-2,-4 -3,-8 -3,-13l0 -3c0,-2 -1,-3 -3,-3 -1,0 -3,1 -3,3l0 3c0,5 1,10 3,15 1,2 3,3 4,2 2,-1 2,-2 2,-4zm-3 -30l0 -18c0,-2 -1,-3 -3,-3 -1,0 -3,1 -3,3l0 18c0,1 2,3 3,3 2,0 3,-2 3,-3z"/>
   <path class="fil6" d="M4030 5808l0 -9c0,-1 -1,-3 -3,-3 -1,0 -3,2 -3,3l0 9c0,2 2,3 3,3 2,0 3,-1 3,-3z"/>
   <path class="fil6" d="M3843 5807l0 9c0,2 1,3 3,3 1,0 3,-1 3,-3l0 -9c0,-2 -2,-3 -3,-3 -2,0 -3,1 -3,3z"/>
   <path class="fil6" d="M3843 5831l0 19c0,1 1,3 3,3 1,0 3,-2 3,-3l0 -19c0,-1 -2,-3 -3,-3 -2,0 -3,2 -3,3zm0 34l0 19c0,1 1,3 3,3 1,0 3,-2 3,-3l0 -19c0,-2 -2,-3 -3,-3 -2,0 -3,1 -3,3zm1 34c2,7 4,13 6,19 1,1 3,2 4,1 2,-1 3,-2 2,-4 -3,-5 -4,-11 -6,-17 0,-1 -2,-2 -3,-2 -2,0 -3,2 -3,3zm14 32c4,6 9,10 13,14 2,2 3,1 5,0 1,-1 1,-3 -1,-4 -4,-4 -8,-8 -12,-13 -1,-2 -3,-2 -4,-1 -1,1 -2,3 -1,4zm26 24c6,3 12,5 18,7 1,1 3,0 4,-2 0,-2 -1,-3 -2,-4 -6,-1 -12,-4 -17,-7 -1,0 -3,0 -4,2 -1,1 0,3 1,4zm34 10c2,0 5,0 7,0l11 0c2,0 3,-1 3,-3 0,-1 -1,-3 -3,-3l-11 0c-2,0 -5,0 -7,0 -2,0 -3,1 -3,3 0,2 1,3 3,3zm34 0l18 0c2,0 3,-1 3,-3 0,-1 -1,-3 -3,-3l-18 0c-2,0 -3,2 -3,3 0,2 1,3 3,3zm33 0l19 0c2,0 3,-1 3,-3 0,-1 -1,-3 -3,-3l-19 0c-1,0 -3,2 -3,3 0,2 2,3 3,3zm34 0l19 0c1,0 3,-1 3,-3 0,-1 -2,-3 -3,-3l-19 0c-1,0 -3,2 -3,3 0,2 2,3 3,3zm34 0l19 0c1,0 3,-1 3,-3 0,-1 -2,-3 -3,-3l-19 0c-2,0 -3,2 -3,3 0,2 1,3 3,3zm34 0l18 0c2,0 3,-1 3,-3 0,-1 -1,-3 -3,-3l-18 0c-2,0 -3,2 -3,3 0,2 1,3 3,3zm34 0l18 0c2,0 3,-1 3,-3 0,-1 -1,-3 -3,-3l-18 0c-2,0 -3,2 -3,3 0,2 1,3 3,3zm34 0l18 0c2,0 3,-1 3,-3 0,-1 -1,-3 -3,-3l-18 0c-2,0 -3,2 -3,3 0,2 1,3 3,3zm34 0c6,-1 12,-2 18,-3 2,-1 3,-2 2,-4 0,-2 -2,-3 -3,-2 -6,1 -12,2 -18,3 -2,0 -3,2 -3,3 1,2 2,3 4,3zm33 -8c6,-3 12,-5 17,-9 2,0 2,-2 1,-4 -1,-1 -2,-2 -4,-1 -5,3 -10,6 -16,8 -2,1 -2,3 -2,4 1,2 3,2 4,2zm30 -18c5,-3 10,-8 14,-12 1,-2 1,-4 0,-5 -1,-1 -3,-1 -4,1 -4,4 -9,8 -14,12 -1,1 -1,3 0,4 1,1 3,1 4,0zm24 -25c4,-5 7,-10 10,-16 0,-1 0,-3 -2,-4 -1,-1 -3,0 -4,1 -2,6 -5,11 -9,16 -1,1 -1,3 1,4 1,1 3,1 4,-1zm16 -30c2,-6 3,-12 4,-19 1,-1 0,-3 -2,-3 -2,0 -3,1 -4,2 -1,6 -2,12 -4,18 -1,1 0,3 2,3 1,1 3,0 4,-1l0 0zm6 -34c0,-2 0,-4 0,-6l0 -13c0,-2 -1,-3 -3,-3 -1,0 -3,1 -3,3l0 13c0,2 0,4 0,5 0,2 1,3 3,4 2,0 3,-2 3,-3zm0 -34l0 -19c0,-1 -1,-3 -3,-3 -1,0 -3,2 -3,3l0 19c0,1 2,3 3,3 2,0 3,-2 3,-3zm0 -34l0 -19c0,-1 -1,-3 -3,-3 -1,0 -3,2 -3,3l0 19c0,2 2,3 3,3 2,0 3,-1 3,-3z"/>
   <path class="fil6" d="M4298 5748l0 -9c0,-2 -1,-3 -3,-3 -1,0 -3,1 -3,3l0 9c0,2 2,3 3,3 2,0 3,-1 3,-3z"/>
   <path class="fil6" d="M3904 5807l0 9c0,2 2,3 3,3 2,0 3,-1 3,-3l0 -9c0,-2 -1,-3 -3,-3 -1,0 -3,1 -3,3z"/>
   <path class="fil6" d="M3904 5831l0 19c0,1 2,3 3,3 2,0 3,-2 3,-3l0 -19c0,-1 -1,-3 -3,-3 -1,0 -3,2 -3,3zm0 34l0 18c0,2 2,3 3,3 2,0 3,-1 3,-3l0 -18c0,-2 -1,-3 -3,-3 -1,0 -3,1 -3,3zm2 34c1,7 3,13 6,18 1,2 2,3 4,2 1,-1 2,-3 1,-4 -2,-5 -4,-11 -5,-17 0,-2 -2,-3 -4,-2 -1,0 -2,2 -2,3zm14 32c4,5 8,10 13,14 1,1 3,1 4,0 1,-1 1,-3 0,-4 -5,-4 -9,-9 -12,-13 -1,-2 -3,-2 -4,-1 -2,1 -2,3 -1,4zm26 24c5,3 11,5 17,7 2,1 4,0 4,-2 1,-2 0,-3 -2,-4 -6,-1 -11,-4 -16,-7 -2,-1 -3,0 -4,1 -1,2 -1,4 1,5zm33 10c3,0 5,0 8,0l11 0c1,0 3,-1 3,-3 0,-1 -2,-3 -3,-3l-11 0c-3,0 -5,0 -7,0 -2,0 -4,1 -4,3 0,1 1,3 3,3zm34 0l18 0c2,0 3,-1 3,-3 0,-1 -1,-3 -3,-3l-18 0c-2,0 -3,2 -3,3 0,2 1,3 3,3zm34 0l18 0c2,0 3,-1 3,-3 0,-1 -1,-3 -3,-3l-18 0c-2,0 -3,2 -3,3 0,2 1,3 3,3z"/>
   <path class="fil6" d="M4081 5965l9 0c1,0 3,-1 3,-3 0,-1 -2,-3 -3,-3l-9 0c-2,0 -3,2 -3,3 0,2 1,3 3,3z"/>
   <path class="fil6" d="M3964 5807l0 9c0,2 1,3 3,3 2,0 3,-1 3,-3l0 -9c0,-2 -1,-3 -3,-3 -2,0 -3,1 -3,3z"/>
   <path class="fil6" d="M3964 5832l0 19c0,1 1,3 3,3 2,0 3,-2 3,-3l0 -19c0,-2 -1,-3 -3,-3 -2,0 -3,1 -3,3zm0 34l0 17c0,1 0,2 0,2 0,2 1,3 3,3 2,0 3,-1 3,-3 0,0 0,-1 0,-2l0 -17c0,-1 -1,-3 -3,-3 -2,0 -3,2 -3,3zm2 36c2,6 4,12 7,18 0,2 2,2 4,1 1,0 2,-2 1,-4 -3,-5 -5,-11 -6,-17 0,-1 -2,-2 -4,-2 -1,0 -2,2 -2,4zm15 32c5,5 9,10 14,14 2,1 3,1 5,-1 1,-1 0,-3 -1,-4 -5,-4 -9,-8 -13,-13 -1,-1 -3,-1 -4,0 -1,1 -2,3 -1,4zm28 23c6,2 12,5 18,6 2,1 4,0 4,-2 0,-2 -1,-3 -2,-4 -6,-1 -12,-3 -17,-6 -2,-1 -4,0 -4,2 -1,1 0,3 1,4zm35 8c1,0 1,0 2,0l17 0c1,0 3,-1 3,-3 0,-1 -2,-3 -3,-3l-17 0c0,0 -1,0 -2,0 -2,0 -3,2 -3,3 0,2 1,3 3,3zm34 0l19 0c2,0 3,-1 3,-3 0,-1 -1,-3 -3,-3l-19 0c-1,0 -3,2 -3,3 0,2 2,3 3,3zm35 0l19 0c2,0 3,-1 3,-3 0,-1 -1,-3 -3,-3l-19 0c-1,0 -3,2 -3,3 0,2 2,3 3,3z"/>
   <path class="fil6" d="M4148 5965l9 0c2,0 3,-1 3,-3 0,-1 -1,-3 -3,-3l-9 0c-2,0 -3,2 -3,3 0,2 1,3 3,3z"/>
   <polygon class="fil7" points="3867,5567 3867,5837 3824,5837 3823,5567 "/>
   <polygon class="fil8" points="3845,5508 3849,5515 3867,5567 3823,5567 3841,5514 "/>
   <polygon class="fil7" points="3845,5508 3849,5515 3847,5516 3845,5514 3843,5517 3841,5514 "/>
   <polygon class="fil8" points="3823,5567 3830,5572 3834,5567 "/>
   <polygon class="fil8" points="3834,5567 3840,5572 3845,5567 "/>
   <polygon class="fil8" points="3845,5567 3851,5572 3856,5567 "/>
   <polygon class="fil8" points="3856,5567 3862,5572 3867,5567 "/>
   <polygon class="fil9" points="3867,5776 3868,5776 3867,5567 "/>
   <path class="fil10" d="M3867 5837l0 -20 1 0 0 20 -1 0zm1 -58l-1 0 0 -3 1 0 0 3z"/>
   <polygon class="fil10" points="3867,5817 3867,5779 3868,5779 3868,5817 "/>
   <polygon class="fil9" points="3867,5567 3849,5515 3845,5508 3841,5514 3839,5521 3839,5521 3841,5514 3845,5508 3849,5514 "/>
   <polygon class="fil11" points="3853,5837 3853,5570 3856,5567 3856,5567 3862,5572 3867,5567 3867,5837 "/>
   <path class="fil12" d="M3853 5567l0 0 -14 -46 2 -7 4 -6 4 7 18 52 -11 0 0 0 -3 0zm-8 -59l-4 6 2 3 2 -3 2 2 2 -1 -4 -7z"/>
   <polygon class="fil11" points="3843,5517 3841,5514 3845,5508 3849,5515 3847,5516 3845,5514 "/>
   <polygon class="fil12" points="3853,5570 3853,5567 3856,5567 3856,5567 "/>
   <polygon class="fil12" points="3862,5572 3856,5567 3856,5567 3867,5567 "/>
   <polygon class="fil7" points="3824,5842 3868,5842 3868,5834 3824,5834 "/>
   <polygon class="fil13" points="3928,5567 3928,5837 3885,5837 3884,5567 "/>
   <polygon class="fil8" points="3906,5508 3910,5515 3928,5567 3884,5567 3901,5514 "/>
   <polygon class="fil13" points="3906,5508 3910,5515 3908,5516 3906,5514 3903,5517 3901,5514 "/>
   <polygon class="fil8" points="3884,5567 3890,5572 3895,5567 "/>
   <polygon class="fil8" points="3895,5567 3901,5572 3906,5567 "/>
   <polygon class="fil8" points="3906,5567 3912,5572 3917,5567 "/>
   <polygon class="fil8" points="3917,5567 3923,5572 3928,5567 "/>
   <polygon class="fil9" points="3928,5768 3928,5567 3928,5768 "/>
   <polygon class="fil10" points="3928,5837 3928,5837 3928,5768 3928,5768 "/>
   <polygon class="fil9" points="3928,5567 3910,5515 3906,5508 3901,5514 3899,5521 3899,5521 3901,5514 3906,5508 3910,5514 "/>
   <polygon class="fil14" points="3914,5837 3913,5570 3917,5567 3917,5567 3923,5572 3928,5567 3928,5837 "/>
   <path class="fil12" d="M3913 5567l0 0 -14 -46 2 -7 5 -6 4 7 18 52 -11 0 0 0 -4 0zm-7 -59l-5 6 2 3 3 -3 2 2 2 -1 -4 -7z"/>
   <polygon class="fil14" points="3903,5517 3901,5514 3906,5508 3910,5515 3908,5516 3906,5514 "/>
   <polygon class="fil12" points="3913,5570 3913,5567 3917,5567 3917,5567 "/>
   <polygon class="fil12" points="3923,5572 3917,5567 3917,5567 3928,5567 "/>
   <polygon class="fil13" points="3885,5842 3928,5842 3928,5834 3885,5834 "/>
   <polygon class="fil15" points="3989,5567 3989,5837 3946,5837 3945,5567 "/>
   <polygon class="fil8" points="3967,5508 3971,5515 3989,5567 3945,5567 3962,5514 "/>
   <polygon class="fil15" points="3967,5508 3971,5515 3969,5516 3967,5514 3964,5517 3962,5514 "/>
   <polygon class="fil8" points="3945,5567 3951,5572 3956,5567 "/>
   <polygon class="fil8" points="3956,5567 3962,5572 3967,5567 "/>
   <polygon class="fil8" points="3967,5567 3973,5572 3977,5567 "/>
   <polygon class="fil8" points="3977,5567 3984,5572 3989,5567 "/>
   <polygon class="fil9" points="3989,5762 3989,5567 3989,5762 "/>
   <polygon class="fil10" points="3989,5837 3989,5837 3989,5762 3989,5762 "/>
   <polygon class="fil16" points="3975,5837 3974,5570 3977,5567 3977,5567 3984,5572 3989,5567 3989,5837 "/>
   <polygon class="fil9" points="3989,5567 3971,5515 3967,5508 3962,5514 3960,5521 3960,5521 3962,5514 3967,5508 3971,5514 "/>
   <path class="fil12" d="M3974 5567l0 0 -14 -46 2 -7 5 -6 4 7 18 52 -12 0 0 0 0 0 0 0 -3 0zm-7 -59l-5 6 2 3 3 -3 2 2 2 -1 -4 -7z"/>
   <polygon class="fil16" points="3964,5517 3962,5514 3967,5508 3971,5515 3969,5516 3967,5514 "/>
   <polygon class="fil12" points="3974,5570 3974,5567 3977,5567 3977,5567 "/>
   <polygon class="fil12" points="3984,5572 3977,5567 3977,5567 3989,5567 "/>
   <polygon class="fil15" points="3946,5842 3989,5842 3989,5834 3946,5834 "/>
   <polygon class="fil5" points="4050,5567 4050,5837 4007,5837 4006,5567 "/>
   <polygon class="fil8" points="4027,5508 4032,5515 4050,5567 4006,5567 4023,5514 "/>
   <polygon class="fil17" points="4027,5508 4032,5515 4029,5516 4027,5514 4025,5517 4023,5514 "/>
   <polygon class="fil8" points="4006,5567 4012,5572 4017,5567 "/>
   <polygon class="fil8" points="4017,5567 4023,5572 4027,5567 "/>
   <polygon class="fil8" points="4027,5567 4034,5572 4038,5567 "/>
   <polygon class="fil8" points="4038,5567 4045,5572 4050,5567 "/>
   <polygon class="fil9" points="4050,5758 4050,5567 "/>
   <polygon class="fil10" points="4050,5837 4050,5758 4050,5837 "/>
   <polygon class="fil18" points="4036,5837 4035,5570 4038,5567 4038,5567 4045,5572 4050,5567 4050,5837 "/>
   <polygon class="fil9" points="4050,5567 4032,5515 4027,5508 4023,5514 4022,5518 4023,5514 4027,5508 4032,5514 "/>
   <path class="fil12" d="M4035 5567l0 0 -14 -46 1 -3 1 -4 4 -6 5 7 18 52 -12 0 0 0 -3 0zm-8 -59l-4 6 2 3 2 -3 2 2 3 -1 -5 -7z"/>
   <polygon class="fil19" points="4025,5517 4023,5514 4027,5508 4032,5515 4029,5516 4027,5514 "/>
   <polygon class="fil12" points="4035,5570 4035,5567 4038,5567 4038,5567 "/>
   <polygon class="fil12" points="4045,5572 4038,5567 4038,5567 4050,5567 "/>
   <polygon class="fil20" points="4007,5842 4050,5842 4050,5834 4007,5834 "/>
   <path class="fil6" d="M5049 5931l18 0c2,0 3,-2 3,-3 0,-2 -1,-3 -3,-3l-18 0c-2,0 -3,1 -3,3 0,1 1,3 3,3zm33 0l18 0c2,0 3,-2 3,-3 0,-2 -1,-3 -3,-3l-18 0c-2,0 -3,1 -3,3 0,1 1,3 3,3zm33 0l18 0c2,0 3,-2 3,-3 0,-2 -1,-3 -3,-3l-18 0c-1,0 -3,1 -3,3 0,1 2,3 3,3zm33 0l18 0c2,0 3,-2 3,-3 0,-2 -1,-3 -3,-3l-18 0c-1,0 -3,1 -3,3 0,1 2,3 3,3zm33 0l18 0c2,0 3,-2 3,-3 0,-2 -1,-3 -3,-3l-18 0c-1,0 -3,1 -3,3 0,1 2,3 3,3zm33 0l19 0c1,0 3,-2 3,-3 0,-2 -2,-3 -3,-3l-19 0c-1,0 -3,1 -3,3 0,1 2,3 3,3zm34 0l18 0c1,0 3,-2 3,-3 0,-2 -2,-3 -3,-3l-18 0c-2,0 -3,1 -3,3 0,1 1,3 3,3zm33 0l18 0c1,0 3,-2 3,-3 0,-2 -2,-3 -3,-3l-18 0c-2,0 -3,1 -3,3 0,1 1,3 3,3zm33 0l10 0c2,0 4,0 7,1 1,0 3,0 4,-2 0,-2 -1,-3 -2,-4 -3,-1 -6,-1 -9,-1l-10 0c-2,0 -3,1 -3,3 0,1 1,3 3,3zm27 9c3,3 5,8 5,13 0,0 0,1 0,1 -1,2 1,4 2,4 2,0 3,-1 4,-3 0,-1 0,-2 0,-2 0,-7 -2,-12 -6,-17 -1,-1 -3,-2 -4,-1 -1,1 -2,3 -1,5zm0 27c-4,4 -8,7 -14,7 -1,1 -2,2 -2,4 0,2 2,3 3,2 7,-1 13,-4 17,-10 1,-1 1,-3 0,-4 -1,-1 -3,-1 -4,1l0 0zm-28 8l-18 0c-2,0 -3,1 -3,3 0,1 1,3 3,3l18 0c1,0 3,-2 3,-3 0,-2 -2,-3 -3,-3zm-33 0l-18 0c-2,0 -3,1 -3,3 0,1 1,3 3,3l18 0c1,0 3,-2 3,-3 0,-2 -2,-3 -3,-3zm-33 0l-18 0c-2,0 -4,1 -4,3 0,1 2,3 4,3l18 0c1,0 3,-2 3,-3 0,-2 -2,-3 -3,-3zm-34 0l-18 0c-1,0 -3,1 -3,3 0,1 2,3 3,3l18 0c2,0 3,-2 3,-3 0,-2 -1,-3 -3,-3zm-33 0l-18 0c-1,0 -3,1 -3,3 0,1 2,3 3,3l18 0c2,0 3,-2 3,-3 0,-2 -1,-3 -3,-3zm-33 0l-18 0c-1,0 -3,1 -3,3 0,1 2,3 3,3l18 0c2,0 3,-2 3,-3 0,-2 -1,-3 -3,-3zm-33 0l-18 0c-2,0 -3,1 -3,3 0,1 1,3 3,3l18 0c2,0 3,-2 3,-3 0,-2 -1,-3 -3,-3zm-33 0l-18 0c-2,0 -3,1 -3,3 0,1 1,3 3,3l18 0c2,0 3,-2 3,-3 0,-2 -1,-3 -3,-3zm-33 0l-18 0c-2,0 -3,1 -3,3 0,1 1,3 3,3l18 0c2,0 3,-2 3,-3 0,-2 -1,-3 -3,-3zm-33 0l-18 0c-2,0 -3,1 -3,3 0,1 1,3 3,3l18 0c2,0 3,-2 3,-3 0,-2 -1,-3 -3,-3zm-33 0l-18 0c-2,0 -3,1 -3,3 0,1 1,3 3,3l18 0c1,0 3,-2 3,-3 0,-2 -2,-3 -3,-3zm-33 0l-18 0c-2,0 -3,1 -3,3 0,1 1,3 3,3l18 0c1,0 3,-2 3,-3 0,-2 -2,-3 -3,-3zm-33 0l-18 0c-2,0 -4,1 -4,3 0,1 2,3 4,3l18 0c1,0 3,-2 3,-3 0,-2 -2,-3 -3,-3zm-34 0l-18 0c-1,0 -3,1 -3,3 0,1 2,3 3,3l18 0c2,0 3,-2 3,-3 0,-2 -1,-3 -3,-3zm-33 0l-18 0c-1,0 -3,1 -3,3 0,1 2,3 3,3l18 0c2,0 3,-2 3,-3 0,-2 -1,-3 -3,-3zm-33 0l-18 0c-1,0 -3,1 -3,3 0,1 2,3 3,3l18 0c2,0 3,-2 3,-3 0,-2 -1,-3 -3,-3zm-33 0l-18 0c-2,0 -3,1 -3,3 0,1 1,3 3,3l18 0c2,0 3,-2 3,-3 0,-2 -1,-3 -3,-3zm-33 0l-18 0c-2,0 -3,1 -3,3 0,1 1,3 3,3l18 0c2,0 3,-2 3,-3 0,-2 -1,-3 -3,-3zm-33 0l-18 0c-2,0 -3,1 -3,3 0,1 1,3 3,3l18 0c2,0 3,-2 3,-3 0,-2 -1,-3 -3,-3zm-33 0l-18 0c-2,0 -3,1 -3,3 0,1 1,3 3,3l18 0c2,0 3,-2 3,-3 0,-2 -1,-3 -3,-3zm-33 0l-18 0c-2,0 -3,1 -3,3 0,1 1,3 3,3l18 0c1,0 3,-2 3,-3 0,-2 -2,-3 -3,-3zm-33 0l-18 0c-2,0 -3,1 -3,3 0,1 1,3 3,3l18 0c1,0 3,-2 3,-3 0,-2 -2,-3 -3,-3zm-33 0l-19 0c-1,0 -3,1 -3,3 0,1 2,3 3,3l19 0c1,0 3,-2 3,-3 0,-2 -2,-3 -3,-3zm-34 0l-18 0c-1,0 -3,1 -3,3 0,1 2,3 3,3l18 0c2,0 3,-2 3,-3 0,-2 -1,-3 -3,-3zm-33 0l-18 0c-1,0 -3,1 -3,3 0,1 2,3 3,3l18 0c2,0 3,-2 3,-3 0,-2 -1,-3 -3,-3zm-33 0l-18 0c-1,0 -3,1 -3,3 0,1 2,3 3,3l18 0c2,0 3,-2 3,-3 0,-2 -1,-3 -3,-3zm-33 -1c-5,0 -11,-1 -17,-3 -1,0 -3,0 -3,2 -1,2 0,3 2,4 5,2 12,3 18,3 2,1 3,-1 3,-2 0,-2 -1,-3 -3,-4zm-30 -8c-5,-3 -10,-6 -14,-10 -2,-1 -3,-1 -5,0 -1,1 0,3 1,4 5,4 10,8 15,11 2,1 3,0 4,-1 1,-2 0,-4 -1,-4l0 0zm-24 -21c-4,-4 -7,-9 -10,-14 -1,-2 -2,-2 -4,-2 -1,1 -2,3 -1,4 3,6 6,11 10,16 1,1 3,2 4,1 1,-1 2,-3 1,-5l0 0zm-15 -28c-2,-5 -3,-11 -3,-17 0,-1 -1,-3 -3,-3 -2,0 -3,2 -3,4 0,6 1,12 3,18 1,2 2,3 4,2 1,0 2,-2 2,-4zm-3 -32l0 -18c0,-1 -1,-3 -3,-3 -2,0 -3,2 -3,3l0 18c0,2 1,3 3,3 2,0 3,-1 3,-3zm0 -33l0 -18c0,-1 -1,-3 -3,-3 -2,0 -3,2 -3,3l0 18c0,2 1,3 3,3 2,0 3,-1 3,-3zm0 -33l0 -18c0,-2 -1,-3 -3,-3 -2,0 -3,1 -3,3l0 18c0,2 1,3 3,3 2,0 3,-1 3,-3z"/>
   <path class="fil6" d="M4321 5810l0 18c0,2 2,3 3,3 2,0 3,-1 3,-3l0 -18c0,-1 -1,-3 -3,-3 -1,0 -3,2 -3,3zm0 34l0 18c0,1 2,3 3,3 2,0 3,-2 3,-3l0 -18c0,-2 -1,-3 -3,-3 -1,0 -3,1 -3,3zm0 33l0 18c0,1 2,3 3,3 2,0 3,-2 3,-3l0 -18c0,-2 -1,-3 -3,-3 -1,0 -3,1 -3,3zm0 33l0 18c0,1 2,3 3,3 2,0 3,-2 3,-3l0 -18c0,-2 -1,-3 -3,-3 -1,0 -3,1 -3,3zm0 33l0 18c0,2 2,3 3,3 2,0 3,-1 3,-3l0 -18c0,-2 -1,-3 -3,-3 -1,0 -3,1 -3,3zm0 33l0 0c0,6 0,12 -1,17 -1,2 0,3 2,4 1,0 3,-1 3,-3 2,-5 2,-11 2,-18l0 0c0,-2 -1,-3 -3,-3 -1,0 -3,1 -3,3zm-6 31c-2,5 -5,11 -8,15 -1,2 -1,4 1,4 1,1 3,1 4,0 3,-5 6,-11 9,-17 0,-1 0,-3 -2,-4 -1,0 -3,1 -4,2zm-17 26c-5,4 -9,8 -14,11 -1,1 -2,3 -1,4 1,2 3,2 4,1 5,-3 10,-7 15,-11 1,-2 1,-3 0,-5 -1,-1 -3,-1 -4,0zm-27 18c-5,2 -11,3 -17,4 -1,1 -2,2 -2,4 0,2 2,3 3,2 7,-1 13,-2 18,-5 2,0 3,-2 2,-4 -1,-1 -2,-2 -4,-1zm-31 6l-18 0c-2,0 -3,1 -3,3 0,1 1,3 3,3l18 0c2,0 3,-2 3,-3 0,-2 -1,-3 -3,-3z"/>
   <path class="fil6" d="M4429 5762l0 18c0,2 2,3 3,3 2,0 3,-1 3,-3l0 -18c0,-2 -1,-3 -3,-3 -1,0 -3,1 -3,3zm0 33l0 18c0,2 2,3 3,3 2,0 3,-1 3,-3l0 -18c0,-2 -1,-3 -3,-3 -1,0 -3,1 -3,3zm0 33l0 3c0,5 1,11 3,16 1,1 2,2 4,2 1,-1 2,-2 2,-4 -2,-5 -3,-9 -3,-14l0 -3c0,-2 -1,-3 -3,-3 -1,0 -3,1 -3,3zm10 33c4,5 8,10 14,13 1,1 3,1 4,0 1,-2 0,-4 -1,-5 -5,-3 -9,-7 -12,-11 -1,-2 -3,-2 -4,-1 -2,1 -2,3 -1,4zm28 20c5,2 10,2 15,2l4 0c1,0 3,-1 3,-3 0,-1 -2,-3 -3,-3l-4 0c-4,0 -9,0 -13,-2 -2,0 -3,1 -4,2 0,2 0,4 2,4zm34 2l18 0c2,0 3,-1 3,-3 0,-1 -1,-3 -3,-3l-18 0c-2,0 -3,2 -3,3 0,2 1,3 3,3zm33 0l18 0c2,0 3,-1 3,-3 0,-1 -1,-3 -3,-3l-18 0c-2,0 -3,2 -3,3 0,2 1,3 3,3zm33 0l18 0c2,0 3,-1 3,-3 0,-1 -1,-3 -3,-3l-18 0c-2,0 -3,2 -3,3 0,2 1,3 3,3zm33 0l18 0c2,0 3,-1 3,-3 0,-1 -1,-3 -3,-3l-18 0c-2,0 -3,2 -3,3 0,2 1,3 3,3zm33 0l18 0c2,0 3,-1 3,-3 0,-1 -1,-3 -3,-3l-18 0c-1,0 -3,2 -3,3 0,2 2,3 3,3zm33 0l18 0c2,0 3,-1 3,-3 0,-1 -1,-3 -3,-3l-18 0c-1,0 -3,2 -3,3 0,2 2,3 3,3zm33 0l18 0c2,0 3,-1 3,-3 0,-1 -1,-3 -3,-3l-18 0c-1,0 -3,2 -3,3 0,2 2,3 3,3zm34 0l18 0c1,0 3,-1 3,-3 0,-1 -2,-3 -3,-3l-18 0c-2,0 -3,2 -3,3 0,2 1,3 3,3zm33 0l17 0c2,0 3,-1 3,-3 0,-1 -1,-3 -3,-3l-17 0c-2,0 -3,2 -3,3 0,2 1,3 3,3z"/>
   <path class="fil7" d="M4657 4886c-71,-88 -177,-151 -293,-153 -67,-1 -138,8 -197,40 -53,28 -99,67 -136,113 -64,79 -100,182 -89,284 9,84 51,161 106,225 53,61 132,112 145,200 4,25 -5,59 14,79 22,24 59,15 88,15 35,0 69,0 103,0 5,0 11,0 17,0 23,1 51,2 66,-15 19,-20 10,-54 14,-79 10,-66 61,-119 108,-162 55,-49 98,-106 122,-176 45,-129 17,-265 -68,-371z"/>
   <path class="fil1" d="M4323 5765c1,-45 -2,-90 -3,-135 -3,-73 -7,-145 -13,-218 -4,-42 -11,-84 -28,-123 -11,-25 -30,-56 -60,-58 -23,-2 -45,17 -45,41 -1,32 30,60 59,68 34,10 79,3 107,-19 29,-22 45,-58 50,-93 3,-29 2,-61 -29,-72 -27,-10 -48,12 -51,38 -2,27 5,56 16,80 10,25 28,52 56,58 39,8 82,-13 108,-40 20,-20 49,-59 29,-88 -10,-13 -28,-17 -43,-13 -19,5 -33,21 -44,36 -28,38 -41,85 -47,132 -6,53 -6,107 -7,160 -2,54 -3,107 -5,160 0,28 0,56 0,83 0,6 9,6 9,0 5,-86 7,-172 10,-259 3,-83 -3,-176 40,-250 9,-16 21,-35 37,-44 22,-13 47,-1 41,26 -7,31 -38,60 -67,74 -29,14 -64,17 -86,-9 -17,-20 -26,-46 -31,-71 -3,-18 -8,-53 15,-61 11,-5 26,4 32,13 8,12 5,30 4,43 -4,33 -19,68 -47,88 -26,19 -69,25 -98,14 -24,-9 -63,-46 -38,-73 17,-18 40,-8 53,8 24,28 34,68 41,104 5,28 7,58 9,87 9,104 12,208 20,313 0,4 6,4 6,0z"/>
   <polygon class="fil21" points="4225,5711 4458,5711 4458,5688 4225,5688 "/>
   <path class="fil0" d="M4472 5791c-4,-5 -4,-13 0,-18l2 -1c4,-5 4,-12 0,-17l-2 -3c-4,-5 -4,-13 1,-18 5,-4 5,-12 1,-17l-6 -9c-2,-3 -6,-4 -10,-4l-232 0c-3,0 -7,1 -9,4l-6 9c-4,5 -4,13 1,17 4,5 5,13 1,18l-2 3c-4,5 -4,12 0,17l2 1c4,5 4,13 0,18l-2 2c-4,5 -4,13 1,17l1 1c5,5 11,8 17,8l224 0c7,0 13,-3 18,-8l1 -1c5,-4 5,-12 1,-17l-2 -2z"/>
   <path class="fil22" d="M4352 5738l108 0c2,0 3,-1 3,-3 0,-2 -1,-3 -3,-3l-108 0c-2,0 -3,1 -3,3 0,2 1,3 3,3z"/>
   <path class="fil22" d="M4244 5738l60 0c2,0 3,-1 3,-3 0,-2 -1,-3 -3,-3l-60 0c-2,0 -3,1 -3,3 0,2 1,3 3,3z"/>
   <path class="fil22" d="M4228 5764l157 0c2,0 3,-1 3,-3 0,-1 -1,-3 -3,-3l-157 0c-1,0 -3,2 -3,3 0,2 2,3 3,3z"/>
   <path class="fil22" d="M4414 5764l47 0c1,0 3,-1 3,-3 0,-1 -2,-3 -3,-3l-47 0c-1,0 -3,2 -3,3 0,2 2,3 3,3z"/>
   <path class="fil22" d="M4244 5791l84 0c1,0 3,-1 3,-3 0,-2 -2,-3 -3,-3l-84 0c-2,0 -3,1 -3,3 0,2 1,3 3,3z"/>
   <path class="fil22" d="M4383 5791l33 0c2,0 3,-1 3,-3 0,-2 -1,-3 -3,-3l-33 0c-2,0 -3,1 -3,3 0,2 1,3 3,3z"/>
   <path class="fil22" d="M4319 5738l12 0c2,0 3,-1 3,-3 0,-2 -1,-3 -3,-3l-12 0c-2,0 -3,1 -3,3 0,2 1,3 3,3z"/>
   <path class="fil23" d="M4745 5110l0 0c-4,-77 -33,-152 -82,-215 49,63 78,138 82,215z"/>
   <path class="fil24" d="M4746 5123l0 0c0,-5 0,-9 -1,-13l0 0c1,4 1,8 1,13z"/>
   <path class="fil25" d="M4453 5688l-67 0c2,-62 4,-123 6,-185 0,-13 1,-27 1,-41 7,-5 14,-8 22,-12 164,-71 243,-187 249,-350 0,-5 0,-11 0,-16l50 56 -7 9c-1,1 4,5 4,5 9,9 21,22 31,32 -3,24 -9,48 -17,71 -22,62 -58,114 -104,159 -5,6 -11,11 -18,17 -47,43 -98,96 -108,162 -1,6 -1,12 -1,19 0,4 0,9 0,14 0,17 -1,34 -13,46 -7,8 -17,12 -28,14zm-6 -250l-9 5c-1,1 -2,3 -1,5l9 16c1,1 2,1 3,1 0,0 1,0 2,0l114 -66c2,-1 2,-3 1,-5l-9 -16c0,-1 -1,-1 -2,-1 -1,0 -1,0 -2,0l-14 8 0 0 0 0 -4 3 0 0 -5 3 0 0 -1 0 0 0 -1 1 0 0 0 0 -10 5 0 0 -1 1 0 0 -1 1 0 0 0 0 -2 1 0 0 0 0 -6 3 0 0 -2 1 0 0 -1 1 0 0 -1 1 0 0 -1 0 -7 4 0 0 -1 1 0 0 -1 0 -1 1 0 0 -3 2 0 0 -1 0 -5 3 -1 1 0 0 -2 1 0 0 0 0 -9 5 0 0 -12 7 0 0 -1 1 0 0 -12 6 0 0 0 0zm-74 250l-51 0c-1,-9 -1,-17 -1,-26 2,-1 5,-1 8,-2 4,-2 9,-4 13,-8 4,-4 6,-10 7,-15 7,-36 -4,-73 1,-110 3,-24 14,-41 29,-55 0,16 -1,32 -1,47 -2,54 -3,107 -5,160 0,3 0,6 0,9zm-61 0l-81 0c-9,-2 -17,-7 -24,-14l0 0c-2,-2 -4,-4 -5,-6 17,3 33,4 50,4 20,0 39,-2 59,-7 0,8 0,15 1,23zm434 -565l-79 -90 -8 -9c0,0 0,0 0,0 0,0 0,-3 0,-7 0,0 0,-1 0,-1 0,-7 -2,-18 -10,-26 -44,-141 -176,-247 -325,-256 10,-1 19,-1 29,-1 4,0 7,0 11,0 116,2 222,65 293,153 2,3 4,6 6,9 49,63 78,138 82,215 1,4 1,8 1,13z"/>
   <path class="fil23" d="M4386 5688l-13 0c0,-3 0,-6 0,-9 2,-53 3,-106 5,-160 0,-15 1,-31 1,-47 4,-4 9,-7 14,-10 0,14 -1,28 -1,41 -2,62 -4,123 -6,185zm-64 0l-10 0c-1,-8 -1,-15 -1,-23 3,-1 6,-2 10,-3 0,9 0,17 1,26z"/>
   <path class="fil26" d="M4257 5691c-9,0 -18,-1 -26,-3l222 0c-7,1 -14,2 -21,2 -6,0 -12,-1 -17,-1 -6,0 -11,0 -16,0 0,0 0,0 -1,0 -34,0 -68,0 -103,0 -12,0 -25,2 -38,2z"/>
   <path class="fil27" d="M5059 5847c-27,0 -48,-8 -48,-18 0,-9 21,-17 48,-17 26,0 48,8 48,17 0,10 -22,18 -48,18zm242 -6c0,0 -36,-25 -65,-29 -24,-4 -45,-1 -62,1 -23,3 -41,6 -58,-4 -13,-7 19,-12 22,-20 0,-1 0,-12 0,-12 0,0 -6,3 -15,0 -58,-21 -107,-19 -191,-19 -188,0 -343,34 -366,78l-2 0 0 11 0 0c1,49 165,89 368,89 196,0 367,-38 369,-84l0 -11z"/>
   <path class="fil7" d="M5059 5837c-27,0 -48,-8 -48,-18 0,-9 21,-17 48,-17 26,0 48,8 48,17 0,10 -22,18 -48,18zm242 0c-5,-20 -36,-31 -65,-35 -57,-9 -89,14 -120,-3 -18,-10 52,-16 7,-32 -58,-21 -107,-19 -191,-19 -203,0 -368,40 -368,89 0,49 165,88 368,88 204,0 381,-40 369,-88z"/>
   <path class="fil13" d="M4767 5846c-2,-2 -4,-4 -6,-6 -6,-5 -12,-8 -19,-11 2,0 2,-3 2,-4 -1,-2 -3,-3 -4,-3 -8,-3 -16,-3 -23,-2 -16,0 -31,1 -46,4 -7,2 -15,4 -18,11 -1,3 -2,6 -1,9 -2,1 -4,1 -6,2 -2,0 -3,2 -3,4 0,1 1,1 1,2 15,14 35,18 54,18 20,0 42,-3 61,-9 3,-1 7,-2 8,-6 2,-2 1,-6 0,-9z"/>
   <path class="fil15" d="M4909 5798c-2,-3 -4,-5 -6,-7 -6,-4 -12,-8 -19,-10 2,-1 2,-3 1,-5 -1,-1 -2,-2 -4,-3 -7,-3 -15,-3 -22,-2 -16,1 -31,2 -46,5 -8,1 -15,3 -19,10 -1,3 -1,6 0,9 -2,1 -4,1 -6,2 -2,1 -4,2 -3,4 0,1 1,2 1,2 14,15 35,18 54,18 20,0 41,-2 61,-9 3,-1 7,-2 8,-5 2,-3 1,-7 0,-9z"/>
   <path class="fil22" d="M5165 5870c-1,-3 -3,-4 -5,-6 -5,-4 -10,-7 -16,-9 1,0 2,-2 1,-4 -1,-1 -2,-2 -3,-2 -7,-3 -13,-3 -20,-2 -13,0 -26,1 -39,4 -6,1 -13,3 -16,9 -1,2 -1,5 0,8 -2,1 -4,1 -5,1 -2,1 -4,2 -3,4 0,1 1,1 1,2 12,12 30,15 46,15 17,0 36,-2 52,-8 3,-1 6,-2 7,-5 2,-2 1,-5 0,-7z"/>
   <path class="fil1" d="M4968 5876c-1,-3 -4,-5 -6,-7 -6,-4 -12,-8 -19,-10 2,-1 2,-3 2,-4 -1,-2 -3,-3 -4,-4 -7,-3 -15,-2 -23,-2 -15,1 -31,2 -46,5 -7,1 -15,4 -18,11 -1,2 -2,6 -1,9 -2,1 -4,1 -6,1 -1,1 -3,3 -3,5 0,0 1,1 1,2 15,14 35,17 54,17 20,1 42,-2 61,-8 3,-1 7,-3 9,-6 1,-3 0,-6 -1,-9z"/>
   <path class="fil3" d="M3845 6085c0,10 -67,18 -150,18 -83,0 -150,-8 -150,-18 0,-10 67,-18 150,-18 83,0 150,8 150,18z"/>
   <path class="fil28" d="M3534 6022c-15,-29 -19,-64 -6,-95 8,-18 18,-35 34,-47 13,-10 29,-18 46,-22 28,-8 59,-5 85,10 21,12 36,32 47,54 9,21 14,48 35,62 6,4 16,5 19,13 4,9 -3,17 -6,25 -4,9 -8,18 -12,27 -3,6 -6,18 -14,20 -8,3 -16,-4 -23,-6 -18,-5 -38,2 -55,10 -19,8 -39,13 -60,11 -40,-3 -72,-27 -90,-62z"/>
   <path class="fil1" d="M3791 6028c0,0 -4,-2 -10,-5 -18,-9 -57,-29 -78,-41 -8,-4 -15,-8 -25,-17 -3,-2 -6,-6 -9,-9 -3,-4 -5,-8 -5,-11 0,-2 1,-3 2,-5 2,-2 4,-2 5,-2 1,0 3,0 4,1 2,2 4,4 6,7 1,3 2,7 2,9l0 0 3 0 -3 0c0,3 -1,8 -4,12 -2,5 -5,9 -8,11 -5,3 -11,5 -18,5 -7,0 -15,-3 -21,-6 -2,-2 -3,-4 -3,-5 0,-2 1,-4 2,-5 1,-1 3,-2 5,-2l0 0 0 0c2,0 4,1 7,2 5,3 10,7 14,12 4,4 7,9 7,14 0,1 -1,2 -1,3 -3,8 -9,14 -16,17 -2,1 -4,2 -6,2 -3,0 -6,-1 -8,-3 -2,-2 -4,-4 -3,-5 0,-1 0,-2 1,-3 1,-1 2,-2 5,-3 4,-1 8,-1 12,-1 11,0 23,3 32,7 37,14 65,26 101,41l2 -5c-36,-15 -64,-28 -101,-42 -10,-4 -22,-7 -34,-7 -5,0 -9,0 -14,2 -3,1 -6,2 -8,4 -2,2 -3,5 -3,7 1,4 3,7 6,10 3,2 8,4 12,4 3,0 6,-1 8,-2 9,-4 16,-11 20,-20 0,-2 1,-4 1,-6 0,-5 -2,-9 -4,-13 -4,-6 -9,-11 -15,-15 -2,-1 -5,-3 -7,-4 -3,-1 -5,-2 -7,-2l0 0 -1 0c-4,0 -7,1 -9,4 -3,2 -4,5 -4,9 0,3 2,7 6,10 7,4 16,7 24,7 8,0 15,-2 21,-7 4,-2 8,-7 11,-12 2,-5 4,-10 4,-15l0 0c0,-5 -2,-10 -5,-15 -1,-2 -3,-4 -5,-6 -3,-1 -5,-2 -8,-2 -3,0 -6,1 -9,4 -3,3 -4,6 -4,9 0,5 3,10 6,14 3,5 7,8 10,11 10,9 18,13 26,18 29,16 88,45 88,45l3 -5 0 0z"/>
   <polygon class="fil21" points="3774,6067 3802,6006 3796,6003 3768,6065 "/>
   <path class="fil0" d="M3794 6080c-1,-1 -3,-2 -5,-2l0 1c-2,0 -4,-1 -5,-2l-1 -1c0,-2 -3,-3 -4,-2 -2,1 -4,0 -5,-2l-1 -2c-1,-1 -1,-2 -1,-3l28 -62c0,-1 1,-1 2,-1l3 -1c2,-1 4,1 5,2 0,2 2,3 4,3l1 -1c2,0 4,1 5,2l0 1c0,2 3,3 4,2l1 0c2,-1 4,1 5,2l0 1c0,1 0,3 0,5l-27 59c0,2 -2,3 -4,4l0 0c-2,1 -4,0 -5,-2l0 -1z"/>
   <path class="fil22" d="M3792 6042l-13 28c0,1 0,2 1,2 1,0 1,0 2,-1l13 -28c0,-1 0,-2 -1,-2 -1,0 -2,0 -2,1z"/>
   <path class="fil22" d="M3805 6013l-8 16c0,1 0,2 1,2 1,0 2,0 2,-1l7 -16c1,0 0,-1 0,-2 -1,0 -2,0 -2,1z"/>
   <path class="fil22" d="M3813 6012l-18 41c0,1 0,2 1,2 0,1 1,0 2,0l18 -42c0,0 0,-1 -1,-2 0,0 -1,0 -2,1z"/>
   <path class="fil22" d="M3791 6061l-5 12c0,1 0,2 1,2 1,1 1,0 2,0l5 -13c1,0 0,-1 -1,-2 0,0 -1,0 -2,1z"/>
   <path class="fil22" d="M3819 6019l-10 22c-1,1 0,2 0,2 1,1 2,0 2,0l10 -22c1,-1 0,-2 -1,-2 0,-1 -1,0 -1,0z"/>
   <path class="fil22" d="M3802 6056l-4 9c0,1 0,1 1,2 1,0 2,0 2,-1l4 -9c0,-1 0,-1 -1,-2 -1,0 -1,0 -2,1z"/>
   <path class="fil22" d="M3796 6033l-2 3c0,1 0,2 1,2 1,0 2,0 2,-1l1 -3c1,-1 0,-2 0,-2 -1,0 -2,0 -2,1z"/>
   <path class="fil29" d="M3633 6084c-3,0 -6,0 -9,0 -40,-3 -72,-27 -90,-62 -9,-17 -14,-36 -14,-55 0,-14 3,-27 8,-40 2,-3 3,-7 5,-10 -19,50 5,111 56,132 16,7 30,10 45,10 27,0 52,-11 77,-34 1,-1 3,-3 5,-4 20,8 39,16 61,25l-8 17c-2,3 -4,5 -7,6 -1,1 -3,1 -4,1 -1,0 -3,-1 -5,-1 -5,-2 -9,-4 -14,-6 0,0 0,0 0,0 0,0 0,0 0,0 -1,0 -1,0 -2,0 0,0 0,0 0,0l0 0c-4,-1 -7,-1 -11,-1 -14,0 -29,5 -42,11l0 0c-16,7 -33,11 -51,11zm146 -43c-20,-9 -38,-16 -56,-23 2,-1 5,-2 8,-2 3,0 5,0 8,1 10,3 18,11 29,13 1,0 2,0 2,0 1,0 2,0 3,0 1,-1 2,-2 3,-3 3,2 5,3 7,4l-4 10zm7 -16c-1,0 -3,-1 -5,-2 0,0 -1,0 -1,0 6,-9 11,-18 13,-28 1,0 1,1 1,2 1,2 1,3 1,5 0,1 0,2 0,3l-9 20z"/>
   <path class="fil30" d="M3777 6046c-22,-9 -41,-17 -61,-25 2,-1 4,-3 7,-3 18,7 36,14 56,23l-2 5zm6 -15c-2,-1 -4,-2 -7,-4 0,0 0,0 0,0 2,-1 3,-3 4,-4 0,0 1,0 1,0 2,1 4,2 5,2l-3 6z"/>
   <path class="fil31" d="M3769 6063l0 0 8 -17 2 -5 4 -10 3 -6 9 -20c-1,6 -5,12 -7,17 -4,9 -8,18 -12,27 -2,4 -4,10 -7,14z"/>
   <path class="fil3" d="M4955 6050c0,8 -53,14 -118,14 -65,0 -118,-6 -118,-14 0,-8 53,-14 118,-14 65,0 118,6 118,14z"/>
   <path class="fil28" d="M4957 6009c12,-21 15,-47 6,-70 -5,-14 -13,-27 -24,-36 -10,-8 -22,-14 -34,-17 -21,-6 -44,-5 -63,6 -16,9 -28,23 -36,40 -7,15 -11,35 -27,45 -5,3 -12,4 -15,9 -2,7 2,13 5,19 3,7 6,13 9,20 2,5 4,13 9,15 6,2 12,-2 17,-4 14,-3 29,2 41,8 14,7 29,11 45,9 29,-1 54,-18 67,-44z"/>
   <path class="fil1" d="M4769 6014c0,0 44,-21 66,-33 6,-3 12,-6 20,-13 8,-6 11,-13 11,-18 0,-4 -2,-8 -5,-10 -2,-1 -3,-1 -5,-1 -4,0 -8,2 -10,5 -2,4 -4,8 -4,13l0 0 0 0c0,4 2,8 4,12 2,3 4,7 7,9 5,4 11,5 17,5 6,0 13,-2 18,-5 1,-1 2,-2 3,-4 1,-1 1,-3 1,-5 0,-2 0,-5 -2,-7 -2,-1 -4,-2 -7,-2l-1 0c-3,0 -5,1 -8,2 -4,2 -8,5 -11,9 -4,4 -7,9 -7,14 0,2 0,3 1,5 2,7 8,12 14,15 4,2 9,4 14,4 2,0 4,-1 6,-1 2,-1 4,-2 5,-3 1,-1 1,-3 1,-4 0,-2 0,-4 -1,-5 -1,-2 -3,-4 -5,-5 -2,-2 -4,-3 -6,-4 -4,-1 -9,-1 -13,-1 -9,0 -17,2 -25,4 -27,10 -48,19 -75,29l2 6c27,-10 48,-19 75,-29 8,-3 15,-4 23,-4 4,0 8,0 11,1 2,1 4,2 6,4 1,0 1,1 2,2 0,1 0,2 0,2l0 0c0,0 0,1 -2,1 -1,0 -2,1 -4,1 -4,0 -8,-2 -11,-3 -5,-3 -10,-7 -11,-12 -1,-1 -1,-2 -1,-3 0,-2 1,-4 2,-6 3,-4 6,-7 10,-10 2,-1 3,-2 5,-2 1,-1 3,-1 3,-1l1 0c1,0 2,0 3,1 0,0 0,1 0,2 0,1 0,2 0,3 -1,0 -1,1 -1,1 -4,2 -10,4 -15,4 -5,0 -10,-1 -13,-4 -2,-1 -4,-4 -6,-7 -2,-3 -3,-7 -3,-9l0 0c0,-4 1,-7 3,-9 1,-2 3,-3 5,-3 0,0 1,0 2,1 1,1 2,2 2,4 0,3 -2,8 -9,14 -8,6 -13,9 -19,12 -11,6 -27,14 -41,21 -7,3 -13,6 -18,8 -4,2 -7,4 -7,4l3 5z"/>
   <polygon class="fil21" points="4778,6039 4759,5993 4763,5991 4783,6037 "/>
   <path class="fil0" d="M4764 6048c0,-1 2,-2 3,-1l0 0c2,0 3,0 4,-1l0 -1c1,-1 3,-2 4,-1 1,0 3,0 3,-2l1 -1c1,-1 1,-2 1,-3l-20 -45c0,-1 -1,-2 -1,-2l-3 -1c-1,0 -3,1 -3,2 0,1 -2,2 -3,2l-1 0c-1,-1 -3,0 -3,1l-1 1c0,1 -2,2 -3,1l-1 0c-1,0 -2,0 -3,2l0 0c-1,1 -1,3 0,4l19 44c0,1 1,2 3,3l0 0c1,1 3,0 3,-1l1 -1z"/>
   <path class="fil22" d="M4763 6020l9 22c1,1 1,1 2,1 1,-1 1,-2 1,-2l-9 -22c0,0 -1,-1 -2,-1 -1,1 -1,2 -1,2z"/>
   <path class="fil22" d="M4754 5999l5 12c1,1 1,1 2,1 1,-1 1,-1 1,-2l-5 -12c0,-1 -1,-1 -2,-1 -1,1 -1,1 -1,2z"/>
   <path class="fil22" d="M4748 5998l13 31c0,1 1,1 2,1 0,0 1,-1 0,-2l-13 -31c0,-1 -1,-1 -2,-1 0,1 -1,2 0,2z"/>
   <path class="fil22" d="M4763 6035l4 9c0,1 1,1 2,1 1,0 1,-1 1,-2l-4 -9c0,-1 -1,-1 -2,-1 -1,0 -1,1 -1,2z"/>
   <path class="fil22" d="M4744 6004l7 16c0,1 1,1 2,1 0,0 1,-1 1,-2l-7 -17c-1,0 -2,-1 -2,0 -1,0 -2,1 -1,2z"/>
   <path class="fil22" d="M4755 6031l3 7c0,0 1,1 2,0 1,0 1,-1 1,-2l-3 -6c0,-1 -1,-1 -2,-1 -1,0 -1,1 -1,2z"/>
   <path class="fil22" d="M4760 6014l1 2c1,1 2,1 2,1 1,0 2,-1 1,-2l-1 -2c0,-1 -1,-1 -2,-1 -1,0 -1,1 -1,2z"/>
   <path class="fil29" d="M4884 6054c-13,0 -26,-4 -39,-10 -10,-4 -21,-9 -32,-9 -3,0 -6,1 -9,1 -4,1 -9,5 -14,5 -1,0 -2,0 -3,-1 -2,0 -3,-2 -5,-4l-5 -12c17,-7 31,-12 46,-18 1,1 2,2 3,2 18,18 38,27 58,27 10,0 21,-3 32,-7 38,-15 57,-60 43,-97 2,2 3,5 4,8 4,9 5,18 5,28 0,2 0,5 0,8 0,2 -1,4 -1,6 -2,10 -5,19 -10,28 -13,26 -38,43 -67,44 -2,1 -4,1 -6,1zm-109 -36l-3 -6c2,0 4,-1 6,-2 1,0 1,1 2,1 1,0 1,0 2,0 0,0 1,0 2,0 7,-1 14,-7 21,-9 2,0 4,-1 6,-1 2,0 3,1 5,1 -13,5 -26,11 -41,16zm-5 -11l-6 -15c0,-1 0,-1 0,-2 0,-1 0,-2 0,-4l1 -1c2,7 5,14 9,20 0,0 0,0 -1,0 -1,1 -2,1 -3,2z"/>
   <path class="fil30" d="M4777 6024l-2 -6c15,-5 28,-11 41,-16 2,1 5,2 7,4 -15,6 -29,11 -46,18zm-5 -12l-2 -5c1,-1 2,-1 3,-2 1,0 1,0 1,0 1,1 2,3 3,4 1,0 1,0 1,1 -2,1 -4,2 -6,2z"/>
   <path class="fil31" d="M4782 6036c-2,-3 -3,-8 -4,-11 -3,-7 -6,-13 -9,-20 -2,-4 -5,-8 -5,-13l0 0 6 15 2 5 3 6 2 6 5 12z"/>
   <path class="fil32" d="M4011 5189l0 0c-13,0 -24,-10 -24,-23 0,-110 34,-171 70,-220 5,-6 12,-10 19,-10 5,0 10,2 14,5 10,8 13,22 5,33 -30,40 -62,91 -61,191 0,13 -10,24 -23,24z"/>
   <path class="fil32" d="M4152 4904c-5,0 -10,-2 -15,-6 -10,-8 -12,-22 -4,-33 11,-13 22,-20 24,-21 4,-2 8,-3 12,-3 8,0 16,4 20,11 7,11 3,26 -8,32 0,0 -5,4 -11,11 -5,5 -11,9 -18,9z"/>
   <path class="fil3" d="M4247 6167c0,16 -70,29 -156,29 -87,0 -157,-13 -157,-29 0,-16 70,-28 157,-28 86,0 156,12 156,28z"/>
   <path class="fil6" d="M4194 6102l-137 0 68 -23 139 0 -1 2 -66 20c-1,0 -2,1 -3,1z"/>
   <path class="fil28" d="M4192 6099l-134 0 67 -20 135 0 -65 20c-1,0 -2,0 -3,0z"/>
   <path class="fil33" d="M4181 6096l-89 0 45 -13 89 0 -43 13c0,0 -1,0 -2,0z"/>
   <path class="fil6" d="M4264 6079l-139 0 18 -76c1,-3 3,-4 6,-4l125 0c4,0 7,3 6,7l-16 73z"/>
   <path class="fil6" d="M4260 6079l-135 0 18 -76c1,-3 3,-4 6,-4l122 0c4,0 7,3 6,7l-17 73z"/>
   <polygon class="fil28" points="4254,6075 4132,6075 4148,6004 4148,6003 4270,6003 "/>
   <path class="fil1" d="M4240 6059l-1 5 -4 0c-1,0 -2,1 -2,1 0,1 1,2 2,2l6 0c0,0 1,-1 1,-1l1 -6c1,-1 0,-2 -1,-2 -1,0 -1,0 -2,1z"/>
   <path class="fil1" d="M4218 6064l-14 0c-1,0 -1,1 -1,1 0,1 0,2 1,2l14 0c0,0 1,-1 1,-2 0,0 -1,-1 -1,-1zm-31 0l-14 0c0,0 -1,1 -1,1 0,1 1,2 1,2l14 0c1,0 2,-1 2,-2 0,0 -1,-1 -2,-1z"/>
   <path class="fil1" d="M4157 6064l-5 0 1 -4c0,-1 0,-2 -1,-2 -1,0 -1,0 -2,1l-1 6 0 1 1 1 7 0c0,0 1,-1 1,-2 0,0 -1,-1 -1,-1z"/>
   <path class="fil1" d="M4157 6044l2 -12c1,-1 0,-2 -1,-2 0,0 -1,0 -1,1l-3 12c0,1 0,2 1,2 1,0 2,0 2,-1zm6 -28l1 -3 -2 0 1 1 0 0 -1 -1 0 1 10 0c1,0 2,0 2,-1 0,-1 -1,-2 -2,-2l-10 0 -1 1 0 0 0 0 -1 3c0,1 0,2 1,2 1,0 2,0 2,-1zm25 -2l13 0c1,0 2,0 2,-1 0,-1 -1,-2 -2,-2l-13 0c-1,0 -1,1 -1,2 0,1 0,1 1,1zm29 0l13 0c1,0 2,0 2,-1 0,-1 -1,-2 -2,-2l-13 0c-1,0 -1,1 -1,2 0,1 0,1 1,1z"/>
   <path class="fil1" d="M4246 6014l4 0 -1 4c0,1 1,2 2,2 0,0 1,0 1,-1l2 -6 -1 -1 -1 -1 -6 0c-1,0 -1,1 -1,2 0,1 0,1 1,1z"/>
   <path class="fil1" d="M4246 6033l-2 12c-1,0 0,1 1,1 1,1 1,0 2,-1l2 -11c0,-1 0,-2 -1,-2 -1,0 -2,0 -2,1z"/>
   <polygon class="fil28" points="4092,6094 4203,6094 4203,6091 4092,6091 "/>
   <polygon class="fil28" points="4113,6087 4224,6087 4224,6086 4113,6086 "/>
   <path class="fil34" d="M4081 6085c5,-4 13,-4 19,-5 6,-1 12,-1 18,-1 3,1 2,5 -1,5 -3,1 -7,1 -10,0 -2,3 -6,5 -9,6 -4,1 -7,1 -11,1 -1,0 -2,0 -3,-1l-3 -5z"/>
   <polygon class="fil1" points="4227,6039 4202,6013 4201,6015 4226,6040 "/>
   <polygon class="fil1" points="4226,6041 4228,6041 4228,6039 4226,6039 "/>
   <polygon class="fil1" points="4217,6050 4219,6050 4219,6048 4217,6048 "/>
   <polygon class="fil1" points="4191,6023 4192,6023 4192,6021 4191,6021 "/>
   <polygon class="fil1" points="4200,6015 4202,6015 4202,6013 4200,6013 "/>
   <path class="fil1" d="M4192 6023l0 0c2,-1 4,-2 8,-2 4,0 9,2 13,6 5,4 6,9 6,13 0,3 -1,5 -1,6 0,1 -1,1 -1,2l0 0 1 1c0,0 2,-4 2,-9 0,-4 -1,-9 -6,-14 -4,-5 -10,-6 -14,-6 -5,0 -9,2 -9,2l1 1z"/>
   <path class="fil1" d="M4197 6029l17 -3 -13 14c-1,-1 -4,-1 -5,0 -2,1 -2,4 0,5 1,2 4,2 5,0 1,-1 1,-4 0,-5l0 0 13 -13c0,0 -2,11 -2,17 -4,2 -17,10 -20,12 -1,1 -8,-7 -7,-7 4,-5 12,-20 12,-20z"/>
   <polygon class="fil1" points="4180,6048 4182,6046 4184,6046 4195,6057 4195,6059 4195,6059 4192,6061 4191,6061 4180,6050 "/>
   <path class="fil4" d="M3980 6095c-3,10 -3,17 -4,27 -3,15 -4,31 6,43 7,8 13,11 24,11 9,0 18,-2 27,-2 6,0 25,2 31,2 27,1 42,-5 69,-8 18,-3 52,-10 70,-15 70,-19 45,-47 29,-51 -3,-1 -18,-6 -18,-6l-20 6 -71 0c0,0 -30,-2 -43,-5l-100 -2z"/>
   <path class="fil34" d="M4182 6057c2,0 3,2 4,3 3,2 7,3 10,4 3,2 7,3 10,4 0,0 1,1 2,1 0,1 1,2 1,3 2,10 4,21 1,32 -2,-4 -4,-8 -6,-12 0,-2 -1,-4 -2,-5 -1,-1 -2,-2 -3,-2 -4,-2 -6,-5 -9,-8 -1,-1 -1,-2 -1,-3l-1 -1 0 -1c-4,-2 -8,-5 -12,-7l6 -8z"/>
   <path class="fil5" d="M3991 6095c-5,-4 -11,-9 -17,-14 -13,-11 -25,-23 -27,-31 -3,-20 0,-78 1,-106 0,-2 0,-3 1,-5 1,-26 15,-37 22,-41 4,33 12,110 12,114 1,5 8,83 8,83z"/>
   <path class="fil21" d="M3991 6095c-5,-4 -11,-9 -17,-14 -1,-21 -9,-16 -18,-54 -10,-47 -2,-91 -2,-91l21 3c4,34 8,70 8,73 1,5 8,83 8,83z"/>
   <path class="fil34" d="M4005 5883c0,0 4,-16 2,-28 -2,-11 -9,-32 -6,-47 3,-16 22,-29 43,-27 20,2 27,22 30,34 3,11 3,29 2,38 -1,10 -6,17 -10,19 -3,2 -16,-1 -18,2 -3,2 -4,17 -4,17l-39 -8z"/>
   <path class="fil5" d="M3995 5895c0,0 1,-9 4,-12 4,-4 27,-4 34,-3 7,1 24,9 26,11 2,1 -2,10 -2,10l-62 -6z"/>
   <path class="fil4" d="M4006 5863c0,0 28,2 34,0 5,-3 13,-8 14,-18 1,-9 -1,-12 2,-18 4,-5 7,-3 8,2 0,5 1,14 2,15 2,1 4,-6 3,-16 0,-8 -1,-15 -4,-21 -2,-6 -4,-5 -6,-6 2,-2 5,-2 10,-9 6,-9 3,-23 -13,-23 -26,0 -55,5 -55,25 0,0 -9,-2 -10,16 0,18 11,40 12,45 1,6 0,7 3,8z"/>
   <path class="fil5" d="M4085 6074c1,9 9,23 4,25 -2,1 -11,0 -22,-1l0 0 -1 0c-9,0 -20,-1 -29,-2 -37,-2 -55,6 -59,4 -2,-2 -2,-5 -1,-8 1,-8 1,-16 0,-24 -1,-7 -2,-15 -4,-24 -6,-32 -17,-81 -19,-111 -3,-46 46,-42 46,-42 63,-3 93,15 96,42 0,2 1,4 1,6 1,28 -7,73 -11,106 -1,10 -1,20 -1,29z"/>
   <path class="fil21" d="M4085 6074c1,9 9,23 4,25 -2,1 -11,0 -22,-1 10,1 12,-6 10,-11 -3,-5 -7,-17 -7,-30 1,-13 6,-44 9,-72 3,-27 0,-47 0,-50 1,3 6,7 18,10 0,28 -7,69 -11,100 -1,10 -1,20 -1,29z"/>
   <path class="fil5" d="M4055 5898c0,0 28,-3 41,8 10,9 30,116 30,116l-27 11c0,0 -30,-73 -37,-72l-7 -63z"/>
   <path class="fil5" d="M4098 6031c9,28 83,39 83,39l5 -13c0,0 -46,-34 -62,-38l-26 12z"/>
   <path class="fil35" d="M4194 6103c7,0 13,1 20,1 1,0 1,-1 0,-1 -6,-1 -13,-1 -20,-2 -1,0 -1,2 0,2z"/>
   <path class="fil35" d="M4177 6159c-25,-2 -50,4 -74,8 -25,3 -51,5 -73,-6 -2,0 -4,-1 -6,-1 -3,0 -5,2 -6,3 -5,3 -9,5 -14,6 -7,2 -9,0 -16,-1 0,0 -1,0 -2,0l0 0c7,6 11,8 20,8 9,0 18,-2 27,-2 6,0 25,2 31,2 27,1 42,-5 69,-8 11,-2 28,-5 43,-8l1 -1z"/>
   <path class="fil5" d="M4875 5173c-4,-3 -8,-5 -12,-6 -6,-2 -3,-6 -10,-5 -12,2 -40,8 -58,12l0 1c-9,2 -12,0 -12,0l-3 4 0 1c-2,2 -5,5 -5,10 0,1 -1,4 -1,8 -1,3 -1,6 1,7l0 0 0 1c6,2 14,2 16,2 9,0 30,-2 50,-5 12,-2 24,-3 31,-4 3,0 6,-2 8,-4 2,-1 3,-3 4,-6 1,-7 -4,-12 -9,-16z"/>
   <path class="fil5" d="M4793 5198c0,1 -1,2 -1,3l-2 2c-12,12 -28,0 -38,-8 -13,-11 -28,-29 -41,-41 0,0 -5,-4 -4,-5l11 -15c0,0 31,28 48,34 8,3 16,5 21,9 1,0 2,0 2,1 0,0 8,9 4,20z"/>
   <path class="fil21" d="M4841 5203c-20,3 -41,5 -50,5 -2,0 -10,0 -16,-2l0 -1 0 0c-12,-5 -19,-16 -1,-7 4,2 8,3 10,4 2,0 4,1 6,1l1 0c17,-1 66,-37 50,0z"/>
   <path class="fil5" d="M4921 5273c-4,10 -5,20 -3,30 5,20 0,21 0,21 0,0 -27,17 -49,24 -16,5 -29,4 -29,-14l0 0c0,-1 0,-2 0,-3 1,-39 -7,-41 -9,-85 -3,-46 -2,-72 12,-80 16,-8 38,-13 69,-6 23,6 30,12 30,29 0,6 -1,12 -2,21 -4,21 -13,47 -19,63z"/>
   <path class="fil21" d="M4921 5273c-4,10 -5,20 -3,30 5,20 0,21 0,21 0,0 -27,17 -49,24l-21 -2 -8 -7 0 -5c0,-1 0,-2 0,-3 5,0 15,1 31,-1 12,-1 23,-5 31,-7 5,-3 8,-8 7,-14 -1,-8 -3,-19 -2,-27 0,-9 4,-24 7,-34 2,-8 3,-17 3,-25 -1,-15 0,-29 0,-29l16 -9 9 4c0,6 -1,12 -2,21 -4,21 -13,47 -19,63z"/>
   <path class="fil4" d="M4851 5094c0,0 -11,-12 -9,-28 1,-9 4,-19 18,-22 8,-2 19,4 27,13 24,2 32,19 33,38l-29 -6 -40 5z"/>
   <path class="fil34" d="M4915 5106c0,22 -20,35 -20,35l2 20 -13 9 -9 5 -5 -10 -1 -13c0,-3 -2,-6 -5,-7 -3,0 -8,-2 -13,-7l0 -1 -1 0c-8,-12 -11,-55 18,-68 29,-13 48,15 47,37z"/>
   <path class="fil36" d="M4865 5176c0,0 -13,79 -8,117l9 16 9 -18c0,0 -9,-65 -4,-113l-6 -2z"/>
   <path class="fil37" d="M4863 5170l0 1c0,2 1,4 2,5l6 2 6 -4 -7 -8 -1 0c-2,1 -4,2 -6,4l0 0z"/>
   <path class="fil21" d="M4897 5152c0,0 3,2 6,6 0,0 -4,2 -8,4 -4,2 -20,14 -20,14l-5 -10c0,0 17,-12 27,-14z"/>
   <path class="fil21" d="M4870 5166c0,0 -5,2 -7,6 0,0 -3,-5 1,-15 0,0 3,-3 5,-4l1 13z"/>
   <path class="fil38" d="M4905 5727c-70,0 -127,-8 -127,-17 0,-9 57,-17 127,-17 70,0 127,8 127,17 0,9 -57,17 -127,17z"/>
   <path class="fil34" d="M4845 5688c0,0 -2,5 -2,9 0,4 12,4 14,2 1,-2 2,-19 2,-19l-14 8z"/>
   <path class="fil39" d="M4860 5703c0,4 -1,10 -1,10l-14 0 -1 -2c0,0 -4,2 -8,2l-12 0c-8,0 -13,-1 -13,-2 -1,-7 9,-7 12,-7 8,0 16,-3 18,-7 1,-3 0,-4 2,-3 0,0 1,0 2,2 2,3 5,4 8,4 1,0 3,-1 4,-2 0,0 3,1 3,5z"/>
   <path class="fil34" d="M4981 5675c0,0 2,10 4,13 2,4 13,-1 14,-3 0,-2 -6,-19 -6,-19l-12 9z"/>
   <path class="fil39" d="M5003 5687c1,4 4,11 4,11l-11 6 -2 -2c0,0 -2,4 -6,6 -2,2 -7,4 -10,5 -10,2 -17,1 -18,-1 -3,-5 10,-8 12,-9 7,-3 10,-10 11,-14 0,-3 -1,-4 1,-4 0,0 1,0 3,1 2,2 5,3 8,1 1,-1 3,-2 4,-4 0,0 2,0 4,4z"/>
   <path class="fil4" d="M4932 5402c0,0 19,-45 -14,-78 0,0 -29,13 -51,14 -18,1 -27,-1 -27,-1 0,0 -4,33 -2,85l94 -20z"/>
   <path class="fil4" d="M4861 5692c-1,0 -2,0 -2,0 -12,0 -18,-1 -18,-1l0 -4c0,-52 -6,-137 -7,-163 0,-2 0,-4 0,-6 2,-19 22,-17 31,1 2,5 3,9 5,14 1,6 2,13 3,20 4,45 -9,106 -12,139z"/>
   <path class="fil4" d="M4896 5423c0,1 0,1 0,2 -5,24 -20,88 -26,108l0 0c-2,3 -5,6 -9,7 -11,3 -26,-1 -27,-22 0,-2 0,-4 0,-7 1,-16 5,-108 6,-117 0,-9 2,-21 7,-23 23,-8 55,19 49,52z"/>
   <path class="fil35" d="M4874 5517c8,-27 18,-73 22,-92l-5 -22 -24 -29 -13 -1c0,0 2,43 17,77 0,0 0,49 -6,69l-6 16c0,0 1,2 2,5 3,10 9,34 6,62 -5,37 -8,90 -8,90 0,0 1,0 2,0 3,-32 15,-90 12,-134 0,-1 0,-2 0,-5 -3,-18 1,-36 1,-36z"/>
   <path class="fil4" d="M4942 5518c-16,-15 -37,-8 -27,15 11,25 45,93 63,142l1 3c0,0 8,-1 19,-6 -8,-32 -15,-86 -33,-124 -6,-12 -15,-22 -23,-30z"/>
   <path class="fil4" d="M4854 5373c-4,-37 42,-13 64,-1 9,6 12,16 14,25 1,10 13,108 15,126 5,41 -30,19 -33,7 -9,-28 -59,-137 -60,-157z"/>
   <path class="fil4" d="M4944 5498c0,0 1,20 18,44 0,0 -27,-13 -28,-15 -2,-1 -6,-20 -6,-22 1,-2 16,-7 16,-7z"/>
   <path class="fil1" d="M4632 5048c21,-12 27,-24 27,-24 0,0 0,-3 0,-8 0,-9 -3,-25 -20,-32 -9,-3 -16,-3 -23,-3 -13,0 -24,0 -35,-19l1 1c4,27 0,86 50,85z"/>
   <path class="fil40" d="M4632 5048c-49,0 -46,-54 -50,-83 0,4 1,7 2,10 6,20 19,57 44,57 3,0 7,-1 11,-2 2,2 3,5 3,8l0 1 0 -1 -10 10 0 0 0 0 0 0c0,0 0,0 0,0zm10 -10c0,-3 0,-6 -1,-9 3,-1 7,-3 10,-6 0,3 0,5 -1,8l-8 7z"/>
   <path class="fil40" d="M4651 5031c1,-3 1,-6 2,-9 2,-2 4,-4 6,-6 0,0 0,1 0,1 0,4 0,7 0,7 0,0 0,0 0,0l-1 0 -7 7z"/>
   <path class="fil40" d="M4651 5023c0,-6 -2,-12 -6,-16 -3,-4 -6,-6 -10,-8 -4,-1 -9,-2 -13,-2 -5,-1 -9,-2 -14,-4 -4,-1 -8,-4 -12,-7 -7,-6 -12,-14 -14,-23 3,8 9,16 16,21 3,3 7,5 11,7 4,1 9,2 13,2 5,1 9,1 14,3 5,2 9,5 11,9 4,5 6,11 6,17 -1,0 -1,1 -2,1z"/>
   <path class="fil41" d="M4650 5031c1,-3 1,-5 1,-8 1,0 1,-1 2,-1 -1,3 -1,6 -2,9l-1 0z"/>
   <path class="fil40" d="M4639 5030c-2,-5 -5,-9 -9,-11 -4,-3 -7,-5 -11,-7 -4,-1 -8,-3 -12,-5 -7,-5 -13,-12 -17,-20 -2,-4 -4,-8 -6,-12 -1,-6 -2,-11 -2,-12 2,8 5,16 10,23 4,7 10,13 17,18 4,2 7,4 11,5 4,2 8,5 11,7 4,3 7,7 9,11 0,0 1,1 1,2 -1,0 -1,0 -2,1z"/>
   <path class="fil42" d="M4582 4965c0,0 0,-1 0,-2l0 0c0,1 0,2 0,2z"/>
   <path class="fil41" d="M4642 5038c0,-3 -1,-6 -3,-8 1,-1 1,-1 2,-1 1,3 1,6 1,9l0 0z"/>
   <path class="fil41" d="M4584 4975c-1,-3 -2,-6 -2,-10 0,0 0,-1 0,-2l0 0c0,1 1,6 2,12z"/>
   <path class="fil21" d="M4946 5374c1,11 6,30 15,34 3,1 7,0 11,-4 3,-3 5,-6 4,-9 -2,-8 -20,-17 -30,-21zm16 40c-1,0 -2,-1 -4,-1 -14,-6 -18,-39 -18,-43l-1 -4 4 1c4,2 36,12 39,27 1,5 -1,10 -6,14 -5,4 -9,6 -14,6z"/>
   <polygon class="fil43" points="4957,5362 4930,5385 4640,5057 4667,5033 "/>
   <polygon class="fil44" points="4667,5033 4640,5057 4632,5048 4658,5024 "/>
   <polygon class="fil13" points="4957,5362 4930,5385 4640,5057 4667,5033 "/>
   <polygon class="fil45" points="4667,5033 4640,5057 4632,5048 4658,5024 "/>
   <polygon class="fil46" points="4632,5048 4632,5048 4642,5038 4642,5039 "/>
   <polygon class="fil14" points="4930,5385 4640,5057 4650,5048 4940,5376 "/>
   <polygon class="fil47" points="4640,5057 4640,5057 4632,5048 4642,5039 4650,5048 4650,5048 "/>
   <polygon class="fil21" points="4957,5362 4930,5385 4926,5380 4953,5356 "/>
   <path class="fil34" d="M4905 5337l-9 -8c0,0 -4,4 -6,5l-2 0c-2,0 -4,1 -7,2 -3,1 -6,2 -6,3 0,1 2,2 3,2l1 0 0 1c1,2 10,15 19,1 2,-4 7,-6 7,-6z"/>
   <path class="fil5" d="M4914 5212c4,13 8,33 17,50l0 2 0 0c0,0 0,1 1,2 1,3 6,10 15,10 0,0 2,0 3,0 2,0 4,0 7,0 2,0 4,-1 5,-2l0 0c0,0 0,-1 1,-1l0 -1 0 -1c0,0 0,-1 0,-2l0 -1c0,-5 -1,-9 -1,-11 -1,-14 -16,-60 -20,-79 -1,-2 -3,-5 -5,-7 -2,-1 -4,-2 -7,-2l0 0 -1 0c-6,0 -11,5 -14,11 -1,4 -3,8 -3,12 -1,7 0,14 2,20z"/>
   <path class="fil5" d="M4892 5331l8 7 0 0 2 2c0,0 16,-14 28,-26 12,-11 24,-23 31,-38 1,0 1,-1 1,-2l0 0c0,0 0,-1 1,-1l0 -1 0 -1c0,0 0,-1 0,-2l0 -1c0,-3 -1,-6 -3,-8l0 -1c-1,-1 -2,-2 -4,-2 0,-1 -1,-1 -2,-1 -9,-4 -18,2 -18,2 0,1 -1,1 -1,2 -2,1 -3,2 -4,4 -3,4 -6,8 -8,14 -8,18 -31,53 -31,53z"/>
   <path class="fil4" d="M4847 5079c0,0 19,-4 34,4 7,4 16,4 24,1l5 -3c0,0 -5,-6 -6,-7 -1,0 -5,-5 -8,-7 -3,-1 -15,-5 -17,-5 -1,0 -5,-1 -9,0 -4,1 -6,2 -8,3 -1,1 -7,4 -7,4l-8 10z"/>
   <path class="fil34" d="M4710 5145c0,0 -14,-11 -15,-20 -1,-9 6,-14 10,-8 7,8 6,21 6,21l2 3 -3 4z"/>
   <path class="fil21" d="M4900 5338l0 0 2 2c0,0 16,-14 28,-26 12,-11 24,-23 31,-38 1,0 1,-1 1,-2l0 0c0,0 0,-1 1,-1l0 -1 0 -1c0,0 0,-1 0,-2l0 -1c0,-5 -1,-9 -1,-11 -1,-14 -16,-60 -20,-79 -1,-2 -3,-5 -5,-7 -2,-1 -4,-2 -7,-2l0 0 -1 0c3,5 7,14 12,34 7,26 11,42 13,53 1,4 1,8 1,11 0,1 -2,5 -5,9 -11,18 -39,54 -50,62z"/>
   <path class="fil4" d="M4895 5141c0,0 -1,-7 -2,-16 0,0 10,-7 10,-14 0,-9 -11,0 -11,0 0,0 -2,-7 -2,-13 -1,-11 17,-18 17,-18l9 6 4 9c0,0 1,37 -25,46z"/>
   <path class="fil48" d="M4565 5399l-114 66c-2,1 -4,0 -5,-1l-9 -16c-1,-2 0,-4 1,-5l115 -66c2,-1 4,0 4,1l9 16c1,2 1,4 -1,5z"/>
   <polygon class="fil49" points="4551,5385 4550,5385 4547,5381 4548,5380 4551,5384 "/>
   <polygon class="fil49" points="4547,5384 4547,5383 4546,5382 4546,5381 4547,5383 "/>
   <polygon class="fil49" points="4546,5387 4546,5387 4543,5383 4544,5382 4547,5387 "/>
   <polygon class="fil49" points="4543,5386 4543,5386 4542,5384 4542,5384 4543,5385 "/>
   <polygon class="fil50" points="4539,5385 4539,5385 4539,5385 "/>
   <polygon class="fil49" points="4542,5390 4542,5390 4539,5385 4539,5385 4540,5385 4543,5389 "/>
   <polygon class="fil49" points="4539,5388 4539,5388 4537,5386 4538,5386 4539,5388 "/>
   <polygon class="fil50" points="4535,5388 4535,5388 4535,5388 "/>
   <polygon class="fil49" points="4538,5392 4538,5392 4535,5388 4535,5388 4536,5387 4539,5391 "/>
   <polygon class="fil49" points="4535,5390 4535,5390 4533,5388 4534,5388 4535,5390 "/>
   <polygon class="fil49" points="4534,5394 4534,5394 4531,5390 4532,5389 4535,5394 "/>
   <polygon class="fil50" points="4529,5391 4529,5391 4530,5391 4530,5391 "/>
   <polygon class="fil49" points="4531,5393 4531,5393 4529,5391 4530,5391 4531,5392 "/>
   <polygon class="fil50" points="4528,5392 4528,5392 4528,5392 "/>
   <polygon class="fil49" points="4530,5397 4530,5397 4527,5392 4528,5392 4528,5392 4531,5396 "/>
   <polygon class="fil49" points="4527,5395 4526,5395 4525,5393 4526,5393 4527,5395 "/>
   <polygon class="fil49" points="4526,5399 4526,5399 4523,5394 4524,5394 4527,5398 "/>
   <polygon class="fil49" points="4523,5397 4522,5397 4521,5395 4522,5395 4523,5397 "/>
   <polygon class="fil49" points="4522,5401 4522,5401 4519,5397 4520,5396 4522,5401 "/>
   <polygon class="fil50" points="4517,5398 4517,5398 4518,5397 4518,5397 "/>
   <polygon class="fil49" points="4519,5400 4518,5400 4517,5398 4518,5397 4519,5399 "/>
   <polygon class="fil50" points="4516,5399 4516,5399 4516,5399 "/>
   <polygon class="fil49" points="4518,5404 4518,5404 4515,5399 4516,5399 4516,5399 4518,5403 "/>
   <polygon class="fil50" points="4514,5400 4514,5400 4514,5400 "/>
   <polygon class="fil49" points="4515,5402 4514,5402 4513,5400 4514,5400 4514,5400 4515,5402 "/>
   <polygon class="fil49" points="4514,5406 4514,5406 4511,5401 4512,5401 4514,5405 "/>
   <polygon class="fil49" points="4511,5404 4510,5404 4509,5402 4510,5402 4511,5404 "/>
   <polygon class="fil49" points="4510,5408 4509,5408 4507,5404 4508,5403 4508,5403 4510,5408 "/>
   <polygon class="fil50" points="4505,5405 4505,5405 4506,5404 4506,5404 "/>
   <polygon class="fil49" points="4507,5407 4506,5407 4505,5405 4506,5404 4507,5406 "/>
   <polygon class="fil50" points="4503,5406 4504,5406 4504,5406 "/>
   <polygon class="fil49" points="4506,5411 4505,5410 4503,5406 4503,5406 4504,5406 4506,5410 "/>
   <polygon class="fil49" points="4503,5409 4502,5409 4501,5407 4502,5407 4503,5409 "/>
   <polygon class="fil49" points="4502,5413 4501,5413 4499,5408 4500,5408 4502,5412 "/>
   <polygon class="fil49" points="4499,5411 4498,5411 4497,5409 4498,5409 4499,5411 "/>
   <polygon class="fil50" points="4495,5411 4495,5411 4496,5410 4496,5410 "/>
   <polygon class="fil49" points="4498,5415 4497,5415 4495,5411 4496,5410 4498,5415 "/>
   <polygon class="fil50" points="4493,5412 4493,5412 4494,5411 "/>
   <polygon class="fil49" points="4495,5414 4494,5414 4493,5412 4494,5411 4495,5413 "/>
   <polygon class="fil49" points="4494,5418 4493,5417 4491,5413 4492,5412 4494,5417 "/>
   <polygon class="fil50" points="4489,5414 4490,5414 4490,5414 "/>
   <polygon class="fil49" points="4491,5416 4490,5416 4489,5414 4489,5414 4490,5414 4491,5416 "/>
   <polygon class="fil49" points="4490,5420 4489,5420 4487,5415 4488,5415 4490,5419 "/>
   <polygon class="fil49" points="4487,5418 4486,5418 4485,5416 4486,5416 4487,5418 "/>
   <polygon class="fil50" points="4483,5418 4483,5418 4484,5417 "/>
   <polygon class="fil49" points="4486,5422 4485,5422 4483,5418 4484,5417 4484,5417 4486,5422 "/>
   <polygon class="fil50" points="4481,5419 4481,5419 4481,5419 "/>
   <polygon class="fil49" points="4483,5421 4482,5421 4481,5419 4481,5419 4482,5418 4483,5420 "/>
   <polygon class="fil49" points="4482,5425 4481,5424 4479,5420 4480,5419 4482,5424 "/>
   <polygon class="fil49" points="4479,5423 4478,5423 4477,5421 4478,5421 4479,5423 "/>
   <polygon class="fil49" points="4478,5427 4477,5427 4475,5422 4476,5422 4478,5426 "/>
   <polygon class="fil49" points="4474,5425 4474,5425 4473,5423 4473,5423 4475,5425 "/>
   <polygon class="fil49" points="4474,5429 4473,5429 4471,5425 4472,5424 4472,5424 4474,5429 "/>
   <polygon class="fil49" points="4470,5428 4470,5428 4469,5426 4469,5425 4471,5427 "/>
   <polygon class="fil49" points="4470,5432 4469,5431 4467,5427 4468,5426 4470,5431 "/>
   <polygon class="fil49" points="4466,5430 4466,5430 4465,5428 4465,5428 4467,5430 "/>
   <polygon class="fil49" points="4466,5434 4465,5434 4463,5429 4464,5429 4466,5433 "/>
   <polygon class="fil49" points="4462,5432 4462,5432 4461,5430 4461,5430 4463,5432 "/>
   <polygon class="fil50" points="4459,5432 4459,5432 4460,5431 4460,5431 "/>
   <polygon class="fil49" points="4462,5436 4461,5436 4459,5432 4460,5431 4462,5435 "/>
   <polygon class="fil49" points="4458,5435 4458,5434 4457,5433 4457,5432 4458,5434 "/>
   <polygon class="fil49" points="4458,5439 4457,5438 4455,5434 4456,5433 4458,5438 "/>
   <polygon class="fil49" points="4454,5437 4454,5437 4453,5435 4453,5435 4454,5437 "/>
   <polygon class="fil49" points="4454,5441 4453,5441 4451,5436 4451,5436 4454,5440 "/>
   <polygon class="fil49" points="4450,5439 4450,5439 4449,5437 4449,5437 4450,5439 "/>
   <polygon class="fil50" points="4447,5438 4447,5438 4447,5438 "/>
   <polygon class="fil49" points="4450,5443 4449,5443 4447,5439 4447,5438 4447,5438 4450,5442 "/>
   <polygon class="fil49" points="4446,5442 4446,5441 4445,5440 4445,5439 4446,5441 "/>
   <path class="fil3" d="M4763 6084c0,9 -50,17 -112,17 -62,0 -113,-8 -113,-17 0,-9 51,-17 113,-17 62,0 112,8 112,17z"/>
   <path class="fil34" d="M4680 6048c0,0 0,16 0,20 1,3 13,4 15,2 1,-2 2,-20 2,-20l-17 -2z"/>
   <path class="fil39" d="M4698 6073c0,4 -1,11 -1,11l-15 0 0 -2c0,0 -5,2 -9,2l-12 0c-9,0 -14,-1 -14,-3 -1,-6 9,-6 12,-6 8,0 17,-4 19,-8 1,-3 0,-3 2,-3 0,0 2,0 3,2 1,3 4,5 7,4 2,0 4,-1 5,-2 0,0 3,1 3,5z"/>
   <path class="fil34" d="M4629 6044c0,0 3,11 4,14 2,4 14,-1 14,-3 1,-3 -5,-20 -5,-20l-13 9z"/>
   <path class="fil39" d="M4652 6057c1,4 3,11 3,11l-10 7 -3 -2c0,0 -2,4 -5,6 -3,2 -8,4 -11,4 -10,3 -18,2 -19,0 -3,-5 10,-9 13,-10 7,-3 11,-10 11,-14 0,-4 -1,-4 1,-4 0,0 1,0 3,1 2,2 6,3 8,1 2,-1 3,-2 4,-4 0,0 3,0 5,4z"/>
   <path class="fil51" d="M4706 5693c5,-4 11,-8 16,-13 13,-10 23,-21 25,-29 3,-19 0,-73 -1,-98 0,-2 0,-3 0,-5 -2,-24 -15,-35 -21,-39 -3,32 -11,103 -12,106 0,5 -7,78 -7,78z"/>
   <path class="fil52" d="M4706 5693c5,-4 11,-8 16,-13 1,-20 7,-48 15,-83 10,-44 4,-52 4,-52l-20 3c-4,31 -7,65 -8,67 0,5 -7,78 -7,78z"/>
   <path class="fil4" d="M4658 5858c1,23 3,46 6,62 3,14 46,16 40,6 -8,-16 6,-64 13,-145 1,-12 6,-14 10,-39 4,-26 -10,-48 -10,-48l-60 -5 0 74 -1 25c0,0 0,34 2,70z"/>
   <path class="fil4" d="M4699 5916c0,0 12,14 10,40 -2,27 -11,105 -11,105 0,0 -13,2 -20,-1 0,0 -15,-145 -15,-161 0,-17 36,17 36,17z"/>
   <path class="fil35" d="M4658 5858c4,-12 11,-35 17,-48 9,-18 17,-26 17,-26 30,-31 10,-72 10,-72 0,0 -25,20 -27,22 -1,2 -11,19 -18,29l-1 25c0,0 0,34 2,70z"/>
   <path class="fil4" d="M4587 5849c0,0 -13,44 -11,58 2,14 52,144 52,144 0,0 9,0 19,-5 0,0 -1,-57 -10,-93 -10,-36 -21,-58 -31,-61 -10,-3 -16,-36 -19,-43z"/>
   <path class="fil36" d="M4631 5875c0,0 -15,23 -6,44 9,21 -15,18 -15,18 0,0 -12,-35 -9,-40 3,-4 13,-20 16,-20 3,-1 14,-2 14,-2z"/>
   <path class="fil4" d="M4616 5690c0,0 -31,145 -35,184 -2,16 16,44 32,29 19,-18 50,-100 59,-114 10,-15 46,-28 22,-101l-78 2z"/>
   <path class="fil34" d="M4694 5495c0,0 -5,-14 -3,-25 2,-11 8,-30 6,-44 -2,-15 -21,-27 -40,-25 -19,2 -25,20 -28,31 -3,11 -3,27 -2,36 1,9 6,16 9,18 3,2 15,-1 17,1 3,3 4,16 4,16l37 -8z"/>
   <path class="fil51" d="M4703 5507c0,0 -1,-9 -5,-12 -3,-3 -24,-3 -31,-2 -6,1 -22,8 -24,10 -2,1 2,10 2,10l58 -6z"/>
   <path class="fil34" d="M4479 5423c0,-2 2,-1 3,0l0 1c0,-2 0,-4 0,-5 0,-1 2,-1 2,1 0,-1 0,-2 0,-3 0,-1 2,-1 3,1 0,0 0,1 0,2 0,0 0,-1 0,-1 0,-1 2,-1 3,0 0,1 0,1 0,3 0,2 1,3 1,5 0,2 1,4 1,4 4,4 7,6 7,6l4 -3c0,0 2,8 1,10 0,2 -2,5 -1,6 0,2 1,5 1,5l-11 5c0,0 -2,-7 -3,-8 -2,-2 -8,-9 -8,-10 0,0 -1,-3 -2,-6l-1 -4 0 -4 0 -5z"/>
   <path class="fil51" d="M4491 5458c0,0 4,22 7,40 4,14 7,28 14,42l0 0c4,8 11,18 16,19 5,1 21,0 21,0 11,1 37,-3 60,-6l1 0c10,-1 20,-3 26,-3 3,-1 6,-2 8,-4 2,-2 4,-4 4,-7l0 0c2,-7 -3,-13 -9,-17l-1 -1c8,-7 15,-15 15,-15 0,0 -21,1 -33,1 -8,1 -64,16 -71,18l-1 0c0,0 -1,1 -2,1l-2 0c-2,-5 -4,-10 -8,-15 -12,-17 -31,-58 -31,-58l-11 4 0 0 0 0 -3 1z"/>
   <path class="fil4" d="M4693 5477c0,0 -27,2 -32,0 -5,-2 -13,-7 -13,-16 -1,-9 1,-12 -2,-17 -4,-5 -7,-4 -8,1 0,5 0,14 -2,14 -1,1 -3,-5 -3,-14 1,-8 2,-14 4,-20 3,-5 4,-5 6,-6 -2,-1 -5,-1 -9,-8 -6,-9 -3,-22 11,-22 25,0 52,5 52,24 0,0 9,-2 9,15 0,17 -10,37 -11,42 -1,5 0,6 -2,7z"/>
   <path class="fil51" d="M4618 5674c-1,8 -8,21 -3,23 2,1 10,0 20,-1l1 0 0 0c9,-1 19,-2 28,-2 34,-2 51,5 54,3 2,-1 2,-4 2,-7 -2,-7 -2,-15 -1,-22 1,-7 2,-14 4,-23 5,-30 16,-75 18,-102 3,-43 -43,-39 -43,-39 -59,-4 -86,13 -90,38 0,2 0,4 0,6 -2,26 6,67 10,99 1,8 1,18 0,27z"/>
   <path class="fil52" d="M4618 5674c-1,8 -8,21 -3,23 2,1 10,0 20,-1 -9,1 -10,-6 -8,-11 2,-4 6,-15 5,-27 0,-13 -5,-41 -7,-67 -3,-25 -1,-44 -1,-47 -1,3 -5,7 -16,9 0,26 7,65 10,94 1,8 1,18 0,27z"/>
   <path class="fil48" d="M3915 5018l-31 73 -109 -46 140 -27zm-16 116l65 -156 -48 10 -1 0 -97 19 -2 1 -97 20 -2 0 -47 9 229 97z"/>
   <polygon class="fil1" points="3696,5032 3696,5032 3697,5032 3697,5032 "/>
   <polygon class="fil53" points="3698,5040 3697,5039 3696,5032 3697,5032 3699,5039 "/>
   <polygon class="fil1" points="3699,5032 3699,5032 3699,5031 3699,5031 "/>
   <polygon class="fil53" points="3700,5035 3699,5035 3699,5032 3699,5031 3700,5035 "/>
   <polygon class="fil1" points="3701,5031 3702,5031 3702,5031 "/>
   <polygon class="fil53" points="3703,5039 3702,5038 3701,5031 3701,5031 3702,5031 3703,5038 "/>
   <polygon class="fil1" points="3704,5031 3704,5030 3704,5030 "/>
   <polygon class="fil53" points="3705,5034 3704,5034 3704,5031 3704,5031 3704,5030 3705,5034 "/>
   <polygon class="fil1" points="3706,5030 3706,5030 3707,5030 3707,5030 "/>
   <polygon class="fil53" points="3708,5038 3707,5037 3706,5030 3707,5030 3708,5037 "/>
   <polygon class="fil1" points="3709,5030 3709,5030 3709,5029 3709,5029 "/>
   <polygon class="fil53" points="3710,5033 3709,5033 3709,5030 3709,5029 3710,5033 "/>
   <polygon class="fil1" points="3711,5029 3711,5029 3712,5029 "/>
   <polygon class="fil53" points="3713,5037 3712,5036 3711,5029 3712,5029 3713,5036 "/>
   <polygon class="fil1" points="3714,5029 3714,5029 3714,5028 3714,5028 "/>
   <polygon class="fil53" points="3715,5032 3714,5032 3714,5029 3714,5028 3715,5032 "/>
   <polygon class="fil1" points="3716,5028 3716,5028 3717,5028 3717,5028 "/>
   <polygon class="fil53" points="3718,5036 3717,5035 3716,5028 3717,5028 3718,5035 "/>
   <polygon class="fil1" points="3718,5028 3718,5028 3719,5027 3719,5027 3719,5028 "/>
   <polygon class="fil53" points="3720,5031 3719,5031 3718,5028 3719,5028 3719,5027 3720,5031 "/>
   <polygon class="fil1" points="3721,5027 3721,5027 3722,5027 3722,5027 "/>
   <polygon class="fil53" points="3723,5035 3722,5034 3721,5027 3722,5027 3723,5034 "/>
   <polygon class="fil1" points="3723,5027 3723,5027 3724,5026 3724,5026 "/>
   <polygon class="fil53" points="3725,5030 3724,5030 3723,5027 3724,5026 3725,5030 "/>
   <polygon class="fil1" points="3726,5026 3726,5026 3727,5026 "/>
   <polygon class="fil53" points="3728,5034 3727,5033 3726,5026 3727,5026 3727,5026 3728,5033 "/>
   <polygon class="fil1" points="3728,5026 3728,5026 3729,5025 3729,5025 "/>
   <polygon class="fil53" points="3730,5029 3729,5029 3728,5026 3729,5025 3730,5029 "/>
   <polygon class="fil1" points="3731,5025 3732,5025 3732,5025 "/>
   <polygon class="fil53" points="3733,5033 3732,5032 3731,5025 3731,5025 3732,5025 3733,5032 "/>
   <polygon class="fil53" points="3735,5028 3734,5028 3733,5025 3734,5024 3735,5028 "/>
   <polygon class="fil53" points="3738,5032 3737,5031 3736,5024 3737,5024 3738,5031 "/>
   <polygon class="fil1" points="3738,5024 3738,5024 3739,5024 "/>
   <polygon class="fil53" points="3739,5027 3739,5027 3738,5024 3739,5024 3739,5023 3740,5027 "/>
   <polygon class="fil1" points="3741,5023 3741,5023 3742,5023 "/>
   <polygon class="fil53" points="3743,5031 3742,5030 3741,5023 3742,5023 3742,5023 3743,5030 "/>
   <polygon class="fil1" points="3743,5023 3743,5023 3744,5023 "/>
   <polygon class="fil53" points="3744,5026 3744,5026 3743,5023 3744,5023 3744,5022 3745,5026 "/>
   <polygon class="fil1" points="3746,5022 3746,5022 3746,5022 "/>
   <polygon class="fil53" points="3748,5030 3747,5029 3746,5022 3746,5022 3747,5022 3748,5029 "/>
   <polygon class="fil1" points="3748,5022 3748,5022 3749,5021 3749,5021 "/>
   <polygon class="fil53" points="3749,5025 3749,5025 3748,5022 3749,5021 3750,5025 "/>
   <polygon class="fil1" points="3751,5021 3752,5021 3752,5021 "/>
   <polygon class="fil53" points="3753,5029 3752,5028 3751,5021 3751,5021 3752,5021 3753,5028 "/>
   <polygon class="fil1" points="3754,5020 3754,5020 3754,5020 "/>
   <polygon class="fil53" points="3754,5024 3754,5024 3753,5021 3754,5020 3754,5020 3755,5024 "/>
   <polygon class="fil1" points="3756,5020 3757,5020 3757,5020 "/>
   <polygon class="fil53" points="3758,5028 3757,5027 3756,5020 3756,5020 3757,5020 3758,5027 "/>
   <polygon class="fil1" points="3758,5020 3758,5020 3758,5020 "/>
   <polygon class="fil53" points="3759,5023 3759,5023 3758,5020 3758,5020 3759,5019 3760,5023 "/>
   <polygon class="fil53" points="3763,5027 3762,5026 3761,5019 3762,5019 3763,5026 "/>
   <polygon class="fil53" points="3764,5022 3764,5022 3763,5019 3764,5018 3765,5022 "/>
   <polygon class="fil1" points="3766,5018 3766,5018 3766,5018 "/>
   <polygon class="fil53" points="3768,5026 3767,5025 3766,5018 3766,5018 3767,5018 3768,5025 "/>
   <polygon class="fil1" points="3768,5018 3768,5018 3769,5017 3769,5017 "/>
   <polygon class="fil53" points="3769,5021 3769,5021 3768,5018 3769,5017 3770,5021 "/>
   <polygon class="fil1" points="3771,5017 3771,5017 3772,5017 "/>
   <polygon class="fil53" points="3773,5025 3772,5024 3771,5017 3772,5017 3772,5017 3773,5024 "/>
   <polygon class="fil1" points="3773,5017 3773,5017 3774,5016 3774,5016 "/>
   <polygon class="fil53" points="3774,5020 3774,5020 3773,5017 3774,5016 3775,5020 "/>
   <polygon class="fil1" points="3776,5016 3777,5016 3777,5016 "/>
   <polygon class="fil53" points="3778,5024 3777,5023 3775,5016 3776,5016 3777,5016 3778,5023 "/>
   <polygon class="fil1" points="3778,5016 3779,5015 3779,5015 "/>
   <polygon class="fil53" points="3779,5019 3779,5019 3778,5016 3778,5016 3779,5015 3780,5019 "/>
   <polygon class="fil53" points="3783,5023 3782,5022 3780,5015 3782,5015 3783,5022 "/>
   <polygon class="fil1" points="3783,5015 3783,5015 3783,5014 "/>
   <polygon class="fil53" points="3784,5018 3784,5018 3783,5015 3783,5014 3784,5014 3784,5018 "/>
   <polygon class="fil53" points="3787,5022 3787,5021 3785,5014 3786,5014 3788,5021 "/>
   <polygon class="fil1" points="3788,5014 3788,5014 3789,5013 "/>
   <polygon class="fil53" points="3789,5017 3789,5017 3788,5014 3789,5013 3789,5013 3789,5017 "/>
   <polygon class="fil1" points="3790,5013 3790,5013 3791,5013 "/>
   <polygon class="fil53" points="3792,5021 3792,5020 3790,5013 3791,5013 3791,5013 3793,5020 "/>
   <polygon class="fil1" points="3793,5013 3793,5013 3794,5012 3794,5012 "/>
   <polygon class="fil53" points="3794,5016 3794,5016 3793,5013 3794,5012 3794,5016 "/>
   <polygon class="fil1" points="3795,5012 3795,5012 3796,5012 "/>
   <polygon class="fil53" points="3797,5020 3797,5019 3795,5012 3796,5012 3798,5019 "/>
   <polygon class="fil1" points="3798,5012 3798,5012 3799,5011 3799,5011 "/>
   <polygon class="fil53" points="3799,5015 3799,5015 3798,5012 3799,5011 3799,5015 "/>
   <polygon class="fil1" points="3800,5011 3801,5011 3801,5011 "/>
   <polygon class="fil53" points="3802,5019 3802,5018 3800,5011 3800,5011 3801,5011 3803,5018 "/>
   <polygon class="fil1" points="3803,5011 3803,5011 3804,5010 3804,5010 "/>
   <polygon class="fil53" points="3804,5014 3804,5014 3803,5011 3804,5010 3804,5014 "/>
   <polygon class="fil1" points="3806,5010 3806,5010 3806,5010 "/>
   <polygon class="fil53" points="3807,5018 3807,5017 3805,5010 3806,5010 3806,5010 3808,5017 "/>
   <polygon class="fil53" points="3809,5013 3809,5013 3808,5010 3809,5009 3809,5013 "/>
   <polygon class="fil1" points="3810,5009 3810,5009 3811,5009 "/>
   <polygon class="fil53" points="3812,5017 3812,5016 3810,5009 3811,5009 3811,5009 3813,5016 "/>
   <polygon class="fil1" points="3813,5008 3813,5008 3813,5008 "/>
   <polygon class="fil53" points="3814,5012 3814,5012 3813,5008 3813,5008 3814,5008 3814,5012 "/>
   <polygon class="fil1" points="3815,5008 3815,5008 3816,5008 3816,5008 "/>
   <polygon class="fil53" points="3817,5015 3817,5015 3815,5008 3816,5008 3818,5015 "/>
   <polygon class="fil1" points="3818,5008 3818,5007 3819,5007 3819,5007 3818,5007 "/>
   <polygon class="fil53" points="3819,5011 3818,5011 3818,5008 3818,5007 3819,5007 3819,5011 "/>
   <polygon class="fil53" points="3822,5014 3822,5014 3820,5007 3821,5007 3823,5014 "/>
   <polygon class="fil1" points="3823,5007 3823,5007 3823,5006 "/>
   <polygon class="fil53" points="3824,5010 3823,5010 3823,5007 3823,5006 3824,5006 3824,5010 "/>
   <polygon class="fil1" points="3825,5006 3825,5006 3826,5006 3826,5006 "/>
   <polygon class="fil53" points="3827,5013 3827,5013 3825,5006 3826,5006 3828,5013 "/>
   <polygon class="fil1" points="3828,5005 3828,5005 3828,5005 "/>
   <polygon class="fil53" points="3829,5009 3828,5009 3828,5006 3828,5005 3828,5005 3829,5009 "/>
   <polygon class="fil53" points="3832,5012 3832,5012 3830,5005 3831,5005 3831,5005 3833,5012 "/>
   <polygon class="fil53" points="3834,5008 3833,5008 3833,5005 3833,5004 3834,5008 "/>
   <polygon class="fil53" points="3837,5011 3836,5011 3835,5004 3836,5004 3838,5011 "/>
   <polygon class="fil53" points="3839,5007 3838,5007 3838,5004 3838,5003 3839,5007 "/>
   <polygon class="fil1" points="3840,5003 3840,5003 3840,5003 "/>
   <polygon class="fil53" points="3842,5010 3841,5010 3840,5003 3840,5003 3841,5003 3843,5010 "/>
   <polygon class="fil1" points="3843,5003 3843,5002 3843,5002 3843,5002 "/>
   <polygon class="fil53" points="3844,5006 3843,5006 3843,5003 3843,5002 3844,5006 "/>
   <polygon class="fil1" points="3846,5002 3846,5002 3846,5002 "/>
   <polygon class="fil53" points="3847,5009 3846,5009 3845,5002 3846,5002 3846,5002 3847,5009 "/>
   <polygon class="fil1" points="3848,5001 3848,5001 3848,5001 "/>
   <polygon class="fil53" points="3849,5005 3848,5005 3848,5001 3848,5001 3848,5001 3849,5005 "/>
   <polygon class="fil53" points="3852,5008 3851,5008 3850,5001 3851,5001 3852,5008 "/>
   <polygon class="fil1" points="3853,5000 3853,5000 3853,5000 "/>
   <polygon class="fil53" points="3854,5004 3853,5004 3853,5000 3853,5000 3853,5000 3854,5004 "/>
   <polygon class="fil1" points="3855,5000 3856,5000 3856,5000 "/>
   <polygon class="fil53" points="3857,5007 3856,5007 3855,5000 3855,5000 3856,5000 3857,5007 "/>
   <polygon class="fil1" points="3858,4999 3858,4999 3858,4999 "/>
   <polygon class="fil53" points="3859,5003 3858,5003 3858,4999 3858,4999 3858,4999 3859,5003 "/>
   <polygon class="fil53" points="3862,5006 3861,5006 3860,4999 3861,4999 3862,5006 "/>
   <polygon class="fil1" points="3862,4998 3862,4998 3863,4998 "/>
   <polygon class="fil53" points="3864,5002 3863,5002 3862,4998 3863,4998 3863,4998 3864,5002 "/>
   <polygon class="fil1" points="3865,4998 3865,4998 3865,4998 3865,4998 "/>
   <polygon class="fil53" points="3867,5005 3866,5005 3865,4998 3865,4998 3866,4998 3867,5005 "/>
   <polygon class="fil1" points="3867,4997 3867,4997 3868,4997 "/>
   <polygon class="fil53" points="3869,5001 3868,5001 3867,4997 3868,4997 3868,4997 3869,5001 "/>
   <polygon class="fil53" points="3872,5004 3871,5004 3870,4997 3871,4997 3872,5004 "/>
   <polygon class="fil1" points="3872,4996 3872,4996 3873,4996 3873,4996 "/>
   <polygon class="fil53" points="3874,5000 3873,5000 3872,4996 3873,4996 3874,5000 "/>
   <polygon class="fil53" points="3877,5003 3876,5003 3875,4996 3876,4996 3876,4996 3877,5003 "/>
   <polygon class="fil1" points="3878,4995 3878,4995 3878,4995 "/>
   <polygon class="fil53" points="3879,4999 3878,4999 3877,4995 3878,4995 3878,4995 3879,4999 "/>
   <polygon class="fil1" points="3881,4995 3881,4995 3881,4995 "/>
   <polygon class="fil53" points="3882,5002 3881,5002 3880,4995 3881,4995 3881,4995 3882,5002 "/>
   <polygon class="fil53" points="3883,4998 3883,4998 3882,4994 3883,4994 3884,4998 "/>
   <polygon class="fil1" points="3885,4994 3885,4994 3885,4994 "/>
   <polygon class="fil53" points="3887,5001 3886,5001 3885,4994 3885,4994 3886,4994 3887,5001 "/>
   <polygon class="fil1" points="3887,4993 3887,4993 3887,4993 "/>
   <polygon class="fil53" points="3888,4997 3888,4997 3887,4993 3887,4993 3888,4993 3889,4997 "/>
   <polygon class="fil53" points="3892,5000 3891,5000 3890,4993 3891,4993 3892,5000 "/>
   <polygon class="fil1" points="3892,4992 3892,4992 3892,4992 "/>
   <polygon class="fil53" points="3893,4996 3893,4996 3892,4992 3892,4992 3893,4992 3894,4996 "/>
   <polygon class="fil1" points="3895,4992 3895,4992 3895,4992 "/>
   <polygon class="fil53" points="3897,4999 3896,4999 3895,4992 3895,4992 3896,4992 3897,4999 "/>
   <polygon class="fil1" points="3897,4991 3897,4991 3898,4991 "/>
   <polygon class="fil53" points="3898,4995 3898,4995 3897,4991 3898,4991 3898,4991 3899,4995 "/>
   <polygon class="fil53" points="3902,4998 3901,4998 3900,4991 3901,4991 3902,4998 "/>
   <polygon class="fil1" points="3903,4990 3903,4990 3903,4990 "/>
   <polygon class="fil53" points="3903,4994 3903,4994 3902,4990 3903,4990 3903,4990 3904,4994 "/>
   <polygon class="fil53" points="3907,4997 3906,4997 3905,4990 3906,4990 3907,4997 "/>
   <polygon class="fil53" points="3908,4993 3908,4993 3907,4989 3908,4989 3909,4993 "/>
   <polygon class="fil1" points="3910,4989 3910,4989 3910,4989 "/>
   <polygon class="fil53" points="3912,4996 3911,4996 3910,4989 3910,4989 3911,4989 3912,4996 "/>
   <polygon class="fil1" points="3912,4988 3912,4988 3912,4988 "/>
   <polygon class="fil53" points="3913,4992 3913,4992 3912,4988 3912,4988 3913,4988 3914,4992 "/>
   <path class="fil1" d="M3915 4988l0 0 0 0 0 0zm0 0l1 0 0 0 -1 0z"/>
   <polygon class="fil53" points="3917,4995 3916,4995 3915,4988 3915,4988 3916,4988 3917,4995 "/>
   <polygon class="fil1" points="3917,4987 3917,4987 3918,4987 "/>
   <polygon class="fil53" points="3918,4991 3918,4991 3917,4987 3918,4987 3918,4987 3919,4991 "/>
   <polygon class="fil1" points="3919,4987 3919,4987 3921,4987 3921,4987 "/>
   <polygon class="fil53" points="3922,4994 3921,4994 3919,4987 3921,4987 3922,4994 "/>
   <polygon class="fil1" points="3922,4986 3922,4986 3923,4986 3923,4986 "/>
   <polygon class="fil53" points="3923,4990 3923,4990 3922,4986 3923,4986 3924,4990 "/>
   <polygon class="fil1" points="3925,4986 3926,4986 3926,4986 "/>
   <polygon class="fil53" points="3927,4993 3926,4993 3924,4986 3925,4986 3926,4986 3927,4993 "/>
   <polygon class="fil1" points="3927,4985 3928,4985 3928,4985 "/>
   <polygon class="fil53" points="3928,4989 3928,4989 3927,4985 3927,4985 3928,4985 3928,4989 "/>
   <polygon class="fil1" points="3929,4985 3930,4985 3930,4985 "/>
   <polygon class="fil53" points="3931,4992 3931,4992 3929,4985 3929,4985 3930,4985 3932,4992 "/>
   <polygon class="fil1" points="3932,4984 3932,4984 3932,4984 "/>
   <polygon class="fil53" points="3933,4988 3933,4988 3932,4984 3932,4984 3933,4984 3933,4988 "/>
   <polygon class="fil1" points="3934,4984 3934,4984 3935,4984 3935,4984 "/>
   <polygon class="fil53" points="3936,4991 3936,4991 3934,4984 3935,4984 3937,4991 "/>
   <polygon class="fil53" points="3938,4987 3938,4987 3937,4983 3938,4983 3938,4987 "/>
   <path class="fil54" d="M3691 5024c-5,38 11,77 27,66 24,-17 61,-71 64,-71 3,0 4,1 10,1 3,0 8,-1 11,-1 1,0 1,-1 1,-1l0 -1c-1,-1 -3,-1 -5,-1 -1,0 -2,-1 -3,-2 0,-1 0,-1 1,-2 1,0 1,0 2,-1 4,-1 9,-2 13,-3 -3,0 -6,-1 -8,-2 -2,0 -4,0 -6,-1 -3,0 -9,0 -11,1 -6,1 -8,2 -13,5 -3,1 -5,3 -8,5 -6,5 -32,35 -37,39l-38 -31z"/>
   <path class="fil54" d="M3840 5152c0,0 -8,19 -11,41 -3,18 7,48 6,69 0,4 -1,14 -2,17 -3,4 -7,8 -7,13 -1,3 1,6 5,7 3,2 5,0 7,0 7,1 8,6 20,8 4,0 10,-1 13,-4 2,-1 1,-2 1,-4 -1,-1 -10,-3 -14,-6 -4,-2 -9,-8 -9,-11 -1,-2 1,-14 2,-19 5,-35 12,-84 15,-104l-26 -7z"/>
   <path class="fil4" d="M3872 5304c1,-2 1,-4 0,-4 -1,-1 -5,-4 -7,-5 -3,-1 -6,-1 -5,-1 1,1 -1,4 -3,4 -8,-1 -14,-5 -18,-6 -7,-2 -8,-9 -8,-10 -2,1 -6,7 -6,9 -1,1 -2,4 -1,6 0,1 1,3 1,6 0,0 1,1 4,1 2,1 5,0 5,0l1 -4c0,0 1,0 4,1 2,0 4,2 6,3 1,1 2,2 3,3 3,1 6,2 10,2 8,0 13,-3 14,-5z"/>
   <path class="fil54" d="M3735 5106l-56 32c0,0 4,21 29,26 15,3 38,-1 44,-1 6,1 102,4 102,4 0,0 10,2 12,-5 2,-12 0,-16 -8,-21 -14,-9 -65,-26 -123,-35z"/>
   <path class="fil55" d="M3839 5159c0,0 -3,21 0,43 3,18 22,49 27,70 0,4 3,14 2,17 -1,4 -4,10 -3,14 0,3 3,6 7,6 3,1 5,-2 6,-2 7,-1 10,3 22,1 4,0 9,-3 12,-6 1,-2 0,-3 -1,-4 -1,-1 -10,-1 -15,-2 -4,-1 -10,-6 -12,-8 -1,-2 -3,-14 -3,-20 -5,-34 -13,-93 -16,-113l-26 4z"/>
   <path class="fil4" d="M3913 5302c0,-2 0,-4 -1,-4 -1,0 -6,-2 -9,-2 -2,0 -6,0 -5,0 2,1 0,4 -2,4 -7,2 -14,-1 -19,0 -6,0 -10,-6 -10,-7 -1,1 -3,7 -3,9 0,2 0,5 1,7 0,1 2,3 2,5 0,0 2,1 5,0 2,0 5,-1 5,-1l-1 -4c0,0 2,0 4,-1 2,0 5,1 6,2 2,0 3,1 4,1 4,1 6,1 10,0 8,-2 12,-6 13,-9z"/>
   <path class="fil55" d="M3736 5110l-56 32c0,0 2,20 28,25 14,4 39,0 45,0 6,1 102,4 102,4 0,0 10,2 10,-6 1,-10 2,-15 -6,-20 -14,-9 -65,-26 -123,-35z"/>
   <path class="fil4" d="M3691 5092c0,0 -18,34 -13,49 4,14 13,28 37,28 24,0 84,0 84,0 0,0 2,-16 8,-25 5,-10 13,-18 13,-18 0,0 -61,-19 -65,-23 -4,-4 -8,-13 -8,-13l-56 2z"/>
   <path class="fil51" d="M3701 4982c-7,12 -11,29 -13,48 1,0 17,3 25,3l-12 -51z"/>
   <path class="fil51" d="M3748 4969c3,1 2,9 5,10 2,0 7,-1 9,1 11,6 8,19 10,34 5,13 6,24 2,30 -5,9 -10,11 -16,18 -4,5 -5,16 -6,27 0,2 1,6 1,8 -1,3 -7,4 -13,5 -14,0 -36,-5 -42,-5 -7,0 -12,-3 -12,-6 1,-3 3,-4 4,-9 2,-10 4,-37 6,-46 4,-23 7,-40 17,-61l35 -6z"/>
   <path class="fil52" d="M3780 5024c-3,-6 -8,-12 -13,-17l-12 6c6,11 7,24 10,36 2,0 7,-1 7,-1 1,-2 0,-1 2,-4 3,-4 6,-12 6,-20z"/>
   <path class="fil55" d="M3789 4938c1,-6 2,-11 2,-16 0,-9 -2,-22 -17,-28 -15,-5 -32,-2 -37,9 -5,11 -3,27 -4,36 -1,9 -7,20 -7,20l32 14c0,0 6,-12 8,-13 2,-2 3,4 10,3 3,0 6,-5 9,-12l0 -1c2,0 4,0 4,0 2,-1 2,-2 2,-3 -1,-3 -2,-7 -2,-9z"/>
   <path class="fil55" d="M3842 5117c0,3 7,9 11,10 1,0 2,0 3,-1 2,0 8,0 5,-3 4,2 8,2 13,1 1,-1 1,-2 -3,-3 -4,0 -8,-3 -11,-7 0,0 1,1 3,1 2,0 3,-2 3,-2 0,-1 -3,-1 -3,-2 -3,-1 -5,-2 -7,-3 -3,-1 -4,-1 -7,-1 0,0 -5,1 -3,2l-4 8z"/>
   <path class="fil55" d="M3766 5030c0,0 17,47 20,50 11,15 58,39 58,39 0,0 7,-3 5,-10 -14,-7 -40,-35 -46,-39 -4,-2 -20,-59 -20,-59l-17 19z"/>
   <path class="fil51" d="M3773 4979c-13,-5 -25,-5 -34,-14 -10,7 11,50 17,51 5,1 12,25 13,28 18,0 24,-10 24,-10 -7,-21 -8,-50 -20,-55z"/>
   <path class="fil4" d="M3763 4980c-1,-3 -4,-6 -4,-9 -1,-3 0,-7 2,-10 1,-1 2,-3 4,-4 7,-5 9,-10 7,-18 -1,-2 -2,-5 -1,-8 0,-2 0,-5 3,-5 2,0 3,0 4,2 0,1 -1,9 2,4 2,-4 5,-4 4,-14 0,-1 0,-6 1,-7 4,4 6,9 6,13 4,-1 4,-6 4,-8 0,-4 0,-7 -1,-10 -6,-12 -13,-15 -18,-17 -5,-2 -10,-4 -16,-4 -6,0 -12,2 -14,6 -8,-2 -12,5 -14,7 -3,4 -5,7 -6,12 -2,6 -2,12 -4,18 -1,6 -3,11 -7,14 -4,4 -9,4 -14,7 -5,4 -8,11 -7,17 0,7 3,14 -1,20 -1,2 -3,3 -4,5 -3,5 -3,11 0,16 3,4 8,10 14,11 5,2 9,3 14,2 9,0 17,0 27,-8 6,-5 2,-8 8,-13 3,-3 7,-4 9,-8 2,-3 2,-7 2,-10l0 -1z"/>
   <path class="fil0" d="M3637 5648c10,11 9,28 -2,38l-56 48c-11,10 -28,9 -38,-3l-48 -55c-9,-11 -8,-28 3,-38l55 -48c12,-10 29,-9 38,3l48 55z"/>
   <path class="fil1" d="M3543 5654l-1 1c2,2 3,5 4,7 2,4 4,7 5,10 1,2 2,4 3,6 1,1 1,1 2,0 3,-2 6,-5 9,-8 1,0 1,-1 0,-1 -2,-1 -3,-2 -5,-3 -4,-3 -9,-7 -14,-10 -1,-1 -2,-1 -3,-2zm-8 -10c2,-2 4,-4 6,-5 1,-1 2,-2 3,-1 3,2 7,4 10,7 4,2 7,4 11,6 2,2 5,3 7,5 3,1 5,3 8,4 2,2 5,3 7,5 3,2 5,3 7,4 3,2 7,4 10,6l0 2c-2,2 -4,3 -6,5 -1,1 -3,3 -5,4 -1,1 -1,1 -2,0 -4,-2 -8,-4 -12,-7l-1 0c-1,-1 -2,-2 -3,0 -4,3 -9,7 -13,10 -1,1 -1,2 0,3 2,4 4,8 5,12 2,3 2,3 -1,6 -3,2 -5,4 -8,7 -1,1 -2,1 -2,-1 -2,-2 -3,-5 -4,-8 -1,-3 -2,-5 -4,-8 -1,-3 -2,-5 -3,-8 -2,-4 -4,-8 -5,-12 -2,-3 -4,-7 -5,-11 -2,-4 -4,-8 -6,-12 0,-1 -1,-2 -2,-4 0,-1 0,-3 1,-4 3,-1 5,-3 7,-5l0 0z"/>
   <path class="fil1" d="M3605 5642c5,6 10,12 15,18 1,1 1,2 0,3 -3,2 -6,5 -9,8 -1,1 -2,1 -3,-1 -10,-11 -20,-23 -30,-34 -2,-3 -2,-3 0,-4 3,-3 6,-5 8,-8 2,-1 2,-1 4,1 5,6 10,12 15,17l0 0z"/>
   <path class="fil1" d="M3568 5612c3,-4 8,-4 11,0 3,4 3,8 -1,12 -4,3 -9,2 -12,-1 -2,-3 -3,-8 2,-11z"/>
  </g>
 </g>
</svg>
